<svg id="Layer_1" data-name="Layer 1" xmlns="http://www.w3.org/2000/svg" viewBox="0 0 608.9 441.28"><defs><style>.cls-1,.cls-23,.cls-5{fill:none;}.cls-1,.cls-23{stroke:#0070c0;stroke-miterlimit:10;stroke-width:2px;}.cls-2{fill:#0070c0;}.cls-3{fill:#3ca0f0;}.cls-4,.cls-6,.cls-8{isolation:isolate;}.cls-28,.cls-4{font-size:8.5px;font-family:Arial-BoldMT, Arial;font-weight:700;}.cls-12,.cls-14,.cls-28,.cls-4,.cls-9{fill:#fff;}.cls-25,.cls-27,.cls-6,.cls-8{font-size:7.73px;}.cls-27,.cls-6{fill:#3f3f3f;}.cls-24,.cls-25,.cls-27,.cls-6,.cls-8{font-family:ArialMT, Arial;}.cls-7{fill:#f2f2f2;}.cls-10,.cls-7{stroke:#7f7f7f;stroke-width:0.75px;}.cls-10,.cls-7,.cls-9{stroke-linecap:round;stroke-linejoin:round;}.cls-9{stroke:#000;stroke-width:0.5px;}.cls-10{fill:#dbeef3;}.cls-11{fill:#0078d7;}.cls-12,.cls-14{stroke:#fff;stroke-miterlimit:3;}.cls-12{stroke-width:1.55px;}.cls-13{fill:#006fd4;}.cls-14{stroke-width:1.5px;}.cls-15{fill:#0089cf;}.cls-16{fill:#fcfdfe;}.cls-17{fill:#fdfcfd;}.cls-18{fill:#f5f4f8;}.cls-19{fill:#058bd0;}.cls-20{fill:#eaf2f8;}.cls-21{fill:#f5f7fa;}.cls-22{fill:#f3f5f9;}.cls-23{stroke-linecap:square;}.cls-24{font-size:7px;}.cls-26{letter-spacing:-0.02em;}</style></defs><title>OJ103682916</title><line class="cls-1" x1="404.9" y1="83.88" x2="404.9" y2="99.17"/><polygon class="cls-2" points="402.2 97.38 404.9 107.28 407.6 97.38 402.2 97.38"/><line class="cls-1" x1="442.4" y1="65.07" x2="498.2" y2="65.07"/><polygon class="cls-2" points="496.4 67.78 506.2 65.08 496.4 62.48 496.4 67.78"/><line class="cls-1" x1="442.4" y1="124.67" x2="498.2" y2="124.67"/><polygon class="cls-2" points="496.4 127.38 506.2 124.67 496.4 122.08 496.4 127.38"/><line class="cls-1" x1="442.4" y1="186.17" x2="498.2" y2="186.17"/><polygon class="cls-2" points="496.4 188.78 506.2 186.18 496.4 183.47 496.4 188.78"/><line class="cls-1" x1="442.2" y1="244.17" x2="498" y2="244.17"/><polygon class="cls-2" points="496.1 246.78 506 244.18 496.1 241.57 496.1 246.78"/><line class="cls-1" x1="442.4" y1="304.97" x2="498.2" y2="304.97"/><polygon class="cls-2" points="496.4 307.68 506.2 304.98 496.4 302.38 496.4 307.68"/><line class="cls-1" x1="439.6" y1="366.58" x2="498.2" y2="366.58"/><polygon class="cls-2" points="496.4 369.27 506.2 366.57 496.4 363.88 496.4 369.27"/><line class="cls-1" x1="439.6" y1="366.58" x2="500" y2="417.27"/><polygon class="cls-2" points="496.9 418.07 506.2 422.38 500.3 413.98 496.9 418.07"/><line class="cls-1" x1="71.8" y1="83.97" x2="71.8" y2="183.58"/><polygon class="cls-2" points="69.2 181.78 71.8 191.57 74.4 181.78 69.2 181.78"/><line class="cls-1" x1="55" y1="226.37" x2="55" y2="330.37"/><polygon class="cls-2" points="52.4 328.68 55 338.48 57.6 328.68 52.4 328.68"/><rect class="cls-3" x="506.2" y="46.97" width="68.7" height="36.2"/><text class="cls-4" transform="translate(520.9 67.61)">VM/VMSS</text><g id="shape16-7"><rect class="cls-3" x="35" y="337.87" width="68.7" height="36.2"/><text class="cls-4" transform="translate(49.66 358.5)">VM/VMSS</text></g><g id="shape17-11"><rect class="cls-3" x="506.2" y="106.67" width="68.7" height="36.2"/></g><rect class="cls-3" x="506.2" y="226.08" width="68.7" height="36.2"/><rect class="cls-3" x="506.2" y="285.08" width="68.7" height="36.2"/><rect class="cls-3" x="506.2" y="166.17" width="68.7" height="36.2"/><g id="shape39-100"><rect class="cls-5" x="303" y="65.78" width="49.6" height="15.5"/><text class="cls-6" transform="translate(310.2 75.82)">Greenfield</text></g><g id="shape40-104"><rect class="cls-5" x="133.3" y="65.88" width="52.7" height="15.5"/><text class="cls-6" transform="translate(141.5 75.97)">Brownfield</text></g><g id="shape41-108"><rect class="cls-5" x="19.2" y="101.38" width="52.7" height="15.5"/><text class="cls-6" transform="translate(9.68 111.43)">Migrar mediante<tspan x="15.89" y="9.27">lift-and-shift</tspan></text></g><g id="shape50-141"><rect class="cls-5" x="401" y="144.97" width="31.8" height="15.5"/><text class="cls-6" transform="translate(411.74 154.94)">No</text></g><g id="shape51-145"><rect class="cls-5" x="400.1" y="263.97" width="31.8" height="15.5"/><text class="cls-6" transform="translate(410.78 273.99)">No</text></g><g id="shape52-149"><rect class="cls-5" x="440.3" y="289.47" width="31.8" height="15.5"/><text class="cls-6" transform="translate(451.1 299.55)">No</text></g><g id="shape53-153"><rect class="cls-5" x="460.8" y="378.87" width="31.8" height="15.5"/><text class="cls-6" transform="translate(471.57 388.9)">No</text></g><g id="shape1-167"><path class="cls-7" d="M201,47.7h85a14,14,0,0,1,13.9,13.9v8.3A14,14,0,0,1,286,83.8H201a14,14,0,0,1-13.9-13.9V61.6A13.81,13.81,0,0,1,201,47.7Z" transform="translate(0 -0.03)"/><text class="cls-8" transform="translate(200.21 68.02)">¿Greenfield o Brownfield?</text></g><g id="shape2-172"><path class="cls-7" d="M377.7,106.7h50.8a14,14,0,0,1,13.9,13.9v8.3a14,14,0,0,1-13.9,13.9H377.7a14,14,0,0,1-13.9-13.9v-8.3A13.81,13.81,0,0,1,377.7,106.7Z" transform="translate(0 -0.03)"/><text class="cls-8" transform="translate(371.85 123.75)">¿Carga de trabajo<tspan x="20.83" y="9.27">HPC?</tspan></text></g><g id="shape3-176"><path class="cls-7" d="M377.7,166.2h50.8a14,14,0,0,1,13.9,13.9v8.3a14,14,0,0,1-13.9,13.9H377.7a14,14,0,0,1-13.9-13.9v-8.3A13.75,13.75,0,0,1,377.7,166.2Z" transform="translate(0 -0.03)"/></g><g id="shape4-181"><path class="cls-7" d="M377.7,225.6h50.8a14,14,0,0,1,13.9,13.9v8.3a14,14,0,0,1-13.9,13.9H377.7a14,14,0,0,1-13.9-13.9v-8.3A13.81,13.81,0,0,1,377.7,225.6Z" transform="translate(0 -0.03)"/></g><g id="shape5-187"><path class="cls-7" d="M59.5,47.9h50.8a14,14,0,0,1,13.9,13.9v8.3A14,14,0,0,1,110.3,84H59.5A14,14,0,0,1,45.6,70.1V61.8A13.93,13.93,0,0,1,59.5,47.9Z" transform="translate(0 -0.03)"/></g><g id="shape6-192"><path class="cls-7" d="M377.7,47h50.8a14,14,0,0,1,13.9,13.9v8.3a14,14,0,0,1-13.9,13.9H377.7a14,14,0,0,1-13.9-13.9V60.9A13.87,13.87,0,0,1,377.7,47Z" transform="translate(0 -0.03)"/></g><g id="shape15-198"><path class="cls-7" d="M377.7,285.1h50.8A14,14,0,0,1,442.4,299v8.3a14,14,0,0,1-13.9,13.9H377.7a14,14,0,0,1-13.9-13.9V299A13.75,13.75,0,0,1,377.7,285.1Z" transform="translate(0 -0.03)"/></g><g id="shape55-203"><rect class="cls-5" x="401" y="85.28" width="31.8" height="15.5"/><text class="cls-6" transform="translate(411.74 95.35)">No</text></g><rect class="cls-5" x="443.78" y="48.57" width="31.8" height="15.5"/><text class="cls-6" transform="translate(450.75 58.65)">Sí</text><text class="cls-6" transform="translate(450.75 117.85)">Sí</text><text class="cls-6" transform="translate(411.74 214.54)">Sí</text><text class="cls-6" transform="translate(94.24 238.83)">Sí</text><text class="cls-6" transform="translate(411.74 334.68)">Sí</text><text class="cls-6" transform="translate(450.75 361.34)">Sí</text><text class="cls-6" transform="translate(450.46 238.83)">Sí</text><g id="shape56-207"><rect class="cls-5" x="440.3" y="170.67" width="31.8" height="15.5"/><text class="cls-6" transform="translate(451.1 180.68)">No</text></g><g id="shape1002-211"><path class="cls-9" d="M243.5,47.6l-9.3-9.3h4.6V12.8h9.3V38.3h4.6Z" transform="translate(0 -0.03)"/></g><g id="shape1003-213"><path class="cls-10" d="M231.1.4H256a14,14,0,0,1,13.9,13.9v2.8A14,14,0,0,1,256,31H231.1a14,14,0,0,1-13.9-13.9V14.3A13.87,13.87,0,0,1,231.1.4Z" transform="translate(0 -0.03)"/><text class="cls-8" transform="translate(229.28 17.85)">INICIAR</text></g><g id="shape1013-217"><path class="cls-11" d="M18.2,356h0l3.9-2.2a.1.1,0,0,0,.1-.1c0-.1,0-.1-.1-.1l-3.9-2.2H18l-3.9,2.2-.1.1c0,.1,0,.1.1.1l4.1,2.2Zm-.6,5.4h0l.1-4.6c0-.1,0-.1-.1-.1l-3.9-2.2h-.1l-.1.1v4.5c0,.1,0,.1.1.1l4,2.2Zm1.1,0h0l3.9-2.2a.1.1,0,0,0,.1-.1v-4.5c0-.1,0-.1-.1-.1h-.1l-3.9,2.2a.1.1,0,0,0-.1.1l.2,4.6Zm-1.6-13L14.7,347h-.1l-2.4,1.4H8a1.22,1.22,0,0,0-1.2,1.2v8.8H5.1V345.7H23.8v2.7ZM21,364.5h6.4a1.3,1.3,0,0,0,1.3-1.2V349.7a1.3,1.3,0,0,0-1.3-1.2h-2v-3.1a1.3,1.3,0,0,0-1.3-1.2H21.9v-3.1a1.3,1.3,0,0,0-1.3-1.2H1.2A1.22,1.22,0,0,0,0,341.1v13.6a1.16,1.16,0,0,0,1.2,1.2H3.4V359a1.16,1.16,0,0,0,1.2,1.2H6.7v3.1a1.16,1.16,0,0,0,1.2,1.2H15c.7,2.5-.2,2.9-4.5,2.9v1.4H24.9v-1.3C20.8,367.4,20.3,367,21,364.5Zm6.3-1.7H8.6V350.1H27.3ZM13.6,344.1l-2.3-1.4h-.1l-2.4,1.4H4.6a1.16,1.16,0,0,0-1.2,1.2v8.8H1.6V341.4H20.3v2.7Z" transform="translate(0 -0.03)"/></g><g id="shape1014-219"><path class="cls-11" d="M598.3,67h0l3.9-2.2.1-.1c0-.1,0-.1-.1-.1l-3.9-2.2h-.1l-3.9,2.2-.1.1c0,.1,0,.1.1.1l4,2.2Zm-.6,5.4h0c.1,0,.1-.1,0,0l.1-4.6c0-.1,0-.1-.1-.1l-3.9-2.2h-.2l-.1.1v4.5c0,.1,0,.1.1.1l4.1,2.2Zm1.2,0h0l3.9-2.2a.1.1,0,0,0,.1-.1V65.6c0-.1,0-.1-.1-.1h-.2l-3.9,2.2-.1.1v4.5c.1,0,.1.1.3.1Zm-1.7-13.1-2.4-1.4h-.1l-2.3,1.4h-4.2a1.22,1.22,0,0,0-1.2,1.2v8.8h-1.6V56.6h18.5v2.7Zm4,16.1h6.4a1.3,1.3,0,0,0,1.3-1.2V60.7a1.3,1.3,0,0,0-1.3-1.2h-2V56.3a1.3,1.3,0,0,0-1.3-1.2h-2.2V52a1.3,1.3,0,0,0-1.3-1.2H581.3a1.22,1.22,0,0,0-1.2,1.2V65.6a1.16,1.16,0,0,0,1.2,1.2h2.2v3.1a1.16,1.16,0,0,0,1.2,1.2h2.2v3.1a1.16,1.16,0,0,0,1.2,1.2h7.1c.7,2.5-.2,2.9-4.5,2.9v1.3h14.4V78.3c-4.2,0-4.7-.4-3.9-2.9Zm6.2-1.7H588.7V61h18.7ZM593.8,55l-2.3-1.4h-.1L589.1,55h-4.2a1.16,1.16,0,0,0-1.2,1.2V65h-1.8V52.3h18.7v2.6l-6.8.1Z" transform="translate(0 -0.03)"/></g><g id="group1015-221"><g id="shape1016-222"><path class="cls-12" d="M597.1,125.7a1.28,1.28,0,0,0-1-1H584.3c-.4,0-.7.6-.7,1v11.8a.73.73,0,0,0,.6.7h12.1c.4,0,.9-.4.9-.7l-.1-11.8Z" transform="translate(0 -0.03)"/></g><g id="shape1017-224"><path class="cls-12" d="M605.5,128.2c0-.2-.2-.3-.4-.4h-6c-.2,0-.3.2-.4.4v6c0,.2.2.3.4.4h6c.2,0,.3-.2.4-.4Z" transform="translate(0 -0.03)"/></g><g id="shape1018-226"><path class="cls-12" d="M603.2,123.7s.6-4.6-3.6-5.5h-.9a3.09,3.09,0,0,0-.8.2v1.9a1.17,1.17,0,0,1,.8-.2,2.2,2.2,0,0,1,.8.1c1,.4,2,1,1.8,3.6h-1.8l2.9,3.6,2.8-3.6h-2Z" transform="translate(0 -0.03)"/></g><g id="shape1019-228"><path class="cls-12" d="M606.9,129.6h-.6v5.9h-5.9v.5c0,.2.2.3.4.4h6c.2,0,.3-.2.4-.4v-6c0-.2-.1-.3-.3-.4Z" transform="translate(0 -0.03)"/></g><g id="shape1020-230"><path class="cls-12" d="M590,131.3h-.5v5.9h-5.9v.5c0,.2.2.3.4.4h6c.2,0,.3-.2.4-.4v-6A.43.43,0,0,0,590,131.3Z" transform="translate(0 -0.03)"/></g><g id="group1021-232"><g id="group1022-233"><g id="shape1023-234"><rect class="cls-13" x="586" y="117.88" width="8.5" height="1.7"/></g><g id="shape1024-236"><rect class="cls-13" x="586" y="120.28" width="8.5" height="1.7"/></g><g id="shape1025-238"><rect class="cls-13" x="586" y="122.88" width="8.5" height="1.7"/></g></g><g id="group1026-240"><g id="shape1027-241"><path class="cls-13" d="M597.1,125.7a1.28,1.28,0,0,0-1-1H584.3c-.4,0-.7.6-.7,1v11.8a.73.73,0,0,0,.6.7h12.1c.4,0,.9-.4.9-.7l-.1-11.8Zm-1.8,10.8H585.2V128h10.1Z" transform="translate(0 -0.03)"/></g><g id="shape1028-243"><path class="cls-13" d="M605.5,128.3c0-.2-.2-.3-.4-.4h-6c-.2,0-.3.2-.4.4v6c0,.2.2.3.4.4h6a.43.43,0,0,0,.4-.4Zm-.9,5.6h-5.1v-4.2h5.1Z" transform="translate(0 -0.03)"/></g><g id="shape1029-245"><rect class="cls-13" x="600.4" y="130.47" width="3.4" height="0.8"/></g><g id="shape1030-247"><path class="cls-13" d="M603.2,123.7s.6-4.6-3.6-5.5h-.9a3.09,3.09,0,0,0-.8.2v1.9a1.17,1.17,0,0,1,.8-.2,2.2,2.2,0,0,1,.8.1c1,.4,2,1,1.8,3.6h-1.8l2.9,3.6,2.8-3.6Z" transform="translate(0 -0.03)"/></g><g id="shape1031-249"><path class="cls-13" d="M606.9,129.7h-.6v5.9h-5.9v.5c0,.2.2.3.4.4h6c.2,0,.3-.2.4-.4v-6c0-.2-.1-.3-.3-.4Z" transform="translate(0 -0.03)"/></g><g id="shape1032-251"><path class="cls-13" d="M608.5,131.3H608v5.9h-5.9v.5c0,.2.2.3.4.4h6c.2,0,.3-.2.4-.4v-6c0-.2-.2-.3-.4-.4Z" transform="translate(0 -0.03)"/></g></g></g></g><g id="group1033-254"><g id="group1034-255"><g id="shape1036-257"><path class="cls-14" d="M605,182.7v-9.9H584.1v21h21l-.1-11.1Z" transform="translate(0 -0.03)"/></g></g><g id="group1037-259"><g id="shape1038-260"><path class="cls-11" d="M592.4,192.4h-7v-7h1.4a3.4,3.4,0,0,1-.2-1.4v-.1h-2.7v9.8h9.9v-5.8h-1.5Z" transform="translate(0 -0.03)"/></g><g id="shape1039-262"><path class="cls-11" d="M602.3,185.4h1.3v7h-7V188h-1.5v5.9H605v-9.8h-3.1a1.84,1.84,0,0,1,.4,1.3Z" transform="translate(0 -0.03)"/></g><g id="shape1040-264"><path class="cls-11" d="M585.4,181.3v-7h7v4a6.89,6.89,0,0,1,1.5-.7v-4.8H584v9.9h2.9a6,6,0,0,1,.9-1.5h-2.4Z" transform="translate(0 -0.03)"/></g><g id="shape1041-266"><path class="cls-11" d="M596.5,177.6v-3.3h7v7h-3a3.4,3.4,0,0,1,.2,1.4v.1H605v-9.9H595v4.6h.4A2,2,0,0,1,596.5,177.6Z" transform="translate(0 -0.03)"/></g></g><g id="shape1042-268"><path class="cls-11" d="M601.1,185.3a1.54,1.54,0,0,0-1.5-1.5h-.2a5,5,0,0,0,.2-1.2,4.15,4.15,0,0,0-8.1-1.3,2.92,2.92,0,0,0-.9-.2,2.8,2.8,0,0,0-2.8,2.8v.1a2.88,2.88,0,0,0,2.8,2.9h9.2A1.46,1.46,0,0,0,601.1,185.3Z" transform="translate(0 -0.03)"/></g></g><path class="cls-11" d="M596.8,232.4h-7.5l-4,11.4h4.9L586.3,255l10.6-15h-5.2Zm-18,11.4,1.2,1.3h0l5.3,5.1a.57.57,0,1,0,.8-.8l-5.6-5.6a.61.61,0,0,1,0-.8l5.4-5.4a.61.61,0,0,0,.1-.8l-.1-.1a.61.61,0,0,0-.8,0l-5.3,5.1-1.2,1.2A.65.65,0,0,0,578.8,243.8Zm24.1,0a.61.61,0,0,0,0-.8l-1.2-1.2-5.3-5.1a.61.61,0,0,0-.9.8l.1.1,5.6,5.4a.61.61,0,0,1,0,.8l-5.6,5.6a.57.57,0,1,0,.8.8l5.3-5.2h0Z" transform="translate(0 -0.03)"/><path class="cls-7" d="M41.4,190.6H92.2a14,14,0,0,1,13.9,13.9v8.3a14,14,0,0,1-13.9,13.9H41.4a14,14,0,0,1-13.9-13.9v-8.3A14,14,0,0,1,41.4,190.6Z" transform="translate(0 -0.03)"/><g id="shape1052-295"><rect class="cls-5" x="26.2" y="228.87" width="31.8" height="15.5"/><text class="cls-6" transform="translate(37.05 238.92)">No</text></g><path class="cls-7" d="M376.3,345.3h50.8A14,14,0,0,1,441,359.2v28.5a14,14,0,0,1-13.9,13.9H376.3a14,14,0,0,1-13.9-13.9V359.2A13.87,13.87,0,0,1,376.3,345.3Z" transform="translate(0 -0.03)"/><rect class="cls-3" x="506.2" y="405.08" width="68.7" height="36.2"/><g id="shape1044-313"><path class="cls-11" d="M603.3,420v6.3l3.9-1.5v-3.4Zm-1.5,5.4-.2-.1V421l.2-.1.2-.1.3-.1v4.8l-.3-.1Zm-.9-.2-.2-.1v-3.8l.6-.2v4.2l-.2-.1Zm-.8-.3-.2-.1v-3.4l.5-.2v3.7Zm-.3-3.9v4.1l2.9,1.2V420Zm-1.2-7.2v6.3l3.9-1.5v-3.4Zm0,12.5v6.3l3.9-1.5v-3.4Zm-1.5-7.1-.2-.1v-4.3l.2-.1.2-.1.3-.1v4.9l-.3-.1Zm-.9-.3-.2-.1v-3.9l.6-.2v4.2l-.2-.1Zm-.8-.3-.2-.1v-3.4l.5-.2v3.7Zm-.3-3.8v4.1l2.9,1.2v-6.2Zm2,17-.2-.1v-4.3l.2-.1.2-.1.3-.1V432l-.3-.1Zm-.9-.3-.2-.1v-3.8l.6-.2v4.2l-.2-.1Zm-.8-.3-.2-.1v-3.4l.5-.2v3.7Zm-.3-3.7v4.1l2.9,1.2v-6.3Zm-.7-7.4v6.3l3.9-1.5v-3.4Zm-1.6,5.4-.2-.1V421l.2-.1.2-.1.3-.1v4.8l-.3-.1Zm-.9-.3-.2-.1v-3.8l.6-.2v4.2l-.2-.1Zm-.8-.2-.2-.1v-3.4l.5-.2V425Zm-.3-3.9v4.1l2.9,1.2v-6.3Zm-1.3-7.3v6.3l3.9-1.5v-3.4Zm0,12.6v6.3l3.9-1.5v-3.4Zm-1.5-7.2-.2-.1v-4.3l.2-.1.2-.1.3-.1v4.9l-.3-.1Zm-1-.3-.2-.1v-3.9l.6-.2v4.2l-.2-.1Zm-.7-.2-.2-.1v-3.4l.5-.2v3.7Zm-.3-3.8V419l2.9,1.2v-6.3Zm2,16.9-.2-.1v-4.3l.2-.1.2-.1.3-.1V432l-.3-.1Zm-1-.3-.2-.1v-3.8l.6-.2v4.2l-.2-.1Zm-.7-.3-.2-.1v-3.4l.5-.2v3.7Zm-.3-3.7v4.1l2.9,1.2v-6.3Zm-.7-7.4v6.3l3.9-1.5v-3.4Zm-1.6,5.4-.2-.1V421l.2-.1.2-.1.3-.1v4.8l-.3-.1h-.2Zm-.9-.3-.2-.1v-3.8l.6-.2v4.2l-.2-.1Zm-.8-.2-.2-.1v-3.4l.5-.2V425Zm-.3-3.9v4.1l2.9,1.2v-6.3Z" transform="translate(0 -0.03)"/></g><rect class="cls-3" x="506.2" y="348.08" width="68.7" height="36.2"/><g id="group1045-320"><g id="shape1046-321"><path class="cls-14" d="M588.1,362.7c-.1-.2-.1-.3-.2-.4l2.3-1.9a1.76,1.76,0,0,0,.5.4Zm6.4,12.2a3.61,3.61,0,1,0,6.7-2.7,3,3,0,0,0-1.1-1.4l1-3.4a3.65,3.65,0,0,0-1.2-7.2,3.36,3.36,0,0,0-1.4.5l-2.5-2.1a3.59,3.59,0,0,0,.2-1.1,3.65,3.65,0,1,0-7.3-.3v.3a4.25,4.25,0,0,0,.2,1.1l-2.7,2.2a5.26,5.26,0,0,0-1.8-.4c-2,0-3.6,1.2-3.6,3.2a3.64,3.64,0,0,0,3,3.6l1,3.5a3.61,3.61,0,0,0,4.8,5.4,2.81,2.81,0,0,0,1-1.4l3.7.2Zm.3-14.3.2-.2,2.3,1.9-.1.2Z" transform="translate(0 -0.03)"/></g><g id="shape1047-323"><path class="cls-11" d="M604.2,363.8a3.61,3.61,0,0,0-5.6-3l-2.5-2.1a3.59,3.59,0,0,0,.2-1.1,3.65,3.65,0,0,0-7.3-.3v.3a4.25,4.25,0,0,0,.2,1.1l-2.7,2.2a5.26,5.26,0,0,0-1.8-.4c-2,0-3.6,1.2-3.6,3.2a3.64,3.64,0,0,0,3,3.6l1,3.5a3.61,3.61,0,1,0,4.8,5.4,3.07,3.07,0,0,0,1-1.5h3.7a3.58,3.58,0,1,0,6.7-2.5,2.83,2.83,0,0,0-1.1-1.5l1-3.4A3.47,3.47,0,0,0,604.2,363.8Zm-6.3,6.2a3.73,3.73,0,0,0-3.6,2.9h-3.4a3.73,3.73,0,0,0-3.6-2.9.75.75,0,0,0-.5.1l-.8-2.9a3.46,3.46,0,0,0,2.2-3.3,2.82,2.82,0,0,0-.4-1.5l2.3-1.9a3.52,3.52,0,0,0,4.7,0l2.3,1.9a3.67,3.67,0,0,0,1.8,4.8h.1l-.8,2.9C598.2,370,598,370,597.9,370Z" transform="translate(0 -0.03)"/></g></g><line class="cls-1" x1="404.9" y1="142.67" x2="404.9" y2="157.97"/><polygon class="cls-2" points="402.2 156.18 404.9 166.07 407.6 156.18 402.2 156.18"/><line class="cls-1" x1="404.9" y1="202.17" x2="404.9" y2="217.47"/><polygon class="cls-2" points="402.2 215.78 404.9 225.57 407.6 215.78 402.2 215.78"/><line class="cls-1" x1="404.9" y1="262.08" x2="404.9" y2="277.37"/><polygon class="cls-2" points="402.2 275.57 404.9 285.48 407.6 275.57 402.2 275.57"/><line class="cls-1" x1="404.9" y1="321.08" x2="404.9" y2="336.37"/><polygon class="cls-2" points="402.2 334.68 404.9 344.57 407.6 334.68 402.2 334.68"/><path class="cls-15" d="M606.3,316.7h-27v-27h27Zm-18.2-4.3c.1,0,.2.1.3.1h8.7c.5,0,.6-.3.6-.7v-8.7c0-.9-.1-1-1-1h-8.3c-.5,0-.6.2-.6.6v9.2A2.19,2.19,0,0,1,588.1,312.4Zm10.2-6.6h.4a3.82,3.82,0,0,0,3.3-3.4,3.91,3.91,0,0,0-2.4-4c-.5-.2-.5-.4-.6-.8a4.42,4.42,0,0,0-5.6-3.4,5.33,5.33,0,0,0-2.3,1.6,3.62,3.62,0,0,0-4.1-.1,3.37,3.37,0,0,0-1.5,3.7c-1.8,1.2-2.3,2.7-1.6,4.3a3.11,3.11,0,0,0,3.4,1.9v-3.1c0-.9.2-1.2,1.2-1.2h3.6v-1.9a4.91,4.91,0,0,1-1.1-.1c.7-.9,1.2-1.7,1.9-2.6.6.9,1.2,1.7,1.9,2.6-.5,0-.7.1-1.1.1v1.9h3.6c.8,0,1.1.2,1.1,1.1C598.3,303.6,598.3,304.7,598.3,305.8Z" transform="translate(0 -0.03)"/><path class="cls-16" d="M598.3,305.8v-3.2c0-.8-.2-1.1-1.1-1.1h-3.6v-1.9c.3,0,.6-.1,1.1-.1-.6-.8-1.2-1.7-1.9-2.6-.6.8-1.2,1.7-1.9,2.6.4,0,.7.1,1.1.1v1.9h-3.6c-.9,0-1.2.2-1.2,1.2v3.1a3,3,0,0,1-3.4-1.9c-.7-1.7-.2-3.2,1.6-4.3a3.52,3.52,0,0,1,1.5-3.7,3.62,3.62,0,0,1,4.1.1,5.33,5.33,0,0,1,2.3-1.6,4.42,4.42,0,0,1,5.6,3.4.87.87,0,0,0,.6.8,3.86,3.86,0,0,1-.9,7.4C598.5,305.8,598.5,305.8,598.3,305.8Z" transform="translate(0 -0.03)"/><path class="cls-17" d="M588.1,312.4a1.69,1.69,0,0,1-.2-.5v-9.2c0-.5.2-.6.6-.6h8.3c.9,0,1,.1,1,1v3.1a4.05,4.05,0,0,1-.5-.9c-.1-.4-.1-.8-.2-1.2s-.2-.6-.7-.5c-.2-.1-.3-.2-.5-.2h-6.8a.1.1,0,0,1-.1.1v7.8c-.2.2-.2.3-.4.5A3.81,3.81,0,0,0,588.1,312.4Z" transform="translate(0 -0.03)"/><path class="cls-18" d="M596.5,303.4c.4-.1.6.2.7.5a5,5,0,0,0,.2,1.2,4.05,4.05,0,0,0,.5.9v5.6c0,.4-.1.7-.6.7h-8.7c-.1,0-.2-.1-.3-.1a2.41,2.41,0,0,0,.6-.8c.2-.2.2-.3.4-.5a.9.9,0,0,0,.5.1h6.4a.6.6,0,0,0,.4-.1v-.8C596.5,308.2,596.5,305.8,596.5,303.4Z" transform="translate(0 -0.03)"/><path class="cls-19" d="M596.5,303.4v7.8c-.2,0-.3.1-.4.1h-6.4c-.2,0-.3-.1-.5-.1v-7.8a.1.1,0,0,1,.1-.1h6.8C596.2,303.2,596.3,303.4,596.5,303.4Zm-4.4,7.2h1.5V304h-1.5Zm-.7-6.6h-1.5v6.6h.8c.5.1.6-.2.6-.7v-4.7A4.87,4.87,0,0,0,591.4,304Zm2.8,0v5.4c0,1.3,0,1.3,1.3,1.3a.31.31,0,0,0,.2-.1V304Z" transform="translate(0 -0.03)"/><path class="cls-18" d="M589.1,303.6v0Z" transform="translate(0 -0.03)"/><path class="cls-18" d="M589.1,303.2Z" transform="translate(0 -0.03)"/><path class="cls-20" d="M592.1,310.6V304h1.5v6.6Z" transform="translate(0 -0.03)"/><path class="cls-21" d="M591.4,304v5.9c0,.5-.1.8-.6.7H590V304Z" transform="translate(0 -0.03)"/><path class="cls-22" d="M594.2,304h1.5v6.6c-.1,0-.1.1-.2.1-1.3.1-1.3.1-1.3-1.3V304Z" transform="translate(0 -0.03)"/><line class="cls-1" x1="299.9" y1="65.67" x2="355.7" y2="65.67"/><polygon class="cls-2" points="353.9 68.38 363.7 65.67 353.9 63.08 353.9 68.38"/><line class="cls-1" x1="187.6" y1="66.17" x2="131.8" y2="66.17"/><polygon class="cls-2" points="133.6 63.08 123.8 65.78 133.6 68.38 133.6 63.08"/><line class="cls-23" x1="106.1" y1="125.17" x2="355.7" y2="125.17"/><polygon class="cls-2" points="353.9 127.88 363.7 125.17 353.9 122.58 353.9 127.88"/><line class="cls-1" x1="106.1" y1="83.88" x2="106.1" y2="124.67"/><line class="cls-23" x1="84.9" y1="305.47" x2="355.5" y2="305.47"/><polygon class="cls-2" points="353.7 308.07 363.5 305.38 353.7 302.77 353.7 308.07"/><line class="cls-1" x1="84.9" y1="226.37" x2="84.9" y2="305.47"/><text class="cls-24" transform="translate(56.69 55.26)">¿Migrar mediante <tspan x="6.42" y="8.4">lift-and-shift u</tspan><tspan x="2.52" y="16.8">optimizado para</tspan><tspan x="14" y="25.2">la nube?</tspan></text><text class="cls-25" transform="translate(372.73 58.11)">¿Necesita control <tspan x="19.53" y="9.27">total o </tspan><tspan x="7.94" y="18.54">portabilidad?</tspan></text><text class="cls-25" transform="translate(374.49 181.16)">¿Arquitectura de <tspan x="1.94" y="9.27">microservicios?</tspan></text><text class="cls-24" transform="translate(377.28 233.44)">Carga de trabajo <tspan x="-3.51" y="8.4">basada en eventos </tspan><tspan x="-8.36" y="16.8">con procesos de corta </tspan><tspan x="12.65" y="25.2">duración</tspan></text><text class="cls-25" transform="translate(378.39 295.67)">¿Necesita una <tspan x="2.79" y="9.27">orquestación </tspan><tspan x="7.08" y="18.54">completa?</tspan></text><text class="cls-25" transform="translate(47.65 201.07)">¿Se puede <tspan x="-4.51" y="9.27">almacenar en </tspan><tspan x="-2.58" y="18.54">contenedor?</tspan></text><text class="cls-25" transform="translate(364.2 358.78)">¿Necesita integración <tspan x="4.58" y="9.27">con.NE</tspan><tspan class="cls-26" x="29.91" y="9.27">T</tspan><tspan x="34.49" y="9.27" xml:space="preserve"> o una pila </tspan><tspan x="14.16" y="18.54">de tecnología </tspan><tspan x="2.58" y="27.81">Microsoft totalmente </tspan><tspan x="16.53" y="37.09">compatible?</tspan></text><text class="cls-27" transform="translate(116.14 108.66)">Optimizado <tspan x="-1.94" y="9.27">para la nube</tspan></text><text class="cls-4" transform="translate(515.7 126.27)">Azure Batch</text><text class="cls-4" transform="translate(507.2 246.17)">Azure Functions</text><text class="cls-4" transform="translate(511.44 368.28)">Service Fabric</text><text class="cls-28" transform="translate(532.16 181.46)">App <tspan x="-16.78" y="10.2">Service/ASE</tspan></text><text class="cls-28" transform="translate(520.58 300.61)">Container <tspan x="0.23" y="10.2">Instances</tspan></text><text class="cls-28" transform="translate(508.13 422.16)">Azure Container <tspan x="4.71" y="10.2">Service (AKS)</tspan></text></svg>