<?xml version="1.0" encoding="utf-8"?>
<!-- Generator: Adobe Illustrator 22.0.1, SVG Export Plug-In . SVG Version: 6.00 Build 0)  -->
<svg version="1.1" id="Layer_1" xmlns="http://www.w3.org/2000/svg" xmlns:xlink="http://www.w3.org/1999/xlink" x="0px" y="0px"
	 viewBox="0 0 368.3 416.3" style="enable-background:new 0 0 368.3 416.3;" xml:space="preserve">
<style type="text/css">
	.st0{fill:#0078D7;}
	.st1{fill:none;stroke:#39B54A;stroke-width:6;stroke-miterlimit:10;}
	.st2{fill:#D8D8D8;}
	.st3{fill:#F2F2F2;}
	.st4{fill:#707070;}
	.st5{fill:#FFFFFF;}
	.st6{enable-background:new    ;}
	.st7{fill:#FFFFFF;stroke:#0078D7;stroke-miterlimit:10;}
	.st8{fill:none;stroke:#F15A24;stroke-width:3;stroke-miterlimit:10;}
	.st9{fill:#F15A24;}
	.st10{fill:none;}
</style>
<symbol  id="Virtual_network" viewBox="-19.8 -10.7 39.6 21.4">
	<polygon class="st0" points="19.8,0 17.4,-2.4 9.1,-10.7 7.7,-9.3 17.1,0 7.7,9.3 9.1,10.7 17.4,2.4 	"/>
	<polygon class="st0" points="-19.8,0 -17.3,-2.4 -9.1,-10.7 -7.7,-9.3 -17.1,0 -7.7,9.3 -9.1,10.7 -17.3,2.4 	"/>
	<path class="st0" d="M-4.8,0c0,1.3-1.1,2.4-2.4,2.4s-2.4-1-2.4-2.3c0,0,0,0,0-0.1c0-1.3,1.1-2.4,2.4-2.4C-5.9-2.4-4.8-1.4-4.8,0
		L-4.8,0z"/>
	<path class="st0" d="M0-2.4c1.3,0,2.4,1.1,2.4,2.4S1.3,2.4,0,2.4S-2.4,1.3-2.4,0S-1.3-2.4,0-2.4z"/>
	<path class="st0" d="M7.2-2.4c1.3,0,2.4,1.1,2.4,2.4S8.5,2.4,7.2,2.4l0,0C5.9,2.4,4.8,1.3,4.8,0S5.9-2.4,7.2-2.4z"/>
</symbol>
<line class="st1" x1="150.3" y1="208.6" x2="219.9" y2="91.2"/>
<line class="st1" x1="220.8" y1="319.5" x2="149.4" y2="209.5"/>
<rect y="114.6" class="st2" width="150.3" height="199.2"/>
<rect x="5.6" y="145.6" class="st3" width="59.2" height="134.4"/>
<path class="st4" d="M64.8,145.6h-3v1h2v2.1h1V145.6z M58.8,145.6h-3v1h3V145.6z M52.8,145.6h-3v1h3V145.6z M46.8,145.6h-3v1h3
	V145.6z M40.8,145.6h-3v1h3V145.6z M34.8,145.6h-3v1h3V145.6z M28.8,145.6h-3v1h3V145.6z M22.8,145.6h-3v1h3V145.6z M16.8,145.6h-3
	v1h3V145.6z M10.8,145.6h-3v1h3V145.6z M6.6,146.4h-1v3h1V146.4z M6.6,152.4h-1v3h1V152.4z M6.6,158.4h-1v3h1V158.4z M6.6,164.4h-1
	v3h1V164.4z M6.6,170.4h-1v3h1V170.4z M6.6,176.4h-1v3h1V176.4z M6.6,182.4h-1v3h1V182.4z M6.6,188.4h-1v3h1V188.4z M6.6,194.4h-1v3
	h1V194.4z M6.6,200.4h-1v3h1V200.4z M6.6,206.4h-1v3h1V206.4z M6.6,212.4h-1v3h1V212.4z M6.6,218.4h-1v3h1V218.4z M6.6,224.4h-1v3h1
	V224.4z M6.6,230.4h-1v3h1V230.4z M6.6,236.4h-1v3h1V236.4z M6.6,242.4h-1v3h1V242.4z M6.6,248.4h-1v3h1V248.4z M6.6,254.4h-1v3h1
	V254.4z M6.6,260.4h-1v3h1V260.4z M6.6,266.4h-1v3h1V266.4z M6.6,272.4h-1v3h1V272.4z M6.6,278.4h-1v1.6H7v-1H6.6V278.4L6.6,278.4z
	 M13.1,279h-3v1h3V279z M19.1,279h-3v1h3V279z M25.1,279h-3v1h3V279z M31.1,279h-3v1h3V279z M37.1,279h-3v1h3V279z M43.1,279h-3v1h3
	V279z M49.1,279h-3v1h3V279z M55.1,279h-3v1h3V279z M61.1,279h-3v1h3V279z M64.8,277.8h-1v2.2h1V277.8L64.8,277.8z M64.8,271.8h-1v3
	h1V271.8z M64.8,265.8h-1v3h1V265.8z M64.8,259.8h-1v3h1V259.8z M64.8,253.8h-1v3h1V253.8z M64.8,247.8h-1v3h1V247.8z M64.8,241.8
	h-1v3h1V241.8z M64.8,235.8h-1v3h1V235.8z M64.8,229.8h-1v3h1V229.8z M64.8,223.8h-1v3h1V223.8z M64.8,217.8h-1v3h1V217.8z
	 M64.8,211.8h-1v3h1V211.8z M64.8,205.8h-1v3h1V205.8z M64.8,199.8h-1v3h1V199.8z M64.8,193.8h-1v3h1V193.8z M64.8,187.8h-1v3h1
	V187.8z M64.8,181.8h-1v3h1V181.8z M64.8,175.8h-1v3h1V175.8z M64.8,169.8h-1v3h1V169.8z M64.8,163.8h-1v3h1V163.8z M64.8,157.8h-1
	v3h1V157.8z M64.8,151.8h-1v3h1V151.8z"/>
<rect x="79.9" y="145.6" class="st3" width="59.2" height="134.4"/>
<path class="st4" d="M139.1,145.6h-3v1h2v2.1h1V145.6z M133.1,145.6h-3v1h3V145.6z M127.1,145.6h-3v1h3V145.6z M121.1,145.6h-3v1h3
	V145.6z M115.1,145.6h-3v1h3V145.6z M109.1,145.6h-3v1h3V145.6z M103.1,145.6h-3v1h3V145.6z M97.1,145.6h-3v1h3V145.6z M91.1,145.6
	h-3v1h3V145.6z M85.1,145.6h-3v1h3V145.6z M80.9,146.4h-1v3h1V146.4z M80.9,152.4h-1v3h1V152.4z M80.9,158.4h-1v3h1V158.4z
	 M80.9,164.4h-1v3h1V164.4z M80.9,170.4h-1v3h1V170.4z M80.9,176.4h-1v3h1V176.4z M80.9,182.4h-1v3h1V182.4z M80.9,188.4h-1v3h1
	V188.4z M80.9,194.4h-1v3h1V194.4z M80.9,200.4h-1v3h1V200.4z M80.9,206.4h-1v3h1V206.4z M80.9,212.4h-1v3h1V212.4z M80.9,218.4h-1
	v3h1V218.4z M80.9,224.4h-1v3h1V224.4z M80.9,230.4h-1v3h1V230.4z M80.9,236.4h-1v3h1V236.4z M80.9,242.4h-1v3h1V242.4z M80.9,248.4
	h-1v3h1V248.4z M80.9,254.4h-1v3h1V254.4z M80.9,260.4h-1v3h1V260.4z M80.9,266.4h-1v3h1V266.4z M80.9,272.4h-1v3h1V272.4z
	 M80.9,278.4h-1v1.6h1.5v-1H81L80.9,278.4L80.9,278.4z M87.3,279h-3v1h3V279z M93.3,279h-3v1h3V279z M99.3,279h-3v1h3V279z
	 M105.3,279h-3v1h3V279z M111.3,279h-3v1h3V279z M117.3,279h-3v1h3V279z M123.3,279h-3v1h3V279z M129.3,279h-3v1h3V279z M135.3,279
	h-3v1h3V279z M139.1,277.8h-1v2.2h1V277.8z M139.1,271.8h-1v3h1V271.8z M139.1,265.8h-1v3h1V265.8z M139.1,259.8h-1v3h1V259.8z
	 M139.1,253.8h-1v3h1V253.8z M139.1,247.8h-1v3h1V247.8z M139.1,241.8h-1v3h1V241.8z M139.1,235.8h-1v3h1V235.8z M139.1,229.8h-1v3
	h1V229.8z M139.1,223.8h-1v3h1V223.8z M139.1,217.8h-1v3h1V217.8z M139.1,211.8h-1v3h1V211.8z M139.1,205.8h-1v3h1V205.8z
	 M139.1,199.8h-1v3h1V199.8z M139.1,193.8h-1v3h1V193.8z M139.1,187.8h-1v3h1V187.8z M139.1,181.8h-1v3h1V181.8z M139.1,175.8h-1v3
	h1V175.8z M139.1,169.8h-1v3h1V169.8z M139.1,163.8h-1v3h1V163.8z M139.1,157.8h-1v3h1V157.8z M139.1,151.8h-1v3h1V151.8z"/>
<rect x="216.1" class="st2" width="150.3" height="199.2"/>
<rect x="226.4" y="31" class="st3" width="127.8" height="134.4"/>
<path class="st4" d="M348.2,31h-3v1h3V31z M342.2,31h-3v1h3V31z M336.2,31h-3v1h3V31z M330.2,31h-3v1h3V31z M324.2,31h-3v1h3V31z
	 M318.2,31h-3v1h3V31z M312.2,31h-3v1h3V31z M306.2,31h-3v1h3V31z M300.2,31h-3v1h3V31z M294.2,31h-3v1h3V31z M288.2,31h-3v1h3V31z
	 M282.2,31h-3v1h3V31z M276.2,31h-3v1h3V31z M270.2,31h-3v1h3V31z M264.2,31h-3v1h3V31z M258.2,31h-3v1h3V31z M252.2,31h-3v1h3V31z
	 M246.2,31h-3v1h3V31z M240.2,31h-3v1h3V31z M234.2,31h-3v1h3V31z M228.2,31h-1.8v1l0,0v0.2h1V32h0.8V31z M227.5,35.2h-1v3h1V35.2z
	 M227.5,41.2h-1v3h1V41.2z M227.5,47.2h-1v3h1V47.2z M227.5,53.2h-1v3h1V53.2z M227.5,59.2h-1v3h1V59.2z M227.5,65.2h-1v3h1V65.2z
	 M227.5,71.2h-1v3h1V71.2z M227.5,77.2h-1v3h1V77.2z M227.5,83.2h-1v3h1V83.2z M227.5,89.2h-1v3h1V89.2z M227.5,95.2h-1v3h1V95.2z
	 M227.5,101.2h-1v3h1V101.2z M227.5,107.2h-1v3h1V107.2z M227.5,113.2h-1v3h1V113.2z M227.5,119.2h-1v3h1V119.2z M227.5,125.2h-1v3
	h1V125.2z M227.5,131.2h-1v3h1V131.2z M227.5,137.2h-1v3h1V137.2z M227.5,143.2h-1v3h1V143.2z M227.5,149.2h-1v3h1V149.2z
	 M227.5,155.2h-1v3h1V155.2z M227.5,161.2h-1v3h1V161.2z M231.3,164.4h-3v1h3V164.4z M237.3,164.4h-3v1h3V164.4z M243.3,164.4h-3v1
	h3V164.4z M249.3,164.4h-3v1h3V164.4z M255.3,164.4h-3v1h3V164.4z M261.3,164.4h-3v1h3V164.4z M267.3,164.4h-3v1h3V164.4z
	 M273.3,164.4h-3v1h3V164.4z M279.3,164.4h-3v1h3V164.4z M285.3,164.4h-3v1h3V164.4z M291.3,164.4h-3v1h3V164.4z M297.3,164.4h-3v1
	h3V164.4z M303.3,164.4h-3v1h3V164.4z M309.3,164.4h-3v1h3V164.4z M315.3,164.4h-3v1h3V164.4z M321.3,164.4h-3v1h3V164.4z
	 M327.3,164.4h-3v1h3V164.4z M333.3,164.4h-3v1h3V164.4z M339.3,164.4h-3v1h3V164.4z M345.3,164.4h-3v1h3V164.4z M351.3,164.4h-3v1
	h3V164.4z M354.3,162.4h-1v3h1V162.4z M354.3,156.4h-1v3h1V156.4z M354.3,150.4h-1v3h1V150.4z M354.3,144.4h-1v3h1V144.4z
	 M354.3,138.4h-1v3h1V138.4z M354.3,132.4h-1v3h1V132.4z M354.3,126.4h-1v3h1V126.4z M354.3,120.4h-1v3h1V120.4z M354.3,114.4h-1v3
	h1V114.4z M354.3,108.4h-1v3h1V108.4z M354.3,102.4h-1v3h1V102.4z M354.3,96.4h-1v3h1V96.4z M354.3,90.4h-1v3h1V90.4z M354.3,84.4
	h-1v3h1V84.4z M354.3,78.4h-1v3h1V78.4z M354.3,72.4h-1v3h1V72.4z M354.3,66.4h-1v3h1V66.4z M354.3,60.4h-1v3h1V60.4z M354.3,54.4
	h-1v3h1V54.4z M354.3,48.4h-1v3h1V48.4z M354.3,42.4h-1v3h1V42.4z M354.3,36.4h-1v3h1V36.4z M354.3,31h-3v1h2v1.3h1V31L354.3,31z"/>
<g id="paths">
	<g id="Virtual_machine">
		<path class="st0" d="M306.3,98.8h15.4V88.5h-15.4V98.8z M317.4,95.8l-2.9,1.7v-3.4l2.9-1.7V95.8z M314.2,90.3l2.9,1.7l-2.9,1.7
			l-2.9-1.7L314.2,90.3z M311.1,92.5l2.9,1.7v3.4l-2.9-1.7V92.5z"/>
		<path class="st0" d="M332,80.8h-37.3c-1,0-1.8,0.8-1.8,1.8l0,0v29.1c0,1,0.8,1.8,1.8,1.8l0,0H332c1,0,1.8-0.8,1.8-1.8l0,0V82.6
			C333.8,81.6,333,80.8,332,80.8L332,80.8z M313.2,107.9l-1.1,3.4v0.1l-0.1,0.1h-1v-0.1l-1.2-3.3v-0.3h0.8v0.1l0.9,2.9l0,0l0.9-2.9
			v-0.1l0.1-0.1h0.6v0.1C313.3,107.8,313.3,107.9,313.2,107.9z M318.2,111.3L318.2,111.3c0,0.1-0.1,0.1-0.2,0.1h-0.6v-3.2l0,0
			l-1,3.1v0.1h-0.8v-0.1l-1.1-3.1l0,0v3.2h-0.8V108c0-0.1,0-0.2,0.1-0.2s0.1-0.1,0.2-0.1h0.7c0.1,0,0.1,0,0.2,0.1l0.1,0.1
			c0,0.1,0.1,0.1,0.1,0.2l0.8,2.3l0,0l0.8-2.3c0-0.1,0-0.1,0.1-0.2c0,0,0-0.1,0.1-0.1l0,0c0.1,0,0.1-0.1,0.2-0.1h0.8
			c0,0,0.1,0,0.1,0.1l0,0c0,0,0,0.1,0.1,0.1l0,0L318.2,111.3L318.2,111.3z M323,99.1c0,0.5-0.4,0.9-0.9,0.9l0,0h-5.6
			c-0.6,2.2-0.3,2.4,3.5,2.4v0.9h-11.8v-0.9c3.4,0,4-0.3,3.5-2.4h-5.5c-0.5,0-0.9-0.4-0.9-0.9l0,0V88.2c0-0.5,0.4-1,0.9-1h16
			c0.5,0,0.9,0.5,0.9,1L323,99.1z"/>
	</g>
</g>
<g id="paths-3">
	<g id="Virtual_machine-2">
		<path class="st0" d="M306.8,139.3h15.4V129h-15.4V139.3z M317.9,136.3L315,138v-3.4l2.9-1.7V136.3z M314.7,130.7l2.9,1.7l-2.9,1.7
			l-2.9-1.7L314.7,130.7z M311.6,132.9l2.9,1.7v3.4l-2.9-1.7V132.9z"/>
		<path class="st0" d="M332.5,121.2h-37.3c-1,0-1.8,0.8-1.8,1.8l0,0v29.1c0,1,0.8,1.8,1.8,1.8l0,0h37.3c1,0,1.8-0.8,1.8-1.8l0,0V123
			C334.3,122,333.5,121.2,332.5,121.2L332.5,121.2z M313.7,148.3l-1.1,3.4v0.1l-0.1,0.1h-1v-0.1l-1.1-3.4v-0.3h0.8v0.1l0.9,2.9l0,0
			l0.9-2.9v-0.1l0.1-0.1h0.6v0.1C313.8,148.2,313.8,148.3,313.7,148.3L313.7,148.3z M318.7,151.8L318.7,151.8c0,0.1-0.1,0.1-0.2,0.1
			H318v-3.2l0,0l-1,3.1v0.1h-0.8v-0.1l-1.1-3.1l0,0v3.2h-0.8v-3.5c0-0.1,0-0.2,0.1-0.2s0.1-0.1,0.2-0.1h0.7c0.1,0,0.1,0,0.2,0.1
			l0.1,0.1c0,0.1,0.1,0.1,0.1,0.2l0.8,2.3l0,0l0.8-2.3c0-0.1,0-0.1,0.1-0.2c0,0,0-0.1,0.1-0.1l0,0c0.1,0,0.1-0.1,0.2-0.1h0.8
			c0,0,0.1,0,0.1,0.1l0,0c0,0,0,0.1,0.1,0.1l0,0L318.7,151.8L318.7,151.8z M323.5,139.5c0,0.5-0.4,0.9-0.9,0.9l0,0H317
			c-0.6,2.2-0.3,2.4,3.5,2.4v0.9h-11.8v-0.9c3.4,0,4-0.3,3.5-2.4h-5.5c-0.5,0-0.9-0.4-0.9-0.9l0,0v-10.9c0-0.5,0.4-1,0.9-1h16
			c0.5,0,0.9,0.5,0.9,1L323.5,139.5z"/>
	</g>
</g>
<g id="paths-4">
	<g id="Virtual_machine-3">
		<path class="st0" d="M306.3,58.4h15.4V48.1h-15.4V58.4z M317.4,55.4l-2.9,1.7v-3.4l2.9-1.7V55.4z M314.2,49.9l2.9,1.7l-2.9,1.7
			l-2.9-1.7L314.2,49.9z M311.1,52.1l2.9,1.7v3.4l-2.9-1.7V52.1z"/>
		<path class="st0" d="M332,40.4h-37.3c-1,0-1.8,0.8-1.8,1.8l0,0v29.1c0,1,0.8,1.8,1.8,1.8l0,0H332c1,0,1.8-0.8,1.8-1.8l0,0V42.2
			C333.8,41.2,333,40.4,332,40.4L332,40.4z M313.2,67.5l-1.1,3.4V71H312h-1v-0.1l-1.1-3.4v-0.3h0.8v0.1l0.9,2.9l0,0l0.9-2.9v-0.1
			l0.1-0.1h0.6v0.1C313.3,67.4,313.3,67.5,313.2,67.5z M318.2,71L318.2,71c0,0.1-0.1,0.1-0.2,0.1h-0.6v-3.2l0,0l-1,3.1l0,0h-0.8
			v-0.1l-1.1-3.1l0,0V71h-0.8v-3.4c0-0.1,0-0.2,0.1-0.2s0.1-0.1,0.2-0.1h0.7c0.1,0,0.1,0,0.2,0.1l0.1,0.1c0,0.1,0.1,0.1,0.1,0.2
			l0.8,2.3l0,0l0.8-2.3c0-0.1,0-0.1,0.1-0.2c0,0,0-0.1,0.1-0.1l0,0c0.1,0,0.1-0.1,0.2-0.1h0.8c0,0,0.1,0,0.1,0.1l0,0
			c0,0,0,0.1,0.1,0.1l0,0L318.2,71L318.2,71z M323,58.7c0,0.5-0.4,0.9-0.9,0.9l0,0h-5.6c-0.6,2.2-0.3,2.4,3.5,2.4v1h-11.8v-0.9
			c3.4,0,4-0.3,3.5-2.4h-5.5c-0.5,0-0.9-0.4-0.9-0.9l0,0v-11c0-0.5,0.4-1,0.9-1h16c0.5,0,0.9,0.5,0.9,1L323,58.7z"/>
	</g>
</g>
<path class="st0" d="M257.5,120.3c-1.2,0-2.3-0.5-3.1-1.3l-19.2-19.2c-0.8-0.8-1.3-1.9-1.3-3.1s0.5-2.3,1.3-3.1l19.2-19.2
	c0.8-0.8,1.9-1.3,3.1-1.3s2.3,0.5,3.1,1.3l19.2,19.2c1.7,1.7,1.8,4.4,0.1,6.1l-0.1,0.1L260.6,119
	C259.7,119.8,258.6,120.3,257.5,120.3"/>
<path class="st5" d="M276.8,96.5l-6.2-6.2v4.4H264c-0.7-2.3-2.4-4.1-4.7-4.7v-6.4h4.3l-6.2-6.2l-6.2,6.2h4.3v6.3
	c-2.3,0.7-4,2.4-4.7,4.7h-6.5v-4.3l-6.2,6.2l6.2,6.2v-4.4h6.6c0.7,2.3,2.4,4,4.7,4.7v4.3c-0.9,0.7-2.4,2.2-2.4,3.8
	c0,2.3,1.9,4.2,4.2,4.2c2.3,0,4.2-1.9,4.2-4.2c-0.2-1.5-1-2.9-2.4-3.8v-4.4c2.3-0.7,4-2.4,4.7-4.7h6.6v4.3L276.8,96.5z"/>
<path class="st0" d="M257.5,91.5c-2.8,0-5,2.2-5,5s2.2,5,5,5c2.8,0,5-2.2,5-5S260.2,91.5,257.5,91.5z"/>
<g id="paths-5">
	
		<use xlink:href="#Virtual_network"  width="39.6" height="21.4" x="-19.8" y="-10.7" transform="matrix(0.69 0 0 0.69 235.712 189.073)" style="overflow:visible;"/>
</g>
<g>
	<g>
		<path class="st0" d="M228.9,15h-1.1l-1.3-2.2c-0.1-0.2-0.2-0.4-0.3-0.5c-0.1-0.1-0.2-0.3-0.3-0.3c-0.1-0.1-0.2-0.2-0.4-0.2
			c-0.1,0-0.3-0.1-0.5-0.1h-0.7V15h-0.9V7.3h2.3c0.3,0,0.6,0,0.9,0.1c0.3,0.1,0.5,0.2,0.7,0.4c0.2,0.2,0.4,0.4,0.5,0.6
			S228,9,228,9.4c0,0.3,0,0.5-0.1,0.7c-0.1,0.2-0.2,0.4-0.3,0.6c-0.1,0.2-0.3,0.3-0.5,0.4c-0.2,0.1-0.4,0.2-0.7,0.3v0
			c0.1,0.1,0.2,0.1,0.3,0.2c0.1,0.1,0.2,0.2,0.3,0.3c0.1,0.1,0.2,0.2,0.3,0.3c0.1,0.1,0.2,0.3,0.3,0.4L228.9,15z M224.2,8.1v2.8h1.2
			c0.2,0,0.4,0,0.6-0.1c0.2-0.1,0.4-0.2,0.5-0.3s0.2-0.3,0.3-0.5c0.1-0.2,0.1-0.4,0.1-0.6c0-0.4-0.1-0.7-0.4-1
			c-0.3-0.2-0.7-0.3-1.2-0.3H224.2z"/>
		<path class="st0" d="M233.9,12.5H230c0,0.6,0.2,1.1,0.5,1.4c0.3,0.3,0.7,0.5,1.3,0.5c0.6,0,1.2-0.2,1.7-0.6v0.8
			c-0.5,0.4-1.1,0.5-1.9,0.5c-0.8,0-1.4-0.3-1.8-0.7c-0.4-0.5-0.7-1.2-0.7-2.1c0-0.9,0.2-1.6,0.7-2.1c0.5-0.5,1.1-0.8,1.8-0.8
			s1.3,0.2,1.7,0.7c0.4,0.5,0.6,1.1,0.6,1.9V12.5z M233,11.8c0-0.5-0.1-0.9-0.4-1.2c-0.2-0.3-0.6-0.4-1-0.4c-0.4,0-0.8,0.1-1.1,0.4
			c-0.3,0.3-0.5,0.7-0.5,1.2H233z"/>
		<path class="st0" d="M239.9,15H239v-0.9h0c-0.4,0.7-1,1.1-1.9,1.1c-0.7,0-1.2-0.2-1.7-0.7c-0.4-0.5-0.6-1.2-0.6-2
			c0-0.9,0.2-1.6,0.7-2.2c0.5-0.5,1.1-0.8,1.8-0.8c0.8,0,1.3,0.3,1.6,0.9h0V6.9h0.9V15z M239,12.5v-0.8c0-0.4-0.1-0.8-0.4-1.1
			c-0.3-0.3-0.7-0.5-1.1-0.5c-0.5,0-1,0.2-1.3,0.6c-0.3,0.4-0.5,0.9-0.5,1.6c0,0.6,0.1,1.1,0.4,1.5c0.3,0.4,0.7,0.6,1.2,0.6
			c0.5,0,0.9-0.2,1.2-0.5C238.9,13.5,239,13.1,239,12.5z"/>
		<path class="st0" d="M249,9.5l-2.2,5.5H246l-2.1-5.5h1l1.4,4c0.1,0.3,0.2,0.5,0.2,0.8h0c0-0.3,0.1-0.5,0.2-0.7l1.5-4H249z"/>
		<path class="st0" d="M250.4,8.1c-0.2,0-0.3-0.1-0.4-0.2c-0.1-0.1-0.2-0.2-0.2-0.4s0.1-0.3,0.2-0.4c0.1-0.1,0.2-0.2,0.4-0.2
			c0.2,0,0.3,0.1,0.4,0.2c0.1,0.1,0.2,0.2,0.2,0.4c0,0.2-0.1,0.3-0.2,0.4C250.7,8.1,250.6,8.1,250.4,8.1z M250.9,15H250V9.5h0.9V15z
			"/>
		<path class="st0" d="M255.5,10.4c-0.2-0.1-0.4-0.2-0.7-0.2c-0.4,0-0.7,0.2-0.9,0.5c-0.3,0.4-0.4,0.8-0.4,1.5V15h-0.9V9.5h0.9v1.1
			h0c0.1-0.4,0.3-0.7,0.6-0.9s0.5-0.3,0.9-0.3c0.2,0,0.4,0,0.5,0.1V10.4z"/>
		<path class="st0" d="M259,15c-0.2,0.1-0.5,0.2-0.8,0.2c-1,0-1.4-0.5-1.4-1.6v-3.3h-0.9V9.5h0.9V8.2l0.9-0.3v1.6h1.4v0.8h-1.4v3.1
			c0,0.4,0.1,0.6,0.2,0.8c0.1,0.2,0.3,0.2,0.6,0.2c0.2,0,0.4-0.1,0.6-0.2V15z"/>
		<path class="st0" d="M264.7,15h-0.9v-0.9h0c-0.4,0.7-0.9,1-1.7,1c-1.3,0-2-0.8-2-2.3V9.5h0.9v3.1c0,1.2,0.4,1.7,1.3,1.7
			c0.4,0,0.8-0.2,1.1-0.5c0.3-0.3,0.4-0.7,0.4-1.2V9.5h0.9V15z"/>
		<path class="st0" d="M270.4,15h-0.9v-0.9h0c-0.4,0.7-0.9,1-1.7,1c-0.5,0-1-0.1-1.3-0.4c-0.3-0.3-0.5-0.7-0.5-1.2
			c0-1,0.6-1.6,1.8-1.8l1.6-0.2c0-0.9-0.4-1.4-1.1-1.4c-0.7,0-1.3,0.2-1.8,0.7V9.9c0.5-0.3,1.2-0.5,1.9-0.5c1.3,0,1.9,0.7,1.9,2.1
			V15z M269.5,12.2l-1.3,0.2c-0.4,0.1-0.7,0.2-0.9,0.3c-0.2,0.1-0.3,0.4-0.3,0.8c0,0.3,0.1,0.5,0.3,0.7c0.2,0.2,0.4,0.3,0.8,0.3
			c0.4,0,0.8-0.2,1.1-0.5c0.3-0.3,0.4-0.7,0.4-1.2V12.2z"/>
		<path class="st0" d="M272.9,15H272V6.9h0.9V15z"/>
		<path class="st0" d="M282.4,15h-0.9v-0.9h0c-0.4,0.7-1,1.1-1.9,1.1c-0.7,0-1.2-0.2-1.7-0.7c-0.4-0.5-0.6-1.2-0.6-2
			c0-0.9,0.2-1.6,0.7-2.2c0.5-0.5,1.1-0.8,1.8-0.8c0.8,0,1.3,0.3,1.6,0.9h0V6.9h0.9V15z M281.5,12.5v-0.8c0-0.4-0.1-0.8-0.4-1.1
			c-0.3-0.3-0.7-0.5-1.1-0.5c-0.5,0-1,0.2-1.3,0.6c-0.3,0.4-0.5,0.9-0.5,1.6c0,0.6,0.1,1.1,0.4,1.5c0.3,0.4,0.7,0.6,1.2,0.6
			c0.5,0,0.9-0.2,1.2-0.5C281.4,13.5,281.5,13.1,281.5,12.5z"/>
		<path class="st0" d="M288.6,12.5h-3.9c0,0.6,0.2,1.1,0.5,1.4c0.3,0.3,0.7,0.5,1.3,0.5c0.6,0,1.2-0.2,1.7-0.6v0.8
			c-0.5,0.4-1.1,0.5-1.9,0.5c-0.8,0-1.4-0.3-1.8-0.7c-0.4-0.5-0.7-1.2-0.7-2.1c0-0.9,0.2-1.6,0.7-2.1s1.1-0.8,1.8-0.8
			s1.3,0.2,1.7,0.7c0.4,0.5,0.6,1.1,0.6,1.9V12.5z M287.7,11.8c0-0.5-0.1-0.9-0.4-1.2c-0.2-0.3-0.6-0.4-1-0.4
			c-0.4,0-0.8,0.1-1.1,0.4c-0.3,0.3-0.5,0.7-0.5,1.2H287.7z"/>
		<path class="st0" d="M292.7,14.7v-1.1c0.1,0.1,0.3,0.2,0.4,0.3c0.2,0.1,0.3,0.2,0.5,0.2c0.2,0.1,0.4,0.1,0.6,0.1
			c0.2,0,0.4,0,0.5,0c0.6,0,1-0.1,1.2-0.3c0.3-0.2,0.4-0.5,0.4-0.9c0-0.2,0-0.4-0.1-0.5c-0.1-0.2-0.2-0.3-0.4-0.4s-0.4-0.2-0.6-0.4
			c-0.2-0.1-0.5-0.2-0.7-0.4c-0.3-0.1-0.5-0.3-0.8-0.4c-0.2-0.1-0.4-0.3-0.6-0.5c-0.2-0.2-0.3-0.4-0.4-0.6c-0.1-0.2-0.1-0.5-0.1-0.7
			c0-0.4,0.1-0.7,0.2-0.9c0.2-0.3,0.4-0.5,0.6-0.6c0.3-0.2,0.5-0.3,0.9-0.4c0.3-0.1,0.6-0.1,1-0.1c0.8,0,1.3,0.1,1.7,0.3v1
			c-0.5-0.3-1-0.5-1.8-0.5c-0.2,0-0.4,0-0.6,0.1c-0.2,0-0.4,0.1-0.5,0.2c-0.2,0.1-0.3,0.2-0.4,0.4s-0.1,0.3-0.1,0.5
			c0,0.2,0,0.4,0.1,0.5c0.1,0.1,0.2,0.3,0.3,0.4c0.1,0.1,0.3,0.2,0.5,0.3s0.4,0.2,0.7,0.4c0.3,0.1,0.5,0.3,0.8,0.4s0.5,0.3,0.6,0.5
			c0.2,0.2,0.3,0.4,0.4,0.6s0.2,0.5,0.2,0.8c0,0.4-0.1,0.7-0.2,1c-0.1,0.3-0.3,0.5-0.6,0.6c-0.3,0.2-0.5,0.3-0.9,0.4
			c-0.3,0.1-0.7,0.1-1,0.1c-0.1,0-0.3,0-0.5,0c-0.2,0-0.4,0-0.5-0.1c-0.2,0-0.4-0.1-0.5-0.1C292.9,14.8,292.8,14.8,292.7,14.7z"/>
		<path class="st0" d="M299.7,14.2L299.7,14.2l0,3.3h-0.9v-8h0.9v1h0c0.4-0.7,1.1-1.1,1.9-1.1c0.7,0,1.3,0.2,1.7,0.7s0.6,1.2,0.6,2
			c0,0.9-0.2,1.7-0.7,2.2c-0.4,0.6-1.1,0.8-1.8,0.8C300.6,15.2,300.1,14.9,299.7,14.2z M299.7,12v0.8c0,0.5,0.1,0.8,0.4,1.2
			c0.3,0.3,0.7,0.5,1.1,0.5c0.5,0,1-0.2,1.3-0.6s0.5-1,0.5-1.7c0-0.6-0.1-1.1-0.4-1.4c-0.3-0.3-0.7-0.5-1.1-0.5
			c-0.5,0-0.9,0.2-1.2,0.5S299.7,11.5,299.7,12z"/>
		<path class="st0" d="M307.6,15.2c-0.8,0-1.5-0.3-1.9-0.8s-0.7-1.2-0.7-2c0-0.9,0.3-1.6,0.8-2.2c0.5-0.5,1.2-0.8,2-0.8
			c0.8,0,1.5,0.3,1.9,0.8c0.5,0.5,0.7,1.2,0.7,2.1c0,0.9-0.2,1.6-0.7,2.1S308.4,15.2,307.6,15.2z M307.6,10.1c-0.6,0-1,0.2-1.3,0.6
			c-0.3,0.4-0.5,0.9-0.5,1.6c0,0.7,0.2,1.2,0.5,1.5c0.3,0.4,0.8,0.6,1.3,0.6c0.6,0,1-0.2,1.3-0.6c0.3-0.4,0.5-0.9,0.5-1.6
			c0-0.7-0.2-1.2-0.5-1.6C308.6,10.3,308.2,10.1,307.6,10.1z"/>
		<path class="st0" d="M316.3,15H315l-2.4-2.6h0V15h-0.9V6.9h0.9V12h0l2.3-2.5h1.2l-2.6,2.7L316.3,15z"/>
		<path class="st0" d="M321.6,12.5h-3.9c0,0.6,0.2,1.1,0.5,1.4c0.3,0.3,0.7,0.5,1.3,0.5c0.6,0,1.2-0.2,1.7-0.6v0.8
			c-0.5,0.4-1.1,0.5-1.9,0.5c-0.8,0-1.4-0.3-1.8-0.7c-0.4-0.5-0.7-1.2-0.7-2.1c0-0.9,0.2-1.6,0.7-2.1s1.1-0.8,1.8-0.8
			s1.3,0.2,1.7,0.7c0.4,0.5,0.6,1.1,0.6,1.9V12.5z M320.7,11.8c0-0.5-0.1-0.9-0.4-1.2c-0.2-0.3-0.6-0.4-1-0.4
			c-0.4,0-0.8,0.1-1.1,0.4c-0.3,0.3-0.5,0.7-0.5,1.2H320.7z"/>
		<path class="st0" d="M325.9,15H325V8.4c-0.1,0.1-0.2,0.1-0.3,0.2s-0.3,0.2-0.4,0.3S324,9,323.8,9.1s-0.4,0.1-0.5,0.2V8.4
			c0.2-0.1,0.4-0.1,0.6-0.2c0.2-0.1,0.4-0.2,0.6-0.3c0.2-0.1,0.4-0.2,0.6-0.4c0.2-0.1,0.3-0.2,0.5-0.4h0.3V15z"/>
	</g>
</g>
<rect x="218" y="217.1" class="st2" width="150.3" height="199.2"/>
<rect x="228.3" y="248.1" class="st3" width="127.8" height="134.4"/>
<path class="st4" d="M350.1,248.1h-3v1h3V248.1z M344.1,248.1h-3v1h3V248.1z M338.1,248.1h-3v1h3V248.1z M332.1,248.1h-3v1h3V248.1z
	 M326.1,248.1h-3v1h3V248.1z M320.1,248.1h-3v1h3V248.1z M314.1,248.1h-3v1h3V248.1z M308.1,248.1h-3v1h3V248.1z M302.1,248.1h-3v1
	h3V248.1z M296.1,248.1h-3v1h3V248.1z M290.1,248.1h-3v1h3V248.1z M284.1,248.1h-3v1h3V248.1z M278.1,248.1h-3v1h3V248.1z
	 M272.1,248.1h-3v1h3V248.1z M266.1,248.1h-3v1h3V248.1z M260.1,248.1h-3v1h3V248.1z M254.1,248.1h-3v1h3V248.1z M248.1,248.1h-3v1
	h3V248.1z M242.1,248.1h-3v1h3V248.1z M236.1,248.1h-3v1h3V248.1z M230.1,248.1h-1.8v1l0,0v0.2h1v-0.2h0.8V248.1L230.1,248.1z
	 M229.3,252.3h-1v3h1V252.3z M229.3,258.3h-1v3h1V258.3z M229.3,264.3h-1v3h1V264.3z M229.3,270.3h-1v3h1V270.3z M229.3,276.3h-1v3
	h1V276.3z M229.3,282.3h-1v3h1V282.3z M229.3,288.3h-1v3h1V288.3z M229.3,294.3h-1v3h1V294.3z M229.3,300.3h-1v3h1V300.3z
	 M229.3,306.3h-1v3h1V306.3z M229.3,312.3h-1v3h1V312.3z M229.3,318.3h-1v3h1V318.3z M229.3,324.3h-1v3h1V324.3z M229.3,330.3h-1v3
	h1V330.3z M229.3,336.3h-1v3h1V336.3z M229.3,342.3h-1v3h1V342.3z M229.3,348.3h-1v3h1V348.3z M229.3,354.3h-1v3h1V354.3z
	 M229.3,360.3h-1v3h1V360.3z M229.3,366.3h-1v3h1V366.3z M229.3,372.3h-1v3h1V372.3z M229.3,378.3h-1v3h1V378.3z M233.2,381.4h-3v1
	h3V381.4z M239.2,381.4h-3v1h3V381.4z M245.2,381.4h-3v1h3V381.4z M251.2,381.4h-3v1h3V381.4z M257.2,381.4h-3v1h3V381.4z
	 M263.2,381.4h-3v1h3V381.4z M269.2,381.4h-3v1h3V381.4z M275.2,381.4h-3v1h3V381.4z M281.2,381.4h-3v1h3V381.4z M287.2,381.4h-3v1
	h3V381.4z M293.2,381.4h-3v1h3V381.4z M299.2,381.4h-3v1h3V381.4z M305.2,381.4h-3v1h3V381.4z M311.2,381.4h-3v1h3V381.4z
	 M317.2,381.4h-3v1h3V381.4z M323.2,381.4h-3v1h3V381.4z M329.2,381.4h-3v1h3V381.4z M335.2,381.4h-3v1h3V381.4z M341.2,381.4h-3v1
	h3V381.4z M347.2,381.4h-3v1h3V381.4z M353.2,381.4h-3v1h3V381.4z M356.2,379.4h-1v3h1V379.4z M356.2,373.4h-1v3h1V373.4z
	 M356.2,367.4h-1v3h1V367.4z M356.2,361.4h-1v3h1V361.4z M356.2,355.4h-1v3h1V355.4z M356.2,349.4h-1v3h1V349.4z M356.2,343.4h-1v3
	h1V343.4z M356.2,337.4h-1v3h1V337.4z M356.2,331.4h-1v3h1V331.4z M356.2,325.4h-1v3h1V325.4z M356.2,319.4h-1v3h1V319.4z
	 M356.2,313.4h-1v3h1V313.4z M356.2,307.4h-1v3h1V307.4z M356.2,301.4h-1v3h1V301.4z M356.2,295.4h-1v3h1V295.4z M356.2,289.4h-1v3
	h1V289.4z M356.2,283.4h-1v3h1V283.4z M356.2,277.4h-1v3h1V277.4z M356.2,271.4h-1v3h1V271.4z M356.2,265.4h-1v3h1V265.4z
	 M356.2,259.4h-1v3h1V259.4z M356.2,253.4h-1v3h1V253.4z M356.2,248.1h-3v1h2v1.3h1V248.1z"/>
<g id="paths-6">
	<g id="Virtual_machine-5">
		<path class="st0" d="M308.2,315.9h15.4v-10.3h-15.4V315.9z M319.3,312.9l-2.9,1.7v-3.4l2.9-1.7V312.9z M316.1,307.4l2.9,1.7
			l-2.9,1.7l-2.9-1.8L316.1,307.4z M313.1,309.5l2.9,1.7v3.4l-2.9-1.7V309.5z"/>
		<path class="st0" d="M333.9,297.9h-37.3c-1,0-1.8,0.8-1.8,1.8l0,0v29.1c0,1,0.8,1.8,1.8,1.8l0,0h37.3c1,0,1.8-0.8,1.8-1.8l0,0
			v-29.1C335.7,298.7,334.9,297.9,333.9,297.9L333.9,297.9z M315.1,324.9l-1.1,3.4v0.1l-0.1,0.1h-1v-0.1l-1.2-3.4v-0.3h0.8v0.1
			l0.9,2.9l0,0l0.9-2.9v-0.1l0.1-0.1h0.6v0.1C315.2,324.8,315.2,324.9,315.1,324.9z M320.1,328.4L320.1,328.4c0,0.1-0.1,0.1-0.2,0.1
			h-0.6v-3.2l0,0l-1,3.1v0.1h-0.8v-0.1l-1.1-3.1l0,0v3.2h-0.8V325c0-0.1,0-0.2,0.1-0.2s0.1-0.1,0.2-0.1h0.7c0.1,0,0.1,0,0.2,0.1
			l0.1,0.1c0,0.1,0.1,0.1,0.1,0.2l0.8,2.3l0,0l0.8-2.3c0-0.1,0-0.1,0.1-0.2c0,0,0-0.1,0.1-0.1l0,0c0.1,0,0.1-0.1,0.2-0.1h0.8
			c0,0,0.1,0,0.1,0.1l0,0c0,0,0,0.1,0.1,0.1l0,0L320.1,328.4L320.1,328.4z M324.9,316.2c0,0.5-0.4,0.9-0.9,0.9l0,0h-5.6
			c-0.6,2.2-0.3,2.4,3.5,2.4v0.9H310v-0.9c3.4,0,4-0.3,3.5-2.4H308c-0.5,0-0.9-0.4-0.9-0.9l0,0v-10.9c0-0.5,0.4-1,0.9-1h16
			c0.5,0,0.9,0.5,0.9,1V316.2z"/>
	</g>
</g>
<g id="paths-7">
	<g id="Virtual_machine-6">
		<path class="st0" d="M308.7,356.3h15.4V346h-15.4V356.3z M319.8,353.3l-2.9,1.7v-3.4l2.9-1.7V353.3z M316.6,347.8l2.9,1.7
			l-2.9,1.7l-2.9-1.7L316.6,347.8z M313.5,349.9l2.9,1.7v3.4l-2.9-1.7V349.9z"/>
		<path class="st0" d="M334.3,338.3H297c-1,0-1.8,0.8-1.8,1.8l0,0v29.1c0,1,0.8,1.8,1.8,1.8l0,0h37.3c1,0,1.8-0.8,1.8-1.8l0,0v-29.1
			C336.1,339.1,335.3,338.3,334.3,338.3C334.4,338.3,334.3,338.3,334.3,338.3z M315.6,365.3l-1.1,3.4v0.1l-0.1,0.1h-1v-0.1l-1.1-3.4
			v-0.3h0.8v0.1l0.9,2.9l0,0l0.9-2.9v-0.1l0.1-0.1h0.6v0.1C315.7,365.2,315.7,365.3,315.6,365.3L315.6,365.3z M320.6,368.8
			L320.6,368.8c0,0.1-0.1,0.1-0.2,0.1h-0.6v-3.2l0,0l-1,3.1v0.1H318v-0.1l-1.1-3.1l0,0v3.2h-0.8v-3.5c0-0.1,0-0.2,0.1-0.2
			s0.1-0.1,0.2-0.1h0.7c0.1,0,0.1,0,0.2,0.1l0.1,0.1c0,0.1,0.1,0.1,0.1,0.2l0.8,2.3l0,0l0.8-2.3c0-0.1,0-0.1,0.1-0.2
			c0,0,0-0.1,0.1-0.1l0,0c0.1,0,0.1-0.1,0.2-0.1h0.8c0,0,0.1,0,0.1,0.1l0,0c0,0,0,0.1,0.1,0.1l0,0L320.6,368.8L320.6,368.8z
			 M325.3,356.6c0,0.5-0.4,0.9-0.9,0.9l0,0h-5.6c-0.6,2.2-0.3,2.4,3.5,2.4v0.9h-11.7V360c3.4,0,4-0.3,3.5-2.4h-5.5
			c-0.5,0-0.9-0.4-0.9-0.9l0,0v-10.9c0-0.5,0.4-1,0.9-1h16c0.5,0,0.9,0.5,0.9,1L325.3,356.6z"/>
	</g>
</g>
<g id="paths-8">
	<g id="Virtual_machine-7">
		<path class="st0" d="M308.2,275.5h15.4v-10.3h-15.4V275.5z M319.3,272.5l-2.9,1.7v-3.4l2.9-1.7V272.5z M316.1,267l2.9,1.7
			l-2.9,1.7l-2.9-1.7L316.1,267z M313,269.2l2.9,1.7v3.4l-2.9-1.7V269.2z"/>
		<path class="st0" d="M333.9,257.5h-37.3c-1,0-1.8,0.8-1.8,1.8l0,0v29.1c0,1,0.8,1.8,1.8,1.8l0,0h37.3c1,0,1.8-0.8,1.8-1.8l0,0
			v-29.1C335.7,258.3,334.9,257.5,333.9,257.5L333.9,257.5z M315.1,284.5l-1.1,3.4v0.1l-0.1,0.1h-1V288l-1.1-3.4v-0.3h0.8v0.1
			l0.9,2.9l0,0l0.9-2.9v-0.1l0.1-0.1h0.6v0.1C315.2,284.4,315.2,284.5,315.1,284.5z M320.1,288L320.1,288c0,0.1-0.1,0.1-0.2,0.1
			h-0.6v-3.2l0,0l-1,3.1v0.1h-0.8V288l-1.1-3.1l0,0v3.2h-0.8v-3.5c0-0.1,0-0.2,0.1-0.2s0.1-0.1,0.2-0.1h0.7c0.1,0,0.1,0,0.2,0.1
			l0.1,0.1c0,0.1,0.1,0.1,0.1,0.2l0.8,2.3l0,0l0.8-2.3c0-0.1,0-0.1,0.1-0.2c0,0,0-0.1,0.1-0.1l0,0c0.1,0,0.1-0.1,0.2-0.1h0.8
			c0,0,0.1,0,0.1,0.1l0,0c0,0,0,0.1,0.1,0.1l0,0L320.1,288L320.1,288z M324.9,275.8c0,0.5-0.4,0.9-0.9,0.9l0,0h-5.6
			c-0.6,2.2-0.3,2.4,3.5,2.4v0.9H310v-0.9c3.4,0,4-0.3,3.5-2.4H308c-0.5,0-0.9-0.4-0.9-0.9l0,0v-10.9c0-0.5,0.4-1,0.9-1h16
			c0.5,0,0.9,0.5,0.9,1V275.8z"/>
	</g>
</g>
<path class="st0" d="M259.3,337.3c-1.2,0-2.3-0.5-3.1-1.3L237,316.8c-0.8-0.8-1.3-1.9-1.3-3.1s0.5-2.3,1.3-3.1l19.2-19.2
	c0.8-0.8,1.9-1.3,3.1-1.3s2.3,0.5,3.1,1.3l19.2,19.2c1.7,1.7,1.8,4.4,0.1,6.1l-0.1,0.1L262.4,336
	C261.6,336.8,260.5,337.3,259.3,337.3"/>
<path class="st5" d="M278.7,313.6l-6.2-6.2v4.4h-6.6c-0.7-2.3-2.4-4-4.7-4.7v-6.4h4.3l-6.2-6.2l-6.2,6.2h4.3v6.3
	c-2.3,0.7-4,2.4-4.7,4.7h-6.6v-4.3l-6.2,6.2l6.2,6.2v-4.4h6.6c0.7,2.3,2.4,4,4.7,4.7v4.3c-0.9,0.7-2.4,2.2-2.4,3.8
	c0,2.3,1.9,4.2,4.2,4.2c2.3,0,4.2-1.9,4.2-4.2c-0.2-1.5-1-2.9-2.4-3.8V320c2.3-0.7,4-2.4,4.7-4.7h6.6v4.3L278.7,313.6z"/>
<path class="st0" d="M259.3,308.6c-2.8,0-5,2.2-5,5s2.2,5,5,5s5-2.2,5-5S262.1,308.6,259.3,308.6z"/>
<g id="paths-9">
	
		<use xlink:href="#Virtual_network"  width="39.6" height="21.4" x="-19.8" y="-10.7" transform="matrix(0.69 0 0 0.69 237.592 406.123)" style="overflow:visible;"/>
</g>
<g>
	<g>
		<path class="st0" d="M228.9,232.1h-1.1l-1.3-2.2c-0.1-0.2-0.2-0.4-0.3-0.5c-0.1-0.1-0.2-0.3-0.3-0.3c-0.1-0.1-0.2-0.2-0.4-0.2
			c-0.1,0-0.3-0.1-0.5-0.1h-0.7v3.3h-0.9v-7.7h2.3c0.3,0,0.6,0,0.9,0.1c0.3,0.1,0.5,0.2,0.7,0.4c0.2,0.2,0.4,0.4,0.5,0.6
			s0.2,0.6,0.2,0.9c0,0.3,0,0.5-0.1,0.7c-0.1,0.2-0.2,0.4-0.3,0.6c-0.1,0.2-0.3,0.3-0.5,0.4c-0.2,0.1-0.4,0.2-0.7,0.3v0
			c0.1,0.1,0.2,0.1,0.3,0.2c0.1,0.1,0.2,0.2,0.3,0.3c0.1,0.1,0.2,0.2,0.3,0.3c0.1,0.1,0.2,0.3,0.3,0.4L228.9,232.1z M224.2,225.2
			v2.8h1.2c0.2,0,0.4,0,0.6-0.1c0.2-0.1,0.4-0.2,0.5-0.3s0.2-0.3,0.3-0.5c0.1-0.2,0.1-0.4,0.1-0.6c0-0.4-0.1-0.7-0.4-1
			c-0.3-0.2-0.7-0.3-1.2-0.3H224.2z"/>
		<path class="st0" d="M233.9,229.6H230c0,0.6,0.2,1.1,0.5,1.4c0.3,0.3,0.7,0.5,1.3,0.5c0.6,0,1.2-0.2,1.7-0.6v0.8
			c-0.5,0.4-1.1,0.5-1.9,0.5c-0.8,0-1.4-0.3-1.8-0.7c-0.4-0.5-0.7-1.2-0.7-2.1c0-0.9,0.2-1.6,0.7-2.1c0.5-0.5,1.1-0.8,1.8-0.8
			s1.3,0.2,1.7,0.7c0.4,0.5,0.6,1.1,0.6,1.9V229.6z M233,228.8c0-0.5-0.1-0.9-0.4-1.2c-0.2-0.3-0.6-0.4-1-0.4
			c-0.4,0-0.8,0.1-1.1,0.4c-0.3,0.3-0.5,0.7-0.5,1.2H233z"/>
		<path class="st0" d="M239.9,232.1H239v-0.9h0c-0.4,0.7-1,1.1-1.9,1.1c-0.7,0-1.2-0.2-1.7-0.7c-0.4-0.5-0.6-1.2-0.6-2
			c0-0.9,0.2-1.6,0.7-2.2c0.5-0.5,1.1-0.8,1.8-0.8c0.8,0,1.3,0.3,1.6,0.9h0v-3.4h0.9V232.1z M239,229.6v-0.8c0-0.4-0.1-0.8-0.4-1.1
			c-0.3-0.3-0.7-0.5-1.1-0.5c-0.5,0-1,0.2-1.3,0.6c-0.3,0.4-0.5,0.9-0.5,1.6c0,0.6,0.1,1.1,0.4,1.5c0.3,0.4,0.7,0.6,1.2,0.6
			c0.5,0,0.9-0.2,1.2-0.5C238.9,230.6,239,230.1,239,229.6z"/>
		<path class="st0" d="M249,226.6l-2.2,5.5H246l-2.1-5.5h1l1.4,4c0.1,0.3,0.2,0.5,0.2,0.8h0c0-0.3,0.1-0.5,0.2-0.7l1.5-4H249z"/>
		<path class="st0" d="M250.4,225.2c-0.2,0-0.3-0.1-0.4-0.2c-0.1-0.1-0.2-0.2-0.2-0.4s0.1-0.3,0.2-0.4c0.1-0.1,0.2-0.2,0.4-0.2
			c0.2,0,0.3,0.1,0.4,0.2c0.1,0.1,0.2,0.2,0.2,0.4c0,0.2-0.1,0.3-0.2,0.4C250.7,225.1,250.6,225.2,250.4,225.2z M250.9,232.1H250
			v-5.5h0.9V232.1z"/>
		<path class="st0" d="M255.5,227.5c-0.2-0.1-0.4-0.2-0.7-0.2c-0.4,0-0.7,0.2-0.9,0.5c-0.3,0.4-0.4,0.8-0.4,1.5v2.8h-0.9v-5.5h0.9
			v1.1h0c0.1-0.4,0.3-0.7,0.6-0.9s0.5-0.3,0.9-0.3c0.2,0,0.4,0,0.5,0.1V227.5z"/>
		<path class="st0" d="M259,232c-0.2,0.1-0.5,0.2-0.8,0.2c-1,0-1.4-0.5-1.4-1.6v-3.3h-0.9v-0.8h0.9v-1.3l0.9-0.3v1.6h1.4v0.8h-1.4
			v3.1c0,0.4,0.1,0.6,0.2,0.8c0.1,0.2,0.3,0.2,0.6,0.2c0.2,0,0.4-0.1,0.6-0.2V232z"/>
		<path class="st0" d="M264.7,232.1h-0.9v-0.9h0c-0.4,0.7-0.9,1-1.7,1c-1.3,0-2-0.8-2-2.3v-3.3h0.9v3.1c0,1.2,0.4,1.7,1.3,1.7
			c0.4,0,0.8-0.2,1.1-0.5c0.3-0.3,0.4-0.7,0.4-1.2v-3.2h0.9V232.1z"/>
		<path class="st0" d="M270.4,232.1h-0.9v-0.9h0c-0.4,0.7-0.9,1-1.7,1c-0.5,0-1-0.1-1.3-0.4c-0.3-0.3-0.5-0.7-0.5-1.2
			c0-1,0.6-1.6,1.8-1.8l1.6-0.2c0-0.9-0.4-1.4-1.1-1.4c-0.7,0-1.3,0.2-1.8,0.7V227c0.5-0.3,1.2-0.5,1.9-0.5c1.3,0,1.9,0.7,1.9,2.1
			V232.1z M269.5,229.3l-1.3,0.2c-0.4,0.1-0.7,0.2-0.9,0.3c-0.2,0.1-0.3,0.4-0.3,0.8c0,0.3,0.1,0.5,0.3,0.7c0.2,0.2,0.4,0.3,0.8,0.3
			c0.4,0,0.8-0.2,1.1-0.5c0.3-0.3,0.4-0.7,0.4-1.2V229.3z"/>
		<path class="st0" d="M272.9,232.1H272v-8.1h0.9V232.1z"/>
		<path class="st0" d="M282.4,232.1h-0.9v-0.9h0c-0.4,0.7-1,1.1-1.9,1.1c-0.7,0-1.2-0.2-1.7-0.7c-0.4-0.5-0.6-1.2-0.6-2
			c0-0.9,0.2-1.6,0.7-2.2c0.5-0.5,1.1-0.8,1.8-0.8c0.8,0,1.3,0.3,1.6,0.9h0v-3.4h0.9V232.1z M281.5,229.6v-0.8
			c0-0.4-0.1-0.8-0.4-1.1c-0.3-0.3-0.7-0.5-1.1-0.5c-0.5,0-1,0.2-1.3,0.6c-0.3,0.4-0.5,0.9-0.5,1.6c0,0.6,0.1,1.1,0.4,1.5
			c0.3,0.4,0.7,0.6,1.2,0.6c0.5,0,0.9-0.2,1.2-0.5C281.4,230.6,281.5,230.1,281.5,229.6z"/>
		<path class="st0" d="M288.6,229.6h-3.9c0,0.6,0.2,1.1,0.5,1.4c0.3,0.3,0.7,0.5,1.3,0.5c0.6,0,1.2-0.2,1.7-0.6v0.8
			c-0.5,0.4-1.1,0.5-1.9,0.5c-0.8,0-1.4-0.3-1.8-0.7c-0.4-0.5-0.7-1.2-0.7-2.1c0-0.9,0.2-1.6,0.7-2.1s1.1-0.8,1.8-0.8
			s1.3,0.2,1.7,0.7c0.4,0.5,0.6,1.1,0.6,1.9V229.6z M287.7,228.8c0-0.5-0.1-0.9-0.4-1.2c-0.2-0.3-0.6-0.4-1-0.4
			c-0.4,0-0.8,0.1-1.1,0.4c-0.3,0.3-0.5,0.7-0.5,1.2H287.7z"/>
		<path class="st0" d="M292.7,231.8v-1.1c0.1,0.1,0.3,0.2,0.4,0.3c0.2,0.1,0.3,0.2,0.5,0.2c0.2,0.1,0.4,0.1,0.6,0.1
			c0.2,0,0.4,0,0.5,0c0.6,0,1-0.1,1.2-0.3c0.3-0.2,0.4-0.5,0.4-0.9c0-0.2,0-0.4-0.1-0.5c-0.1-0.2-0.2-0.3-0.4-0.4s-0.4-0.2-0.6-0.4
			c-0.2-0.1-0.5-0.2-0.7-0.4c-0.3-0.1-0.5-0.3-0.8-0.4c-0.2-0.1-0.4-0.3-0.6-0.5c-0.2-0.2-0.3-0.4-0.4-0.6c-0.1-0.2-0.1-0.5-0.1-0.7
			c0-0.4,0.1-0.7,0.2-0.9c0.2-0.3,0.4-0.5,0.6-0.6c0.3-0.2,0.5-0.3,0.9-0.4c0.3-0.1,0.6-0.1,1-0.1c0.8,0,1.3,0.1,1.7,0.3v1
			c-0.5-0.3-1-0.5-1.8-0.5c-0.2,0-0.4,0-0.6,0.1c-0.2,0-0.4,0.1-0.5,0.2c-0.2,0.1-0.3,0.2-0.4,0.4s-0.1,0.3-0.1,0.5
			c0,0.2,0,0.4,0.1,0.5c0.1,0.1,0.2,0.3,0.3,0.4c0.1,0.1,0.3,0.2,0.5,0.3s0.4,0.2,0.7,0.4c0.3,0.1,0.5,0.3,0.8,0.4s0.5,0.3,0.6,0.5
			c0.2,0.2,0.3,0.4,0.4,0.6s0.2,0.5,0.2,0.8c0,0.4-0.1,0.7-0.2,1c-0.1,0.3-0.3,0.5-0.6,0.6c-0.3,0.2-0.5,0.3-0.9,0.4
			c-0.3,0.1-0.7,0.1-1,0.1c-0.1,0-0.3,0-0.5,0c-0.2,0-0.4,0-0.5-0.1c-0.2,0-0.4-0.1-0.5-0.1C292.9,231.9,292.8,231.8,292.7,231.8z"
			/>
		<path class="st0" d="M299.7,231.3L299.7,231.3l0,3.3h-0.9v-8h0.9v1h0c0.4-0.7,1.1-1.1,1.9-1.1c0.7,0,1.3,0.2,1.7,0.7
			s0.6,1.2,0.6,2c0,0.9-0.2,1.7-0.7,2.2c-0.4,0.6-1.1,0.8-1.8,0.8C300.6,232.2,300.1,231.9,299.7,231.3z M299.7,229.1v0.8
			c0,0.5,0.1,0.8,0.4,1.2c0.3,0.3,0.7,0.5,1.1,0.5c0.5,0,1-0.2,1.3-0.6s0.5-1,0.5-1.7c0-0.6-0.1-1.1-0.4-1.4
			c-0.3-0.3-0.7-0.5-1.1-0.5c-0.5,0-0.9,0.2-1.2,0.5S299.7,228.5,299.7,229.1z"/>
		<path class="st0" d="M307.6,232.2c-0.8,0-1.5-0.3-1.9-0.8s-0.7-1.2-0.7-2c0-0.9,0.3-1.6,0.8-2.2c0.5-0.5,1.2-0.8,2-0.8
			c0.8,0,1.5,0.3,1.9,0.8c0.5,0.5,0.7,1.2,0.7,2.1c0,0.9-0.2,1.6-0.7,2.1S308.4,232.2,307.6,232.2z M307.6,227.2
			c-0.6,0-1,0.2-1.3,0.6c-0.3,0.4-0.5,0.9-0.5,1.6c0,0.7,0.2,1.2,0.5,1.5c0.3,0.4,0.8,0.6,1.3,0.6c0.6,0,1-0.2,1.3-0.6
			c0.3-0.4,0.5-0.9,0.5-1.6c0-0.7-0.2-1.2-0.5-1.6C308.6,227.4,308.2,227.2,307.6,227.2z"/>
		<path class="st0" d="M316.3,232.1H315l-2.4-2.6h0v2.6h-0.9v-8.1h0.9v5.2h0l2.3-2.5h1.2l-2.6,2.7L316.3,232.1z"/>
		<path class="st0" d="M321.6,229.6h-3.9c0,0.6,0.2,1.1,0.5,1.4c0.3,0.3,0.7,0.5,1.3,0.5c0.6,0,1.2-0.2,1.7-0.6v0.8
			c-0.5,0.4-1.1,0.5-1.9,0.5c-0.8,0-1.4-0.3-1.8-0.7c-0.4-0.5-0.7-1.2-0.7-2.1c0-0.9,0.2-1.6,0.7-2.1s1.1-0.8,1.8-0.8
			s1.3,0.2,1.7,0.7c0.4,0.5,0.6,1.1,0.6,1.9V229.6z M320.7,228.8c0-0.5-0.1-0.9-0.4-1.2c-0.2-0.3-0.6-0.4-1-0.4
			c-0.4,0-0.8,0.1-1.1,0.4c-0.3,0.3-0.5,0.7-0.5,1.2H320.7z"/>
		<path class="st0" d="M326.2,226.4c0-0.2,0-0.4-0.1-0.6c-0.1-0.2-0.2-0.3-0.3-0.4c-0.1-0.1-0.3-0.2-0.4-0.3
			c-0.2-0.1-0.4-0.1-0.6-0.1c-0.2,0-0.3,0-0.5,0.1c-0.2,0-0.3,0.1-0.5,0.2c-0.2,0.1-0.3,0.2-0.5,0.3c-0.1,0.1-0.3,0.2-0.4,0.4V225
			c0.2-0.2,0.5-0.4,0.8-0.6c0.3-0.1,0.7-0.2,1.1-0.2c0.3,0,0.6,0,0.9,0.1c0.3,0.1,0.5,0.2,0.7,0.4c0.2,0.2,0.4,0.4,0.5,0.6
			c0.1,0.3,0.2,0.6,0.2,0.9c0,0.3,0,0.6-0.1,0.8c-0.1,0.2-0.2,0.5-0.3,0.7s-0.3,0.4-0.5,0.6c-0.2,0.2-0.5,0.4-0.8,0.6
			c-0.4,0.3-0.7,0.5-0.9,0.7c-0.2,0.2-0.4,0.4-0.6,0.5c-0.1,0.2-0.2,0.3-0.3,0.5c-0.1,0.2-0.1,0.3-0.1,0.6h3.8v0.8h-4.8v-0.4
			c0-0.3,0-0.6,0.1-0.9c0.1-0.3,0.2-0.5,0.4-0.7c0.2-0.2,0.4-0.5,0.6-0.7c0.3-0.2,0.6-0.5,1-0.8c0.3-0.2,0.5-0.4,0.7-0.6
			c0.2-0.2,0.3-0.4,0.5-0.5c0.1-0.2,0.2-0.4,0.2-0.6C326.2,226.8,326.2,226.6,326.2,226.4z"/>
	</g>
</g>
<g id="paths-10">
	<g id="Virtual_machine-9">
		<path class="st0" d="M102.5,199.4h15.4v-10.3h-15.4V199.4z M113.6,196.4l-2.9,1.7v-3.4l2.9-1.7V196.4z M110.3,190.8l2.9,1.7
			l-2.9,1.7l-2.9-1.7L110.3,190.8z M107.2,193l2.9,1.7v3.4l-2.9-1.7V193z"/>
		<path class="st0" d="M128.1,181.4H90.8c-1,0-1.8,0.8-1.8,1.8l0,0v29.1c0,1,0.8,1.8,1.8,1.8l0,0h37.3c1,0,1.8-0.8,1.8-1.8l0,0
			v-29.1C129.9,182.2,129.1,181.4,128.1,181.4C128.1,181.3,128.1,181.3,128.1,181.4z M109.3,208.4l-1.1,3.4v0.1l-0.1,0.1h-1v-0.1
			l-1.1-3.4v-0.3h0.8v0.1l0.9,2.9l0,0l0.9-2.9v-0.1l0.1-0.1h0.6v0.1C109.4,208.3,109.4,208.4,109.3,208.4z M114.3,211.9L114.3,211.9
			c0,0.1-0.1,0.1-0.2,0.1h-0.6v-3.2l0,0l-1,3.1v0.1h-0.8v-0.1l-1.1-3.1l0,0v3.2H110v-3.5c0-0.1,0-0.2,0.1-0.2s0.1-0.1,0.2-0.1h0.7
			c0.1,0,0.1,0,0.2,0.1l0.1,0.1c0,0.1,0.1,0.1,0.1,0.2l0.9,2.3l0,0l0.9-2.3c0-0.1,0-0.1,0.1-0.2c0,0,0-0.1,0.1-0.1s0.1-0.1,0.2-0.1
			h0.9c0,0,0.1,0,0.1,0.1s0,0.1,0.1,0.1L114.3,211.9L114.3,211.9z M119.1,199.7c0,0.5-0.4,0.9-0.9,0.9l0,0h-5.6
			c-0.6,2.2-0.3,2.4,3.5,2.4v0.9h-11.8V203c3.4,0,4-0.3,3.5-2.4h-5.5c-0.5,0-0.9-0.4-0.9-0.9l0,0v-10.9c0-0.5,0.4-1,0.9-1h16
			c0.5,0,0.9,0.5,0.9,1L119.1,199.7L119.1,199.7z"/>
	</g>
</g>
<g id="paths-11">
	<g id="Virtual_machine-10">
		<path class="st0" d="M102.9,239.8h15.4v-10.3h-15.4V239.8z M114,236.8l-2.9,1.7v-3.4l2.9-1.7V236.8z M110.8,231.3l2.9,1.7
			l-2.9,1.7l-2.9-1.7L110.8,231.3z M107.7,233.4l2.9,1.7v3.4l-2.9-1.7V233.4z"/>
		<path class="st0" d="M128.6,221.8H91.3c-1,0-1.8,0.8-1.8,1.8l0,0v29.1c0,1,0.8,1.8,1.8,1.8l0,0h37.3c1,0,1.8-0.8,1.8-1.8l0,0
			v-29.1C130.4,222.6,129.6,221.8,128.6,221.8L128.6,221.8z M109.8,248.8l-1.1,3.4v0.1l-0.1,0.1h-1v-0.1l-1.1-3.4v-0.3h0.8v0.1
			l0.9,2.9l0,0l0.9-2.9v-0.1l0.1-0.1h0.6v0.1C109.9,248.7,109.9,248.8,109.8,248.8z M114.8,252.3L114.8,252.3c0,0.1-0.1,0.1-0.2,0.1
			H114v-3.2l0,0l-1,3.1v0.1h-0.8v-0.1l-1.1-3.1l0,0v3.2h-0.8v-3.5c0-0.1,0-0.2,0.1-0.2s0.1-0.1,0.2-0.1h0.7c0.1,0,0.1,0,0.2,0.1
			l0.1,0.1c0,0.1,0.1,0.1,0.1,0.2l0.9,2.3l0,0l0.8-2.3c0-0.1,0-0.1,0.1-0.2c0,0,0-0.1,0.1-0.1s0.1-0.1,0.2-0.1h0.9
			c0,0,0.1,0,0.1,0.1s0,0.1,0.1,0.1L114.8,252.3L114.8,252.3z M119.6,240.1c0,0.5-0.4,0.9-0.9,0.9l0,0H113c-0.6,2.2-0.3,2.4,3.5,2.4
			v0.9h-11.8v-0.9c3.4,0,4-0.3,3.5-2.4h-5.5c-0.5,0-0.9-0.4-0.9-0.9l0,0v-10.9c0-0.5,0.4-1,0.9-1h16c0.5,0,0.9,0.5,0.9,1V240.1z"/>
	</g>
</g>
<g id="paths-12">
	
		<use xlink:href="#Virtual_network"  width="39.6" height="21.4" x="-19.8" y="-10.7" transform="matrix(0.69 0 0 0.69 19.592 303.703)" style="overflow:visible;"/>
</g>
<g class="st6">
	<path class="st0" d="M15.9,129.7h-1.1l-1.3-2.2c-0.1-0.2-0.2-0.4-0.3-0.5s-0.2-0.3-0.3-0.3c-0.1-0.1-0.2-0.2-0.4-0.2
		c-0.1,0-0.3-0.1-0.5-0.1h-0.7v3.3h-0.9V122h2.3c0.3,0,0.6,0,0.9,0.1c0.3,0.1,0.5,0.2,0.7,0.4c0.2,0.2,0.4,0.4,0.5,0.6
		s0.2,0.6,0.2,0.9c0,0.3,0,0.5-0.1,0.7c-0.1,0.2-0.2,0.4-0.3,0.6c-0.1,0.2-0.3,0.3-0.5,0.4c-0.2,0.1-0.4,0.2-0.7,0.3v0
		c0.1,0.1,0.2,0.1,0.3,0.2c0.1,0.1,0.2,0.2,0.3,0.3c0.1,0.1,0.2,0.2,0.3,0.3c0.1,0.1,0.2,0.3,0.3,0.4L15.9,129.7z M11.3,122.8v2.8
		h1.2c0.2,0,0.4,0,0.6-0.1c0.2-0.1,0.4-0.2,0.5-0.3s0.2-0.3,0.3-0.5s0.1-0.4,0.1-0.6c0-0.4-0.1-0.7-0.4-1c-0.3-0.2-0.7-0.3-1.2-0.3
		H11.3z"/>
	<path class="st0" d="M20.9,127.1H17c0,0.6,0.2,1.1,0.5,1.4c0.3,0.3,0.7,0.5,1.3,0.5c0.6,0,1.2-0.2,1.7-0.6v0.8
		c-0.5,0.4-1.1,0.5-1.9,0.5c-0.8,0-1.4-0.3-1.8-0.7c-0.4-0.5-0.7-1.2-0.7-2.1c0-0.9,0.2-1.6,0.7-2.1c0.5-0.5,1.1-0.8,1.8-0.8
		s1.3,0.2,1.7,0.7s0.6,1.1,0.6,1.9V127.1z M20,126.4c0-0.5-0.1-0.9-0.4-1.2c-0.2-0.3-0.6-0.4-1-0.4c-0.4,0-0.8,0.1-1.1,0.4
		c-0.3,0.3-0.5,0.7-0.5,1.2H20z"/>
	<path class="st0" d="M26.9,129.7h-0.9v-0.9h0c-0.4,0.7-1,1.1-1.9,1.1c-0.7,0-1.2-0.2-1.7-0.7c-0.4-0.5-0.6-1.2-0.6-2
		c0-0.9,0.2-1.6,0.7-2.2c0.5-0.5,1.1-0.8,1.8-0.8c0.8,0,1.3,0.3,1.6,0.9h0v-3.4h0.9V129.7z M26.1,127.2v-0.8c0-0.4-0.1-0.8-0.4-1.1
		s-0.7-0.5-1.1-0.5c-0.5,0-1,0.2-1.3,0.6s-0.5,0.9-0.5,1.6c0,0.6,0.1,1.1,0.4,1.5c0.3,0.4,0.7,0.6,1.2,0.6c0.5,0,0.9-0.2,1.2-0.5
		C25.9,128.2,26.1,127.7,26.1,127.2z"/>
	<path class="st0" d="M36.1,124.2l-2.2,5.5H33l-2.1-5.5h1l1.4,4c0.1,0.3,0.2,0.5,0.2,0.8h0c0-0.3,0.1-0.5,0.2-0.7l1.5-4H36.1z"/>
	<path class="st0" d="M37.5,122.8c-0.2,0-0.3-0.1-0.4-0.2s-0.2-0.2-0.2-0.4s0.1-0.3,0.2-0.4s0.2-0.2,0.4-0.2c0.2,0,0.3,0.1,0.4,0.2
		c0.1,0.1,0.2,0.2,0.2,0.4c0,0.2-0.1,0.3-0.2,0.4C37.8,122.7,37.6,122.8,37.5,122.8z M37.9,129.7H37v-5.5h0.9V129.7z"/>
	<path class="st0" d="M42.5,125.1c-0.2-0.1-0.4-0.2-0.7-0.2c-0.4,0-0.7,0.2-0.9,0.5c-0.3,0.4-0.4,0.8-0.4,1.5v2.8h-0.9v-5.5h0.9v1.1
		h0c0.1-0.4,0.3-0.7,0.6-0.9s0.5-0.3,0.9-0.3c0.2,0,0.4,0,0.5,0.1V125.1z"/>
	<path class="st0" d="M46,129.6c-0.2,0.1-0.5,0.2-0.8,0.2c-1,0-1.4-0.5-1.4-1.6v-3.3h-0.9v-0.8h0.9v-1.3l0.9-0.3v1.6H46v0.8h-1.4
		v3.1c0,0.4,0.1,0.6,0.2,0.8s0.3,0.2,0.6,0.2c0.2,0,0.4-0.1,0.6-0.2V129.6z"/>
	<path class="st0" d="M51.7,129.7h-0.9v-0.9h0c-0.4,0.7-0.9,1-1.7,1c-1.3,0-2-0.8-2-2.3v-3.3H48v3.1c0,1.2,0.4,1.7,1.3,1.7
		c0.4,0,0.8-0.2,1.1-0.5c0.3-0.3,0.4-0.7,0.4-1.2v-3.2h0.9V129.7z"/>
	<path class="st0" d="M57.4,129.7h-0.9v-0.9h0c-0.4,0.7-0.9,1-1.7,1c-0.5,0-1-0.1-1.3-0.4c-0.3-0.3-0.5-0.7-0.5-1.2
		c0-1,0.6-1.6,1.8-1.8l1.6-0.2c0-0.9-0.4-1.4-1.1-1.4c-0.7,0-1.3,0.2-1.8,0.7v-0.9c0.5-0.3,1.2-0.5,1.9-0.5c1.3,0,1.9,0.7,1.9,2.1
		V129.7z M56.5,126.9l-1.3,0.2c-0.4,0.1-0.7,0.2-0.9,0.3c-0.2,0.1-0.3,0.4-0.3,0.8c0,0.3,0.1,0.5,0.3,0.7c0.2,0.2,0.4,0.3,0.8,0.3
		c0.4,0,0.8-0.2,1.1-0.5c0.3-0.3,0.4-0.7,0.4-1.2V126.9z"/>
	<path class="st0" d="M59.9,129.7H59v-8.1h0.9V129.7z"/>
	<path class="st0" d="M69.4,129.7h-0.9v-0.9h0c-0.4,0.7-1,1.1-1.9,1.1c-0.7,0-1.2-0.2-1.7-0.7c-0.4-0.5-0.6-1.2-0.6-2
		c0-0.9,0.2-1.6,0.7-2.2c0.5-0.5,1.1-0.8,1.8-0.8c0.8,0,1.3,0.3,1.6,0.9h0v-3.4h0.9V129.7z M68.5,127.2v-0.8c0-0.4-0.1-0.8-0.4-1.1
		s-0.7-0.5-1.1-0.5c-0.5,0-1,0.2-1.3,0.6s-0.5,0.9-0.5,1.6c0,0.6,0.1,1.1,0.4,1.5c0.3,0.4,0.7,0.6,1.2,0.6c0.5,0,0.9-0.2,1.2-0.5
		C68.4,128.2,68.5,127.7,68.5,127.2z"/>
	<path class="st0" d="M75.6,127.1h-3.9c0,0.6,0.2,1.1,0.5,1.4c0.3,0.3,0.7,0.5,1.3,0.5c0.6,0,1.2-0.2,1.7-0.6v0.8
		c-0.5,0.4-1.1,0.5-1.9,0.5c-0.8,0-1.4-0.3-1.8-0.7c-0.4-0.5-0.7-1.2-0.7-2.1c0-0.9,0.2-1.6,0.7-2.1c0.5-0.5,1.1-0.8,1.8-0.8
		s1.3,0.2,1.7,0.7s0.6,1.1,0.6,1.9V127.1z M74.7,126.4c0-0.5-0.1-0.9-0.4-1.2c-0.2-0.3-0.6-0.4-1-0.4c-0.4,0-0.8,0.1-1.1,0.4
		c-0.3,0.3-0.5,0.7-0.5,1.2H74.7z"/>
	<path class="st0" d="M83.7,129.4c-0.4,0.3-0.9,0.4-1.5,0.4c-0.8,0-1.4-0.3-1.9-0.8c-0.5-0.5-0.7-1.2-0.7-2c0-0.9,0.3-1.6,0.8-2.2
		s1.2-0.8,2.1-0.8c0.5,0,0.9,0.1,1.3,0.3v0.9c-0.4-0.3-0.8-0.4-1.3-0.4c-0.6,0-1,0.2-1.4,0.6c-0.4,0.4-0.5,0.9-0.5,1.6
		c0,0.6,0.2,1.2,0.5,1.5c0.3,0.4,0.8,0.6,1.4,0.6c0.5,0,0.9-0.2,1.4-0.5V129.4z"/>
	<path class="st0" d="M87.3,129.8c-0.8,0-1.5-0.3-1.9-0.8c-0.5-0.5-0.7-1.2-0.7-2c0-0.9,0.3-1.6,0.8-2.2c0.5-0.5,1.2-0.8,2-0.8
		c0.8,0,1.5,0.3,1.9,0.8c0.5,0.5,0.7,1.2,0.7,2.1c0,0.9-0.2,1.6-0.7,2.1C88.8,129.5,88.2,129.8,87.3,129.8z M87.4,124.8
		c-0.6,0-1,0.2-1.3,0.6s-0.5,0.9-0.5,1.6c0,0.7,0.2,1.2,0.5,1.5c0.3,0.4,0.8,0.6,1.3,0.6c0.6,0,1-0.2,1.3-0.6
		c0.3-0.4,0.5-0.9,0.5-1.6c0-0.7-0.2-1.2-0.5-1.6C88.4,125,88,124.8,87.4,124.8z"/>
	<path class="st0" d="M96.1,129.7h-0.9v-3.1c0-1.2-0.4-1.8-1.3-1.8c-0.4,0-0.8,0.2-1.1,0.5c-0.3,0.3-0.4,0.7-0.4,1.3v3.1h-0.9v-5.5
		h0.9v0.9h0c0.4-0.7,1-1,1.8-1c0.6,0,1.1,0.2,1.4,0.6s0.5,0.9,0.5,1.7V129.7z"/>
	<path class="st0" d="M101.5,129.4c-0.4,0.3-0.9,0.4-1.5,0.4c-0.8,0-1.4-0.3-1.9-0.8c-0.5-0.5-0.7-1.2-0.7-2c0-0.9,0.3-1.6,0.8-2.2
		s1.2-0.8,2.1-0.8c0.5,0,0.9,0.1,1.3,0.3v0.9c-0.4-0.3-0.8-0.4-1.3-0.4c-0.6,0-1,0.2-1.4,0.6c-0.4,0.4-0.5,0.9-0.5,1.6
		c0,0.6,0.2,1.2,0.5,1.5c0.3,0.4,0.8,0.6,1.4,0.6c0.5,0,0.9-0.2,1.4-0.5V129.4z"/>
	<path class="st0" d="M107.2,127.1h-3.9c0,0.6,0.2,1.1,0.5,1.4c0.3,0.3,0.7,0.5,1.3,0.5c0.6,0,1.2-0.2,1.7-0.6v0.8
		c-0.5,0.4-1.1,0.5-1.9,0.5c-0.8,0-1.4-0.3-1.8-0.7c-0.4-0.5-0.7-1.2-0.7-2.1c0-0.9,0.2-1.6,0.7-2.1c0.5-0.5,1.1-0.8,1.8-0.8
		s1.3,0.2,1.7,0.7s0.6,1.1,0.6,1.9V127.1z M106.3,126.4c0-0.5-0.1-0.9-0.4-1.2c-0.2-0.3-0.6-0.4-1-0.4c-0.4,0-0.8,0.1-1.1,0.4
		c-0.3,0.3-0.5,0.7-0.5,1.2H106.3z"/>
	<path class="st0" d="M113.1,129.7h-0.9v-3.1c0-1.2-0.4-1.8-1.3-1.8c-0.4,0-0.8,0.2-1.1,0.5c-0.3,0.3-0.4,0.7-0.4,1.3v3.1h-0.9v-5.5
		h0.9v0.9h0c0.4-0.7,1-1,1.8-1c0.6,0,1.1,0.2,1.4,0.6s0.5,0.9,0.5,1.7V129.7z"/>
	<path class="st0" d="M117.3,129.6c-0.2,0.1-0.5,0.2-0.8,0.2c-1,0-1.4-0.5-1.4-1.6v-3.3h-0.9v-0.8h0.9v-1.3l0.9-0.3v1.6h1.4v0.8
		h-1.4v3.1c0,0.4,0.1,0.6,0.2,0.8s0.3,0.2,0.6,0.2c0.2,0,0.4-0.1,0.6-0.2V129.6z"/>
	<path class="st0" d="M121.4,125.1c-0.2-0.1-0.4-0.2-0.7-0.2c-0.4,0-0.7,0.2-0.9,0.5c-0.3,0.4-0.4,0.8-0.4,1.5v2.8h-0.9v-5.5h0.9
		v1.1h0c0.1-0.4,0.3-0.7,0.6-0.9s0.5-0.3,0.9-0.3c0.2,0,0.4,0,0.5,0.1V125.1z"/>
	<path class="st0" d="M126.3,129.7h-0.9v-0.9h0c-0.4,0.7-0.9,1-1.7,1c-0.5,0-1-0.1-1.3-0.4c-0.3-0.3-0.5-0.7-0.5-1.2
		c0-1,0.6-1.6,1.8-1.8l1.6-0.2c0-0.9-0.4-1.4-1.1-1.4c-0.7,0-1.3,0.2-1.8,0.7v-0.9c0.5-0.3,1.2-0.5,1.9-0.5c1.3,0,1.9,0.7,1.9,2.1
		V129.7z M125.4,126.9l-1.3,0.2c-0.4,0.1-0.7,0.2-0.9,0.3c-0.2,0.1-0.3,0.4-0.3,0.8c0,0.3,0.1,0.5,0.3,0.7c0.2,0.2,0.4,0.3,0.8,0.3
		c0.4,0,0.8-0.2,1.1-0.5c0.3-0.3,0.4-0.7,0.4-1.2V126.9z"/>
	<path class="st0" d="M132.6,129.7h-0.9v-0.9h0c-0.4,0.7-1,1.1-1.9,1.1c-0.7,0-1.2-0.2-1.7-0.7c-0.4-0.5-0.6-1.2-0.6-2
		c0-0.9,0.2-1.6,0.7-2.2c0.5-0.5,1.1-0.8,1.8-0.8c0.8,0,1.3,0.3,1.6,0.9h0v-3.4h0.9V129.7z M131.7,127.2v-0.8c0-0.4-0.1-0.8-0.4-1.1
		s-0.7-0.5-1.1-0.5c-0.5,0-1,0.2-1.3,0.6s-0.5,0.9-0.5,1.6c0,0.6,0.1,1.1,0.4,1.5c0.3,0.4,0.7,0.6,1.2,0.6c0.5,0,0.9-0.2,1.2-0.5
		C131.6,128.2,131.7,127.7,131.7,127.2z"/>
	<path class="st0" d="M136.7,129.8c-0.8,0-1.5-0.3-1.9-0.8c-0.5-0.5-0.7-1.2-0.7-2c0-0.9,0.3-1.6,0.8-2.2c0.5-0.5,1.2-0.8,2-0.8
		c0.8,0,1.5,0.3,1.9,0.8c0.5,0.5,0.7,1.2,0.7,2.1c0,0.9-0.2,1.6-0.7,2.1C138.2,129.5,137.5,129.8,136.7,129.8z M136.8,124.8
		c-0.6,0-1,0.2-1.3,0.6s-0.5,0.9-0.5,1.6c0,0.7,0.2,1.2,0.5,1.5c0.3,0.4,0.8,0.6,1.3,0.6c0.6,0,1-0.2,1.3-0.6
		c0.3-0.4,0.5-0.9,0.5-1.6c0-0.7-0.2-1.2-0.5-1.6C137.8,125,137.3,124.8,136.8,124.8z"/>
	<path class="st0" d="M143.7,125.1c-0.2-0.1-0.4-0.2-0.7-0.2c-0.4,0-0.7,0.2-0.9,0.5c-0.3,0.4-0.4,0.8-0.4,1.5v2.8h-0.9v-5.5h0.9
		v1.1h0c0.1-0.4,0.3-0.7,0.6-0.9s0.5-0.3,0.9-0.3c0.2,0,0.4,0,0.5,0.1V125.1z"/>
</g>
<rect x="231.6" y="35.3" transform="matrix(0.9998 -2.129027e-02 2.129027e-02 0.9998 -1.0242 5.4024)" class="st7" width="43.2" height="31"/>
<g class="st6">
	<path class="st0" d="M248.9,50.9c0,2.2-0.9,3.3-2.9,3.4c-1.9,0-2.9-1-2.9-3.1l-0.1-4.8l0.9,0l0.1,4.8c0,1.6,0.7,2.4,2.1,2.4
		c1.3,0,2-0.8,1.9-2.4l-0.1-4.9l0.9,0L248.9,50.9z"/>
	<path class="st0" d="M250.9,54.1l-0.2-7.9l2.2,0c2.8-0.1,4.2,1.2,4.3,3.8c0,1.2-0.3,2.2-1.1,3c-0.8,0.8-1.8,1.1-3.1,1.2L250.9,54.1
		z M251.7,47l0.1,6.2l1.2,0c1,0,1.8-0.3,2.4-0.9s0.8-1.4,0.8-2.4c0-2-1.1-3-3.3-3L251.7,47z"/>
	<path class="st0" d="M264.5,53.8l-1.1,0l-1.4-2.2c-0.1-0.2-0.2-0.4-0.4-0.5c-0.1-0.1-0.2-0.3-0.4-0.3c-0.1-0.1-0.3-0.2-0.4-0.2
		c-0.1,0-0.3-0.1-0.5-0.1l-0.8,0l0.1,3.4l-0.9,0l-0.2-7.9l2.4,0c0.3,0,0.7,0,1,0.1c0.3,0.1,0.5,0.2,0.8,0.4c0.2,0.2,0.4,0.4,0.5,0.6
		c0.1,0.3,0.2,0.6,0.2,0.9c0,0.3,0,0.5-0.1,0.8c-0.1,0.2-0.2,0.4-0.3,0.6s-0.3,0.3-0.5,0.5c-0.2,0.1-0.5,0.2-0.7,0.3l0,0
		c0.1,0.1,0.2,0.1,0.3,0.2c0.1,0.1,0.2,0.2,0.3,0.3c0.1,0.1,0.2,0.2,0.3,0.3c0.1,0.1,0.2,0.3,0.3,0.4L264.5,53.8z M259.6,46.8
		l0.1,2.9l1.3,0c0.2,0,0.4,0,0.6-0.1c0.2-0.1,0.4-0.2,0.5-0.3c0.1-0.1,0.3-0.3,0.3-0.5c0.1-0.2,0.1-0.4,0.1-0.6c0-0.4-0.2-0.7-0.4-1
		c-0.3-0.2-0.7-0.3-1.2-0.3L259.6,46.8z"/>
</g>
<rect x="232.6" y="346.3" class="st7" width="43.2" height="31"/>
<g class="st6">
	<path class="st0" d="M248.8,361.9c0,2.2-1,3.3-3,3.3c-1.9,0-2.9-1.1-2.9-3.2v-4.8h0.9v4.8c0,1.6,0.7,2.4,2,2.4c1.3,0,2-0.8,2-2.3
		v-4.9h0.9V361.9z"/>
	<path class="st0" d="M250.8,365.1v-7.9h2.2c2.8,0,4.2,1.3,4.2,3.9c0,1.2-0.4,2.2-1.2,2.9c-0.8,0.7-1.8,1.1-3.1,1.1H250.8z
		 M251.7,358v6.2h1.2c1,0,1.8-0.3,2.4-0.8c0.6-0.6,0.9-1.3,0.9-2.4c0-2-1.1-3-3.2-3H251.7z"/>
	<path class="st0" d="M264.3,365.1h-1.1l-1.3-2.2c-0.1-0.2-0.2-0.4-0.4-0.5c-0.1-0.1-0.2-0.3-0.3-0.4s-0.2-0.2-0.4-0.2
		c-0.1,0-0.3-0.1-0.5-0.1h-0.8v3.4h-0.9v-7.9h2.4c0.3,0,0.7,0,1,0.1c0.3,0.1,0.5,0.2,0.8,0.4c0.2,0.2,0.4,0.4,0.5,0.7
		s0.2,0.6,0.2,0.9c0,0.3,0,0.5-0.1,0.8c-0.1,0.2-0.2,0.4-0.4,0.6s-0.3,0.3-0.6,0.5s-0.5,0.2-0.7,0.3v0c0.1,0.1,0.2,0.1,0.3,0.2
		s0.2,0.2,0.3,0.3c0.1,0.1,0.2,0.2,0.3,0.3c0.1,0.1,0.2,0.3,0.3,0.5L264.3,365.1z M259.6,358v2.9h1.3c0.2,0,0.4,0,0.6-0.1
		c0.2-0.1,0.4-0.2,0.5-0.3c0.1-0.1,0.3-0.3,0.3-0.5c0.1-0.2,0.1-0.4,0.1-0.6c0-0.4-0.1-0.8-0.4-1c-0.3-0.2-0.7-0.4-1.2-0.4H259.6z"
		/>
</g>
<path class="st8" d="M231.6,50.7C105.5,60.7,53.8,154.6,41.1,182.6"/>
<path class="st9" d="M37.8,190.5c0.2-4.6-0.3-9.3-1.5-13.7l5.2,4.9l7.1,0.4C44.6,184.2,41,187.1,37.8,190.5z"/>
<path class="st8" d="M231.6,364.6c-125.1-9.1-177-92.4-190.2-118.4"/>
<path class="st9" d="M37.8,238.5c3.3,3.3,7.1,6,11.2,8l-7.1,0.7l-5,5.1C38,247.7,38.3,243.1,37.8,238.5z"/>
<path class="st0" d="M53.7,193.9H15.2c-1.3,0-2.4,1.1-2.4,2.4v27.3c0,1.3,1.1,2.5,2.4,2.5h13.2c1.4,5,0.8,5.5-7.6,5.5v2.5h27.5v-2.5
	c-8.4,0-9.5-0.5-8.1-5.5h13.5c1.3,0,2.4-1,2.6-2.3v-27.5C56.2,194.9,55.1,193.9,53.7,193.9L53.7,193.9z M52.9,222.5H16l0.2-25.3
	l36.6,0.1v25.2H52.9z"/>
<rect x="19.8" y="201.9" class="st10" width="29" height="18.6"/>
<rect x="19.8" y="201.9" class="st10" width="28.9" height="21"/>
<g>
	<rect x="9.6" y="201.8" class="st10" width="49.2" height="22"/>
	<path d="M26.5,207.7h-0.8l-2.9-4.5c-0.1-0.1-0.1-0.2-0.2-0.4h0c0,0.1,0,0.4,0,0.8v4H22v-5.6h0.9l2.8,4.4c0.1,0.2,0.2,0.3,0.2,0.4h0
		c0-0.2,0-0.4,0-0.8v-3.9h0.7V207.7z"/>
	<path d="M32,202.1l-2.1,5.6h-0.7l-2-5.6h0.7l1.6,4.4c0,0.1,0.1,0.3,0.1,0.5h0c0-0.2,0.1-0.3,0.1-0.5l1.6-4.4H32z"/>
	<path d="M36.5,207.7h-0.7l-0.6-1.6h-2.4l-0.6,1.6h-0.7l2.1-5.6h0.7L36.5,207.7z M34.9,205.6l-0.9-2.4c0-0.1-0.1-0.2-0.1-0.4h0
		c0,0.2-0.1,0.3-0.1,0.4l-0.9,2.4H34.9z"/>
	<path d="M42.5,207.7h-0.6v-0.7h0c-0.3,0.5-0.8,0.8-1.4,0.8c-0.5,0-0.9-0.2-1.2-0.5s-0.5-0.8-0.5-1.5c0-0.7,0.2-1.2,0.5-1.6
		s0.8-0.6,1.3-0.6c0.5,0,0.9,0.2,1.2,0.6h0v-2.5h0.6V207.7z M41.9,205.9v-0.6c0-0.3-0.1-0.6-0.3-0.8s-0.5-0.3-0.8-0.3
		c-0.4,0-0.7,0.1-0.9,0.4s-0.3,0.7-0.3,1.2c0,0.5,0.1,0.8,0.3,1.1s0.5,0.4,0.9,0.4c0.4,0,0.6-0.1,0.9-0.4S41.9,206.3,41.9,205.9z"/>
	<path d="M46.8,205.9H44c0,0.4,0.1,0.8,0.4,1s0.5,0.4,0.9,0.4c0.5,0,0.9-0.1,1.2-0.4v0.6c-0.4,0.3-0.8,0.4-1.4,0.4
		c-0.6,0-1-0.2-1.3-0.5s-0.5-0.9-0.5-1.5c0-0.6,0.2-1.1,0.5-1.5s0.8-0.6,1.3-0.6s0.9,0.2,1.2,0.5s0.4,0.8,0.4,1.4V205.9z
		 M46.2,205.4c0-0.4-0.1-0.7-0.3-0.9s-0.4-0.3-0.7-0.3c-0.3,0-0.6,0.1-0.8,0.3s-0.3,0.5-0.4,0.8H46.2z"/>
	<path d="M21.2,215.5h-2.8c0,0.4,0.1,0.8,0.4,1s0.5,0.4,0.9,0.4c0.5,0,0.9-0.1,1.2-0.4v0.6c-0.4,0.3-0.8,0.4-1.4,0.4
		c-0.6,0-1-0.2-1.3-0.5s-0.5-0.9-0.5-1.5c0-0.6,0.2-1.1,0.5-1.5c0.4-0.4,0.8-0.6,1.3-0.6s0.9,0.2,1.2,0.5c0.3,0.3,0.4,0.8,0.4,1.4
		V215.5z M20.6,215c0-0.4-0.1-0.7-0.3-0.9c-0.2-0.2-0.4-0.3-0.7-0.3c-0.3,0-0.6,0.1-0.8,0.3c-0.2,0.2-0.3,0.5-0.4,0.8H20.6z"/>
	<path d="M25.3,217.3h-0.6v-2.3c0-0.8-0.3-1.3-0.9-1.3c-0.3,0-0.6,0.1-0.8,0.4c-0.2,0.2-0.3,0.5-0.3,0.9v2.3H22v-4h0.6v0.7h0
		c0.3-0.5,0.7-0.8,1.3-0.8c0.4,0,0.8,0.1,1,0.4c0.2,0.3,0.3,0.7,0.3,1.2V217.3z"/>
	<path d="M28.5,214c-0.1-0.1-0.3-0.1-0.5-0.1c-0.3,0-0.5,0.1-0.7,0.4s-0.3,0.6-0.3,1.1v2h-0.6v-4H27v0.8h0c0.1-0.3,0.2-0.5,0.4-0.7
		c0.2-0.2,0.4-0.2,0.6-0.2c0.2,0,0.3,0,0.4,0.1V214z"/>
	<path d="M32.2,217.3h-0.6v-0.6h0c-0.3,0.5-0.7,0.7-1.2,0.7c-1,0-1.4-0.6-1.4-1.7v-2.4h0.6v2.3c0,0.8,0.3,1.3,1,1.3
		c0.3,0,0.6-0.1,0.8-0.3s0.3-0.5,0.3-0.9v-2.3h0.6V217.3z"/>
	<path d="M35.2,217.3c-0.2,0.1-0.4,0.1-0.6,0.1c-0.7,0-1.1-0.4-1.1-1.2v-2.4h-0.7v-0.5h0.7v-1l0.6-0.2v1.2h1v0.5h-1v2.3
		c0,0.3,0,0.5,0.1,0.6c0.1,0.1,0.2,0.2,0.5,0.2c0.2,0,0.3,0,0.4-0.1V217.3z"/>
	<path d="M38.8,217.3h-0.6v-0.6h0c-0.3,0.5-0.7,0.7-1.2,0.7c-0.4,0-0.7-0.1-0.9-0.3s-0.3-0.5-0.3-0.8c0-0.7,0.4-1.2,1.3-1.3l1.2-0.2
		c0-0.7-0.3-1-0.8-1c-0.5,0-0.9,0.2-1.3,0.5v-0.7c0.4-0.3,0.8-0.4,1.4-0.4c0.9,0,1.4,0.5,1.4,1.5V217.3z M38.2,215.3l-1,0.1
		c-0.3,0-0.5,0.1-0.7,0.2s-0.2,0.3-0.2,0.6c0,0.2,0.1,0.4,0.2,0.5c0.1,0.1,0.3,0.2,0.6,0.2c0.3,0,0.6-0.1,0.8-0.3s0.3-0.5,0.3-0.8
		V215.3z"/>
	<path d="M43.3,217.3h-0.6v-0.7h0c-0.3,0.5-0.8,0.8-1.4,0.8c-0.5,0-0.9-0.2-1.2-0.5c-0.3-0.4-0.5-0.8-0.5-1.5c0-0.7,0.2-1.2,0.5-1.6
		s0.8-0.6,1.3-0.6c0.5,0,0.9,0.2,1.2,0.6h0v-2.5h0.6V217.3z M42.6,215.5v-0.6c0-0.3-0.1-0.6-0.3-0.8c-0.2-0.2-0.5-0.3-0.8-0.3
		c-0.4,0-0.7,0.1-0.9,0.4c-0.2,0.3-0.3,0.7-0.3,1.2c0,0.5,0.1,0.8,0.3,1.1c0.2,0.3,0.5,0.4,0.9,0.4c0.4,0,0.6-0.1,0.9-0.4
		S42.6,215.9,42.6,215.5z"/>
	<path d="M46.1,217.4c-0.6,0-1.1-0.2-1.4-0.6c-0.4-0.4-0.5-0.9-0.5-1.5c0-0.7,0.2-1.2,0.6-1.6c0.4-0.4,0.9-0.6,1.5-0.6
		c0.6,0,1.1,0.2,1.4,0.6s0.5,0.9,0.5,1.5c0,0.6-0.2,1.1-0.5,1.5C47.2,217.2,46.7,217.4,46.1,217.4z M46.1,213.8
		c-0.4,0-0.7,0.1-1,0.4c-0.2,0.3-0.4,0.7-0.4,1.2c0,0.5,0.1,0.8,0.4,1.1s0.6,0.4,1,0.4c0.4,0,0.7-0.1,1-0.4c0.2-0.3,0.3-0.6,0.3-1.1
		c0-0.5-0.1-0.9-0.3-1.2C46.8,213.9,46.5,213.8,46.1,213.8z"/>
	<path d="M51,214c-0.1-0.1-0.3-0.1-0.5-0.1c-0.3,0-0.5,0.1-0.7,0.4s-0.3,0.6-0.3,1.1v2h-0.6v-4h0.6v0.8h0c0.1-0.3,0.2-0.5,0.4-0.7
		c0.2-0.2,0.4-0.2,0.6-0.2c0.2,0,0.3,0,0.4,0.1V214z"/>
</g>
</svg>
