<?xml version="1.0" encoding="utf-8"?>
<!-- Generator: Adobe Illustrator 22.0.1, SVG Export Plug-In . SVG Version: 6.00 Build 0)  -->
<svg version="1.1" xmlns="http://www.w3.org/2000/svg" xmlns:xlink="http://www.w3.org/1999/xlink" x="0px" y="0px"
	 viewBox="0 0 420 180" style="enable-background:new 0 0 420 180;" xml:space="preserve">
<style type="text/css">
	.st0{fill:#FFFFFF;}
	.st1{fill:#FFFFFF;stroke:#000000;stroke-width:0.5;}
	.st2{fill:#FFFFFF;stroke:#000000;stroke-width:0.5388;}
	.st3{fill:#8FD6FF;}
	.st4{stroke:#000000;stroke-width:0.625;stroke-linejoin:round;}
	.st5{fill:none;stroke:#000000;stroke-miterlimit:10;}
	.st6{enable-background:new    ;}
	.st7{fill:#E10000;}
	.st8{display:none;}
</style>
<g id="svg8548" inkscape:version="0.91 r13725" sodipodi:docname="coordination.svg" xmlns:cc="http://creativecommons.org/ns#" xmlns:dc="http://purl.org/dc/elements/1.1/" xmlns:inkscape="http://www.inkscape.org/namespaces/inkscape" xmlns:rdf="http://www.w3.org/1999/02/22-rdf-syntax-ns#" xmlns:sodipodi="http://sodipodi.sourceforge.net/DTD/sodipodi-0.dtd" xmlns:svg="http://www.w3.org/2000/svg">
	<g id="layer6" inkscape:groupmode="layer" inkscape:label="Background">
		<rect id="rect9544" x="-6.1" y="-2.8" class="st0" width="438.4" height="191.9"/>
	</g>
	
		<ellipse id="path9108" transform="matrix(3.327793e-02 -0.9994 0.9994 3.327793e-02 -45.9653 123.3875)" class="st1" cx="40.8" cy="85.5" rx="33.3" ry="33.3"/>
	<circle id="circle9116" class="st1" cx="379.2" cy="138.5" r="33.3"/>
	<g id="g9126" transform="translate(82.832509,1.0101525)">
		<circle id="circle9114" class="st1" cx="294.3" cy="40.5" r="33.3"/>
	</g>
	<g id="g9151">
		<rect id="rect9131" x="164.8" y="30.4" class="st2" width="86.8" height="110.1"/>
		<rect id="rect9142" x="165.5" y="84.8" class="st3" width="85.5" height="18.1"/>
	</g>
	<line class="st5" x1="81.2" y1="90" x2="152.5" y2="90"/>
	<line class="st5" x1="272.5" y1="84.4" x2="337.2" y2="45.6"/>
	<line class="st5" x1="273.2" y1="99.7" x2="337.2" y2="133.7"/>
	<path id="path5424" inkscape:connector-curvature="0" class="st4" d="M149.8,85.4l12,4.4l-12,4.4C151.8,91.6,151.7,88.1,149.8,85.4
		z"/>
	<path id="path9195" inkscape:connector-curvature="0" class="st4" d="M277.1,86.3l-11.8,2.3l7.5-9.4
		C272.5,82.3,274.3,85.1,277.1,86.3z"/>
	<path id="path9231" inkscape:connector-curvature="0" class="st4" d="M273.2,104.2l-7.9-9l11.9,1.7
		C274.4,98.3,272.9,101.2,273.2,104.2z"/>
</g>
<g id="Layer_2">
	<g>
		<g class="st6">
			<path d="M354.6,46v-8.4h-3.1v-1.1h7.5v1.1h-3.2V46H354.6z"/>
			<path d="M359.2,46v-6.9h1.1v1c0.3-0.5,0.5-0.8,0.7-1c0.2-0.2,0.5-0.2,0.8-0.2c0.4,0,0.8,0.1,1.2,0.4l-0.4,1.1
				c-0.3-0.2-0.6-0.3-0.9-0.3c-0.3,0-0.5,0.1-0.7,0.2c-0.2,0.2-0.3,0.4-0.4,0.6c-0.1,0.4-0.2,0.9-0.2,1.4V46H359.2z"/>
			<path d="M367.8,45.1c-0.4,0.4-0.8,0.6-1.3,0.8s-0.8,0.2-1.3,0.2c-0.8,0-1.3-0.2-1.7-0.6c-0.4-0.4-0.6-0.8-0.6-1.4
				c0-0.3,0.1-0.6,0.2-0.9c0.2-0.3,0.4-0.5,0.6-0.7s0.5-0.3,0.8-0.4c0.2-0.1,0.6-0.1,1-0.2c0.9-0.1,1.6-0.2,2.1-0.4
				c0-0.2,0-0.3,0-0.3c0-0.5-0.1-0.8-0.3-1c-0.3-0.3-0.7-0.4-1.3-0.4c-0.5,0-1,0.1-1.2,0.3s-0.5,0.5-0.6,1l-1.1-0.2
				c0.1-0.5,0.3-0.9,0.5-1.2s0.6-0.5,1-0.7c0.5-0.2,1-0.2,1.6-0.2c0.6,0,1.1,0.1,1.4,0.2c0.4,0.1,0.6,0.3,0.8,0.5
				c0.2,0.2,0.3,0.5,0.4,0.8c0,0.2,0.1,0.6,0.1,1.1v1.6c0,1.1,0,1.8,0.1,2.1s0.1,0.6,0.3,0.8H368C367.9,45.8,367.8,45.5,367.8,45.1z
				 M367.7,42.5c-0.4,0.2-1.1,0.3-1.9,0.4c-0.5,0.1-0.8,0.1-1,0.2c-0.2,0.1-0.4,0.2-0.5,0.4c-0.1,0.2-0.2,0.4-0.2,0.6
				c0,0.3,0.1,0.6,0.4,0.8c0.2,0.2,0.6,0.3,1,0.3c0.5,0,0.9-0.1,1.2-0.3c0.4-0.2,0.6-0.5,0.8-0.8c0.1-0.3,0.2-0.7,0.2-1.2V42.5z"/>
			<path d="M371.3,46h-1.1v-9.5h1.2v3.4c0.5-0.6,1.1-0.9,1.9-0.9c0.4,0,0.8,0.1,1.2,0.3c0.4,0.2,0.7,0.4,0.9,0.7
				c0.2,0.3,0.4,0.7,0.6,1.1s0.2,0.9,0.2,1.4c0,1.2-0.3,2.1-0.9,2.7c-0.6,0.6-1.3,1-2.1,1c-0.8,0-1.5-0.3-1.9-1V46z M371.3,42.5
				c0,0.8,0.1,1.4,0.3,1.8c0.4,0.6,0.9,0.9,1.5,0.9c0.5,0,1-0.2,1.3-0.7c0.4-0.4,0.6-1.1,0.6-2c0-0.9-0.2-1.6-0.5-2
				c-0.4-0.4-0.8-0.6-1.3-0.6c-0.5,0-1,0.2-1.3,0.7S371.3,41.7,371.3,42.5z"/>
			<path d="M381.8,45.1c-0.4,0.4-0.8,0.6-1.3,0.8s-0.8,0.2-1.3,0.2c-0.8,0-1.3-0.2-1.7-0.6s-0.6-0.8-0.6-1.4c0-0.3,0.1-0.6,0.2-0.9
				s0.4-0.5,0.6-0.7s0.5-0.3,0.8-0.4c0.2-0.1,0.6-0.1,1-0.2c0.9-0.1,1.6-0.2,2.1-0.4c0-0.2,0-0.3,0-0.3c0-0.5-0.1-0.8-0.3-1
				c-0.3-0.3-0.7-0.4-1.3-0.4c-0.5,0-1,0.1-1.2,0.3c-0.3,0.2-0.5,0.5-0.6,1l-1.1-0.2c0.1-0.5,0.3-0.9,0.5-1.2s0.6-0.5,1-0.7
				c0.5-0.2,1-0.2,1.6-0.2c0.6,0,1.1,0.1,1.4,0.2s0.6,0.3,0.8,0.5c0.2,0.2,0.3,0.5,0.4,0.8c0,0.2,0.1,0.6,0.1,1.1v1.6
				c0,1.1,0,1.8,0.1,2.1s0.1,0.6,0.3,0.8H382C381.9,45.8,381.8,45.5,381.8,45.1z M381.7,42.5c-0.4,0.2-1.1,0.3-1.9,0.4
				c-0.5,0.1-0.8,0.1-1,0.2c-0.2,0.1-0.4,0.2-0.5,0.4c-0.1,0.2-0.2,0.4-0.2,0.6c0,0.3,0.1,0.6,0.4,0.8s0.6,0.3,1,0.3
				c0.5,0,0.9-0.1,1.2-0.3c0.4-0.2,0.6-0.5,0.8-0.8c0.1-0.3,0.2-0.7,0.2-1.2V42.5z"/>
			<path d="M382.8,48.7l0.2-1c0.2,0.1,0.4,0.1,0.6,0.1c0.2,0,0.4-0.1,0.5-0.2c0.1-0.2,0.2-0.6,0.2-1.2v-7.2h1.2v7.3
				c0,0.8-0.1,1.4-0.3,1.8c-0.3,0.4-0.7,0.6-1.4,0.6C383.4,48.8,383.1,48.8,382.8,48.7z M384.3,37.8v-1.4h1.2v1.4H384.3z"/>
			<path d="M386.4,42.6c0-1.3,0.4-2.2,1.1-2.8c0.6-0.5,1.3-0.8,2.2-0.8c0.9,0,1.7,0.3,2.3,0.9c0.6,0.6,0.9,1.5,0.9,2.6
				c0,0.9-0.1,1.6-0.4,2.1c-0.3,0.5-0.7,0.9-1.2,1.2s-1.1,0.4-1.7,0.4c-1,0-1.7-0.3-2.3-0.9C386.7,44.6,386.4,43.7,386.4,42.6z
				 M387.6,42.6c0,0.9,0.2,1.5,0.6,2c0.4,0.4,0.9,0.7,1.5,0.7c0.6,0,1.1-0.2,1.4-0.7c0.4-0.4,0.6-1.1,0.6-2c0-0.9-0.2-1.5-0.6-1.9
				s-0.9-0.7-1.4-0.7c-0.6,0-1.1,0.2-1.5,0.7C387.8,41,387.6,41.7,387.6,42.6z"/>
			<path d="M401.2,46H400v-7.4c-0.3,0.3-0.7,0.5-1.1,0.8s-0.9,0.5-1.2,0.6v-1.1c0.7-0.3,1.2-0.7,1.7-1.1c0.5-0.4,0.8-0.9,1-1.3h0.8
				V46z"/>
		</g>
	</g>
	<g>
		<g class="st6">
			<path d="M354.6,142.9v-8.4h-3.1v-1.1h7.5v1.1h-3.2v8.4H354.6z"/>
			<path d="M359.2,142.9V136h1.1v1c0.3-0.5,0.5-0.8,0.7-1c0.2-0.2,0.5-0.2,0.8-0.2c0.4,0,0.8,0.1,1.2,0.4l-0.4,1.1
				c-0.3-0.2-0.6-0.3-0.9-0.3c-0.3,0-0.5,0.1-0.7,0.2c-0.2,0.2-0.3,0.4-0.4,0.6c-0.1,0.4-0.2,0.9-0.2,1.4v3.6H359.2z"/>
			<path d="M367.8,142c-0.4,0.4-0.8,0.6-1.3,0.8s-0.8,0.2-1.3,0.2c-0.8,0-1.3-0.2-1.7-0.6c-0.4-0.4-0.6-0.8-0.6-1.4
				c0-0.3,0.1-0.6,0.2-0.9c0.2-0.3,0.4-0.5,0.6-0.7s0.5-0.3,0.8-0.4c0.2-0.1,0.6-0.1,1-0.2c0.9-0.1,1.6-0.2,2.1-0.4
				c0-0.2,0-0.3,0-0.3c0-0.5-0.1-0.8-0.3-1c-0.3-0.3-0.7-0.4-1.3-0.4c-0.5,0-1,0.1-1.2,0.3s-0.5,0.5-0.6,1l-1.1-0.2
				c0.1-0.5,0.3-0.9,0.5-1.2s0.6-0.5,1-0.7c0.5-0.2,1-0.2,1.6-0.2c0.6,0,1.1,0.1,1.4,0.2c0.4,0.1,0.6,0.3,0.8,0.5
				c0.2,0.2,0.3,0.5,0.4,0.8c0,0.2,0.1,0.6,0.1,1.1v1.6c0,1.1,0,1.8,0.1,2.1s0.1,0.6,0.3,0.8H368C367.9,142.6,367.8,142.3,367.8,142
				z M367.7,139.4c-0.4,0.2-1.1,0.3-1.9,0.4c-0.5,0.1-0.8,0.1-1,0.2c-0.2,0.1-0.4,0.2-0.5,0.4c-0.1,0.2-0.2,0.4-0.2,0.6
				c0,0.3,0.1,0.6,0.4,0.8c0.2,0.2,0.6,0.3,1,0.3c0.5,0,0.9-0.1,1.2-0.3c0.4-0.2,0.6-0.5,0.8-0.8c0.1-0.3,0.2-0.7,0.2-1.2V139.4z"/>
			<path d="M371.3,142.9h-1.1v-9.5h1.2v3.4c0.5-0.6,1.1-0.9,1.9-0.9c0.4,0,0.8,0.1,1.2,0.3c0.4,0.2,0.7,0.4,0.9,0.7
				c0.2,0.3,0.4,0.7,0.6,1.1s0.2,0.9,0.2,1.4c0,1.2-0.3,2.1-0.9,2.7c-0.6,0.6-1.3,1-2.1,1c-0.8,0-1.5-0.3-1.9-1V142.9z M371.3,139.4
				c0,0.8,0.1,1.4,0.3,1.8c0.4,0.6,0.9,0.9,1.5,0.9c0.5,0,1-0.2,1.3-0.7c0.4-0.4,0.6-1.1,0.6-2c0-0.9-0.2-1.6-0.5-2
				c-0.4-0.4-0.8-0.6-1.3-0.6c-0.5,0-1,0.2-1.3,0.7S371.3,138.5,371.3,139.4z"/>
			<path d="M381.8,142c-0.4,0.4-0.8,0.6-1.3,0.8s-0.8,0.2-1.3,0.2c-0.8,0-1.3-0.2-1.7-0.6s-0.6-0.8-0.6-1.4c0-0.3,0.1-0.6,0.2-0.9
				s0.4-0.5,0.6-0.7s0.5-0.3,0.8-0.4c0.2-0.1,0.6-0.1,1-0.2c0.9-0.1,1.6-0.2,2.1-0.4c0-0.2,0-0.3,0-0.3c0-0.5-0.1-0.8-0.3-1
				c-0.3-0.3-0.7-0.4-1.3-0.4c-0.5,0-1,0.1-1.2,0.3c-0.3,0.2-0.5,0.5-0.6,1l-1.1-0.2c0.1-0.5,0.3-0.9,0.5-1.2s0.6-0.5,1-0.7
				c0.5-0.2,1-0.2,1.6-0.2c0.6,0,1.1,0.1,1.4,0.2s0.6,0.3,0.8,0.5c0.2,0.2,0.3,0.5,0.4,0.8c0,0.2,0.1,0.6,0.1,1.1v1.6
				c0,1.1,0,1.8,0.1,2.1s0.1,0.6,0.3,0.8H382C381.9,142.6,381.8,142.3,381.8,142z M381.7,139.4c-0.4,0.2-1.1,0.3-1.9,0.4
				c-0.5,0.1-0.8,0.1-1,0.2c-0.2,0.1-0.4,0.2-0.5,0.4c-0.1,0.2-0.2,0.4-0.2,0.6c0,0.3,0.1,0.6,0.4,0.8s0.6,0.3,1,0.3
				c0.5,0,0.9-0.1,1.2-0.3c0.4-0.2,0.6-0.5,0.8-0.8c0.1-0.3,0.2-0.7,0.2-1.2V139.4z"/>
			<path d="M382.8,145.6l0.2-1c0.2,0.1,0.4,0.1,0.6,0.1c0.2,0,0.4-0.1,0.5-0.2c0.1-0.2,0.2-0.6,0.2-1.2V136h1.2v7.3
				c0,0.8-0.1,1.4-0.3,1.8c-0.3,0.4-0.7,0.6-1.4,0.6C383.4,145.7,383.1,145.6,382.8,145.6z M384.3,134.7v-1.4h1.2v1.4H384.3z"/>
			<path d="M386.4,139.4c0-1.3,0.4-2.2,1.1-2.8c0.6-0.5,1.3-0.8,2.2-0.8c0.9,0,1.7,0.3,2.3,0.9c0.6,0.6,0.9,1.5,0.9,2.6
				c0,0.9-0.1,1.6-0.4,2.1c-0.3,0.5-0.7,0.9-1.2,1.2s-1.1,0.4-1.7,0.4c-1,0-1.7-0.3-2.3-0.9C386.7,141.5,386.4,140.6,386.4,139.4z
				 M387.6,139.4c0,0.9,0.2,1.5,0.6,2c0.4,0.4,0.9,0.7,1.5,0.7c0.6,0,1.1-0.2,1.4-0.7c0.4-0.4,0.6-1.1,0.6-2c0-0.9-0.2-1.5-0.6-1.9
				s-0.9-0.7-1.4-0.7c-0.6,0-1.1,0.2-1.5,0.7C387.8,137.9,387.6,138.5,387.6,139.4z"/>
			<path d="M402.9,141.8v1.1h-6.3c0-0.3,0-0.6,0.1-0.8c0.2-0.4,0.4-0.9,0.8-1.3c0.4-0.4,0.9-0.9,1.5-1.4c1-0.8,1.7-1.5,2.1-2
				c0.4-0.5,0.5-1,0.5-1.4c0-0.5-0.2-0.9-0.5-1.2c-0.3-0.3-0.8-0.5-1.3-0.5c-0.6,0-1,0.2-1.4,0.5s-0.5,0.8-0.5,1.4l-1.2-0.1
				c0.1-0.9,0.4-1.6,0.9-2s1.3-0.7,2.2-0.7c0.9,0,1.6,0.3,2.2,0.8c0.5,0.5,0.8,1.1,0.8,1.9c0,0.4-0.1,0.8-0.2,1.1
				c-0.2,0.4-0.4,0.8-0.8,1.2c-0.4,0.4-1,1-1.8,1.7c-0.7,0.6-1.2,1-1.4,1.2s-0.4,0.4-0.5,0.6H402.9z"/>
		</g>
	</g>
	<g>
		<g class="st6">
			<path d="M281.9,95.2V86h3.5c0.6,0,1.1,0,1.4,0.1c0.5,0.1,0.8,0.2,1.1,0.4c0.3,0.2,0.5,0.5,0.7,0.9c0.2,0.4,0.3,0.8,0.3,1.3
				c0,0.8-0.2,1.4-0.7,2c-0.5,0.5-1.4,0.8-2.7,0.8h-2.3v3.7H281.9z M283.1,90.4h2.4c0.8,0,1.3-0.1,1.7-0.4c0.3-0.3,0.5-0.7,0.5-1.2
				c0-0.4-0.1-0.7-0.3-1c-0.2-0.3-0.4-0.5-0.8-0.5c-0.2-0.1-0.6-0.1-1.1-0.1h-2.3V90.4z"/>
			<path d="M289.9,95.2v-6.6h1v1c0.3-0.5,0.5-0.8,0.7-0.9s0.5-0.2,0.7-0.2c0.4,0,0.8,0.1,1.2,0.4l-0.4,1c-0.3-0.2-0.5-0.2-0.8-0.2
				c-0.2,0-0.5,0.1-0.7,0.2c-0.2,0.1-0.3,0.4-0.4,0.6c-0.1,0.4-0.2,0.8-0.2,1.3v3.5H289.9z"/>
			<path d="M293.4,91.9c0-1.2,0.3-2.1,1-2.7c0.6-0.5,1.3-0.7,2.1-0.7c0.9,0,1.7,0.3,2.2,0.9s0.9,1.4,0.9,2.5c0,0.9-0.1,1.5-0.4,2
				c-0.3,0.5-0.6,0.9-1.1,1.1c-0.5,0.3-1,0.4-1.6,0.4c-0.9,0-1.7-0.3-2.3-0.9C293.7,93.9,293.4,93,293.4,91.9z M294.5,91.9
				c0,0.8,0.2,1.5,0.6,1.9s0.8,0.6,1.4,0.6c0.6,0,1-0.2,1.4-0.6c0.4-0.4,0.6-1.1,0.6-1.9c0-0.8-0.2-1.4-0.6-1.9
				c-0.4-0.4-0.8-0.6-1.4-0.6c-0.6,0-1,0.2-1.4,0.6S294.5,91,294.5,91.9z"/>
			<path d="M304.9,92.8l1.1,0.1c-0.1,0.8-0.4,1.4-0.9,1.8c-0.5,0.4-1.1,0.6-1.8,0.6c-0.9,0-1.6-0.3-2.2-0.9
				c-0.6-0.6-0.8-1.4-0.8-2.6c0-0.7,0.1-1.3,0.4-1.9c0.2-0.5,0.6-0.9,1.1-1.2c0.5-0.3,1-0.4,1.6-0.4c0.7,0,1.3,0.2,1.8,0.5
				c0.5,0.4,0.8,0.9,0.9,1.6l-1.1,0.2c-0.1-0.4-0.3-0.8-0.6-1c-0.3-0.2-0.6-0.3-1-0.3c-0.6,0-1,0.2-1.4,0.6c-0.4,0.4-0.5,1-0.5,1.9
				c0,0.9,0.2,1.5,0.5,1.9s0.8,0.6,1.3,0.6c0.4,0,0.8-0.1,1.1-0.4C304.6,93.8,304.8,93.3,304.9,92.8z"/>
			<path d="M311.1,93.1l1.2,0.1c-0.2,0.7-0.5,1.2-1,1.6c-0.5,0.4-1.1,0.6-1.9,0.6c-1,0-1.7-0.3-2.3-0.9c-0.6-0.6-0.9-1.4-0.9-2.5
				c0-1.1,0.3-2,0.9-2.6c0.6-0.6,1.3-0.9,2.2-0.9c0.9,0,1.6,0.3,2.2,0.9c0.6,0.6,0.8,1.5,0.8,2.5c0,0.1,0,0.2,0,0.3h-5
				c0,0.7,0.2,1.3,0.6,1.7c0.4,0.4,0.8,0.6,1.4,0.6c0.4,0,0.8-0.1,1.1-0.3S310.9,93.5,311.1,93.1z M307.4,91.2h3.7
				c0-0.6-0.2-1-0.4-1.3c-0.4-0.4-0.8-0.6-1.4-0.6c-0.5,0-1,0.2-1.3,0.5C307.6,90.2,307.4,90.7,307.4,91.2z"/>
			<path d="M312.8,93.2l1.1-0.2c0.1,0.4,0.2,0.8,0.5,1c0.3,0.2,0.7,0.4,1.2,0.4c0.5,0,0.9-0.1,1.1-0.3c0.3-0.2,0.4-0.5,0.4-0.7
				c0-0.3-0.1-0.5-0.3-0.6c-0.2-0.1-0.5-0.2-1.2-0.4c-0.8-0.2-1.4-0.4-1.7-0.5c-0.3-0.2-0.6-0.4-0.7-0.6c-0.2-0.3-0.2-0.6-0.2-0.9
				c0-0.3,0.1-0.6,0.2-0.8c0.1-0.3,0.3-0.5,0.6-0.6c0.2-0.1,0.4-0.2,0.7-0.3c0.3-0.1,0.6-0.1,1-0.1c0.5,0,1,0.1,1.4,0.2
				c0.4,0.2,0.7,0.4,0.9,0.6s0.3,0.6,0.4,1l-1.1,0.1c0-0.3-0.2-0.6-0.4-0.8c-0.2-0.2-0.6-0.3-1-0.3c-0.5,0-0.9,0.1-1.1,0.3
				s-0.3,0.4-0.3,0.6c0,0.1,0,0.3,0.1,0.4c0.1,0.1,0.2,0.2,0.4,0.3c0.1,0,0.4,0.1,1,0.3c0.8,0.2,1.4,0.4,1.7,0.5
				c0.3,0.1,0.6,0.3,0.7,0.6c0.2,0.3,0.3,0.6,0.3,1c0,0.4-0.1,0.7-0.3,1.1s-0.5,0.6-0.9,0.8c-0.4,0.2-0.9,0.3-1.4,0.3
				c-0.9,0-1.5-0.2-2-0.5S313,93.9,312.8,93.2z"/>
			<path d="M323.6,94.4c-0.4,0.4-0.8,0.6-1.2,0.8c-0.4,0.1-0.8,0.2-1.2,0.2c-0.7,0-1.3-0.2-1.7-0.5c-0.4-0.4-0.6-0.8-0.6-1.4
				c0-0.3,0.1-0.6,0.2-0.9c0.1-0.3,0.3-0.5,0.6-0.6c0.2-0.2,0.5-0.3,0.8-0.4c0.2-0.1,0.6-0.1,1-0.2c0.9-0.1,1.6-0.2,2-0.4
				c0-0.2,0-0.3,0-0.3c0-0.5-0.1-0.8-0.3-1c-0.3-0.3-0.7-0.4-1.3-0.4c-0.5,0-0.9,0.1-1.2,0.3s-0.4,0.5-0.6,1l-1.1-0.2
				c0.1-0.5,0.3-0.9,0.5-1.1c0.2-0.3,0.6-0.5,1-0.7s0.9-0.2,1.5-0.2c0.6,0,1,0.1,1.4,0.2c0.4,0.1,0.6,0.3,0.8,0.5
				c0.2,0.2,0.3,0.5,0.3,0.8c0,0.2,0.1,0.5,0.1,1v1.5c0,1,0,1.7,0.1,2s0.1,0.5,0.3,0.8h-1.2C323.7,95,323.7,94.7,323.6,94.4z
				 M323.5,91.9c-0.4,0.2-1,0.3-1.8,0.4c-0.5,0.1-0.8,0.1-1,0.2c-0.2,0.1-0.3,0.2-0.4,0.4s-0.2,0.3-0.2,0.5c0,0.3,0.1,0.5,0.3,0.8
				c0.2,0.2,0.6,0.3,1,0.3c0.4,0,0.8-0.1,1.2-0.3c0.3-0.2,0.6-0.4,0.7-0.8c0.1-0.3,0.2-0.6,0.2-1.1V91.9z"/>
			<path d="M326,95.2v-6.6h1v1c0.3-0.5,0.5-0.8,0.7-0.9s0.5-0.2,0.7-0.2c0.4,0,0.8,0.1,1.2,0.4l-0.4,1c-0.3-0.2-0.5-0.2-0.8-0.2
				c-0.2,0-0.5,0.1-0.7,0.2c-0.2,0.1-0.3,0.4-0.4,0.6c-0.1,0.4-0.2,0.8-0.2,1.3v3.5H326z"/>
			<path d="M333.1,97.7v-9.2h1v0.9c0.2-0.3,0.5-0.6,0.8-0.8c0.3-0.2,0.7-0.3,1.1-0.3c0.6,0,1.1,0.1,1.5,0.4c0.4,0.3,0.8,0.7,1,1.2
				s0.3,1.1,0.3,1.7c0,0.7-0.1,1.3-0.4,1.8c-0.2,0.5-0.6,1-1.1,1.3c-0.5,0.3-1,0.4-1.5,0.4c-0.4,0-0.7-0.1-1-0.2s-0.5-0.4-0.7-0.6
				v3.2H333.1z M334.1,91.9c0,0.9,0.2,1.5,0.5,1.9s0.8,0.6,1.3,0.6c0.5,0,0.9-0.2,1.3-0.6s0.5-1.1,0.5-2c0-0.8-0.2-1.5-0.5-1.9
				c-0.3-0.4-0.8-0.6-1.2-0.6c-0.5,0-0.9,0.2-1.3,0.7C334.3,90.4,334.1,91.1,334.1,91.9z"/>
			<path d="M344.4,93.1l1.2,0.1c-0.2,0.7-0.5,1.2-1,1.6s-1.1,0.6-1.9,0.6c-1,0-1.7-0.3-2.3-0.9c-0.6-0.6-0.9-1.4-0.9-2.5
				c0-1.1,0.3-2,0.9-2.6c0.6-0.6,1.3-0.9,2.2-0.9c0.9,0,1.6,0.3,2.2,0.9c0.6,0.6,0.8,1.5,0.8,2.5c0,0.1,0,0.2,0,0.3h-4.9
				c0,0.7,0.2,1.3,0.6,1.7s0.8,0.6,1.4,0.6c0.4,0,0.8-0.1,1.1-0.3C344,93.9,344.2,93.5,344.4,93.1z M340.7,91.2h3.7
				c0-0.6-0.2-1-0.4-1.3c-0.4-0.4-0.8-0.6-1.4-0.6c-0.5,0-1,0.2-1.3,0.5S340.7,90.7,340.7,91.2z"/>
			<path d="M350.9,95.2v-0.8c-0.4,0.7-1,1-1.9,1c-0.5,0-1-0.1-1.5-0.4c-0.4-0.3-0.8-0.7-1-1.2c-0.2-0.5-0.4-1.1-0.4-1.8
				c0-0.7,0.1-1.3,0.3-1.8c0.2-0.5,0.6-1,1-1.2c0.4-0.3,0.9-0.4,1.5-0.4c0.4,0,0.8,0.1,1.1,0.3s0.6,0.4,0.8,0.7V86h1.1v9.2H350.9z
				 M347.3,91.9c0,0.8,0.2,1.5,0.5,1.9s0.8,0.6,1.3,0.6c0.5,0,0.9-0.2,1.3-0.6s0.5-1,0.5-1.8c0-0.9-0.2-1.6-0.5-2s-0.8-0.6-1.3-0.6
				c-0.5,0-0.9,0.2-1.3,0.6C347.5,90.4,347.3,91,347.3,91.9z"/>
			<path d="M353.3,87.3V86h1.1v1.3H353.3z M353.3,95.2v-6.6h1.1v6.6H353.3z"/>
			<path d="M360.1,95.2v-0.8c-0.4,0.7-1,1-1.9,1c-0.5,0-1-0.1-1.5-0.4c-0.4-0.3-0.8-0.7-1-1.2c-0.2-0.5-0.4-1.1-0.4-1.8
				c0-0.7,0.1-1.3,0.3-1.8c0.2-0.5,0.6-1,1-1.2c0.4-0.3,0.9-0.4,1.5-0.4c0.4,0,0.8,0.1,1.1,0.3s0.6,0.4,0.8,0.7V86h1.1v9.2H360.1z
				 M356.5,91.9c0,0.8,0.2,1.5,0.5,1.9s0.8,0.6,1.3,0.6c0.5,0,0.9-0.2,1.3-0.6s0.5-1,0.5-1.8c0-0.9-0.2-1.6-0.5-2s-0.8-0.6-1.3-0.6
				c-0.5,0-0.9,0.2-1.3,0.6C356.7,90.4,356.5,91,356.5,91.9z"/>
			<path d="M362.1,91.9c0-1.2,0.3-2.1,1-2.7c0.6-0.5,1.3-0.7,2.1-0.7c0.9,0,1.7,0.3,2.2,0.9s0.9,1.4,0.9,2.5c0,0.9-0.1,1.5-0.4,2
				c-0.3,0.5-0.6,0.9-1.1,1.1c-0.5,0.3-1,0.4-1.6,0.4c-0.9,0-1.7-0.3-2.3-0.9C362.4,93.9,362.1,93,362.1,91.9z M363.2,91.9
				c0,0.8,0.2,1.5,0.6,1.9s0.8,0.6,1.4,0.6c0.6,0,1-0.2,1.4-0.6c0.4-0.4,0.6-1.1,0.6-1.9c0-0.8-0.2-1.4-0.6-1.9
				c-0.4-0.4-0.8-0.6-1.4-0.6c-0.6,0-1,0.2-1.4,0.6S363.2,91,363.2,91.9z"/>
			<path d="M368.8,93.2l1.1-0.2c0.1,0.4,0.2,0.8,0.5,1c0.3,0.2,0.7,0.4,1.2,0.4c0.5,0,0.9-0.1,1.2-0.3c0.3-0.2,0.4-0.5,0.4-0.7
				c0-0.3-0.1-0.5-0.3-0.6c-0.2-0.1-0.5-0.2-1.2-0.4c-0.8-0.2-1.4-0.4-1.7-0.5c-0.3-0.2-0.6-0.4-0.7-0.6c-0.2-0.3-0.2-0.6-0.2-0.9
				c0-0.3,0.1-0.6,0.2-0.8c0.1-0.3,0.3-0.5,0.6-0.6c0.2-0.1,0.4-0.2,0.7-0.3c0.3-0.1,0.6-0.1,1-0.1c0.5,0,1,0.1,1.4,0.2
				s0.7,0.4,0.9,0.6s0.3,0.6,0.4,1l-1.1,0.1c0-0.3-0.2-0.6-0.4-0.8c-0.2-0.2-0.6-0.3-1-0.3c-0.5,0-0.9,0.1-1.1,0.3S370,90,370,90.2
				c0,0.1,0,0.3,0.1,0.4c0.1,0.1,0.2,0.2,0.4,0.3c0.1,0,0.4,0.1,1,0.3c0.8,0.2,1.4,0.4,1.7,0.5s0.6,0.3,0.7,0.6
				c0.2,0.3,0.3,0.6,0.3,1c0,0.4-0.1,0.7-0.3,1.1s-0.5,0.6-0.9,0.8c-0.4,0.2-0.9,0.3-1.4,0.3c-0.9,0-1.5-0.2-2-0.5
				S368.9,93.9,368.8,93.2z"/>
		</g>
	</g>
	<g>
		<g class="st6">
			<path d="M172.3,100.7v-9.3h1v0.9c0.2-0.3,0.5-0.6,0.8-0.8c0.3-0.2,0.7-0.3,1.1-0.3c0.6,0,1.1,0.1,1.5,0.4s0.8,0.7,1,1.3
				c0.2,0.5,0.3,1.1,0.3,1.8c0,0.7-0.1,1.3-0.4,1.9c-0.2,0.6-0.6,1-1.1,1.3c-0.5,0.3-1,0.4-1.5,0.4c-0.4,0-0.7-0.1-1-0.2
				c-0.3-0.2-0.6-0.4-0.7-0.6v3.3H172.3z M173.3,94.7c0,0.9,0.2,1.5,0.5,1.9s0.8,0.6,1.3,0.6c0.5,0,0.9-0.2,1.3-0.6
				c0.4-0.4,0.5-1.1,0.5-2c0-0.9-0.2-1.5-0.5-1.9c-0.4-0.4-0.8-0.6-1.3-0.6c-0.5,0-0.9,0.2-1.3,0.7
				C173.5,93.2,173.3,93.9,173.3,94.7z"/>
			<path d="M183.7,95.9l1.2,0.1c-0.2,0.7-0.5,1.2-1,1.6s-1.1,0.6-1.9,0.6c-1,0-1.8-0.3-2.3-0.9c-0.6-0.6-0.9-1.5-0.9-2.6
				c0-1.1,0.3-2,0.9-2.6s1.3-0.9,2.3-0.9c0.9,0,1.6,0.3,2.2,0.9c0.6,0.6,0.9,1.5,0.9,2.6c0,0.1,0,0.2,0,0.3h-5
				c0,0.7,0.3,1.3,0.6,1.7c0.4,0.4,0.8,0.6,1.4,0.6c0.4,0,0.8-0.1,1.1-0.3S183.5,96.4,183.7,95.9z M180,94.1h3.8
				c-0.1-0.6-0.2-1-0.4-1.3c-0.4-0.4-0.8-0.7-1.4-0.7c-0.5,0-1,0.2-1.3,0.5C180.2,93,180,93.5,180,94.1z"/>
			<path d="M190.3,98.1v-0.9c-0.4,0.7-1.1,1-1.9,1c-0.5,0-1-0.1-1.5-0.4c-0.5-0.3-0.8-0.7-1-1.2c-0.2-0.5-0.4-1.1-0.4-1.8
				c0-0.7,0.1-1.3,0.3-1.8s0.6-1,1-1.3c0.4-0.3,1-0.4,1.5-0.4c0.4,0,0.8,0.1,1.1,0.3c0.3,0.2,0.6,0.4,0.8,0.7v-3.3h1.1v9.3H190.3z
				 M186.7,94.7c0,0.9,0.2,1.5,0.5,1.9c0.4,0.4,0.8,0.6,1.3,0.6c0.5,0,0.9-0.2,1.3-0.6c0.3-0.4,0.5-1,0.5-1.9c0-0.9-0.2-1.6-0.5-2
				s-0.8-0.6-1.3-0.6c-0.5,0-0.9,0.2-1.3,0.6C186.9,93.2,186.7,93.8,186.7,94.7z"/>
			<path d="M192.8,90.1v-1.3h1.1v1.3H192.8z M192.8,98.1v-6.7h1.1v6.7H192.8z"/>
			<path d="M199.7,98.1v-0.9c-0.4,0.7-1.1,1-1.9,1c-0.5,0-1-0.1-1.5-0.4c-0.5-0.3-0.8-0.7-1-1.2c-0.2-0.5-0.4-1.1-0.4-1.8
				c0-0.7,0.1-1.3,0.3-1.8s0.6-1,1-1.3c0.4-0.3,1-0.4,1.5-0.4c0.4,0,0.8,0.1,1.1,0.3c0.3,0.2,0.6,0.4,0.8,0.7v-3.3h1.1v9.3H199.7z
				 M196,94.7c0,0.9,0.2,1.5,0.5,1.9c0.4,0.4,0.8,0.6,1.3,0.6c0.5,0,0.9-0.2,1.3-0.6c0.3-0.4,0.5-1,0.5-1.9c0-0.9-0.2-1.6-0.5-2
				s-0.8-0.6-1.3-0.6c-0.5,0-0.9,0.2-1.3,0.6C196.2,93.2,196,93.8,196,94.7z"/>
			<path d="M201.7,94.7c0-1.2,0.3-2.2,1-2.8c0.6-0.5,1.3-0.7,2.1-0.7c0.9,0,1.7,0.3,2.3,0.9s0.9,1.4,0.9,2.5c0,0.9-0.1,1.5-0.4,2
				c-0.3,0.5-0.6,0.9-1.1,1.2c-0.5,0.3-1,0.4-1.6,0.4c-0.9,0-1.7-0.3-2.3-0.9C202,96.7,201.7,95.8,201.7,94.7z M202.9,94.7
				c0,0.9,0.2,1.5,0.6,1.9s0.9,0.6,1.4,0.6c0.6,0,1-0.2,1.4-0.6s0.6-1.1,0.6-2c0-0.8-0.2-1.5-0.6-1.9c-0.4-0.4-0.8-0.6-1.4-0.6
				c-0.6,0-1,0.2-1.4,0.6S202.9,93.8,202.9,94.7z"/>
			<path d="M212.2,98.1v-6.7h1v1c0.5-0.7,1.2-1.1,2.1-1.1c0.4,0,0.8,0.1,1.1,0.2c0.3,0.1,0.6,0.3,0.8,0.6c0.2,0.2,0.3,0.5,0.4,0.8
				c0,0.2,0.1,0.6,0.1,1.1v4.1h-1.1V94c0-0.5,0-0.8-0.1-1s-0.2-0.4-0.5-0.6s-0.5-0.2-0.8-0.2c-0.5,0-0.9,0.2-1.3,0.5
				c-0.4,0.3-0.5,0.9-0.5,1.8v3.7H212.2z"/>
			<path d="M220.5,88.6c0.6,0,1.1,0.2,1.5,0.6c0.4,0.4,0.6,1,0.6,1.8c0,0.7-0.2,1.3-0.6,1.7c-0.4,0.4-0.9,0.6-1.5,0.6
				c-0.6,0-1.1-0.2-1.5-0.6c-0.4-0.4-0.6-1-0.6-1.7c0-0.8,0.2-1.4,0.6-1.8C219.4,88.8,219.9,88.6,220.5,88.6z M220.5,89.5
				c-0.3,0-0.6,0.1-0.8,0.4c-0.2,0.2-0.3,0.6-0.3,1.2c0,0.5,0.1,0.9,0.3,1.2c0.2,0.2,0.5,0.4,0.8,0.4c0.3,0,0.6-0.1,0.8-0.4
				c0.2-0.2,0.3-0.6,0.3-1.2c0-0.5-0.1-0.9-0.3-1.1S220.9,89.5,220.5,89.5z"/>
			<path d="M230.6,98.1h-1.1v-7.3c-0.3,0.3-0.6,0.5-1.1,0.8c-0.4,0.3-0.8,0.5-1.2,0.6v-1.1c0.6-0.3,1.2-0.7,1.7-1.1
				c0.5-0.4,0.8-0.8,1-1.2h0.7V98.1z"/>
			<path d="M239.1,97v1.1H233c0-0.3,0-0.5,0.1-0.8c0.2-0.4,0.4-0.8,0.8-1.2c0.3-0.4,0.8-0.9,1.5-1.4c1-0.8,1.7-1.5,2.1-2
				s0.5-0.9,0.5-1.4c0-0.5-0.2-0.8-0.5-1.1c-0.3-0.3-0.7-0.5-1.3-0.5c-0.6,0-1,0.2-1.3,0.5s-0.5,0.8-0.5,1.4l-1.2-0.1
				c0.1-0.9,0.4-1.5,0.9-2c0.5-0.5,1.2-0.7,2.1-0.7c0.9,0,1.6,0.2,2.1,0.7c0.5,0.5,0.8,1.1,0.8,1.8c0,0.4-0.1,0.7-0.2,1.1
				s-0.4,0.7-0.8,1.1c-0.4,0.4-0.9,0.9-1.8,1.6c-0.7,0.6-1.1,1-1.3,1.2c-0.2,0.2-0.4,0.4-0.5,0.6H239.1z"/>
			<path d="M240,95.6l1.1-0.2c0.1,0.6,0.4,1.1,0.7,1.4c0.3,0.3,0.7,0.4,1.2,0.4c0.5,0,1-0.2,1.4-0.6c0.4-0.4,0.6-0.8,0.6-1.4
				c0-0.5-0.2-1-0.5-1.3s-0.8-0.5-1.3-0.5c-0.2,0-0.5,0-0.8,0.1l0.1-1c0.1,0,0.1,0,0.2,0c0.5,0,0.9-0.1,1.3-0.4
				c0.4-0.3,0.6-0.6,0.6-1.2c0-0.4-0.1-0.8-0.4-1c-0.3-0.3-0.6-0.4-1.1-0.4c-0.4,0-0.8,0.1-1.1,0.4c-0.3,0.3-0.5,0.7-0.6,1.3
				l-1.1-0.2c0.1-0.8,0.5-1.4,1-1.8s1.1-0.6,1.8-0.6c0.5,0,1,0.1,1.4,0.3c0.4,0.2,0.8,0.5,1,0.9s0.3,0.8,0.3,1.2
				c0,0.4-0.1,0.8-0.3,1.1s-0.5,0.6-1,0.8c0.5,0.1,1,0.4,1.3,0.8c0.3,0.4,0.5,0.9,0.5,1.5c0,0.8-0.3,1.5-0.9,2.1
				c-0.6,0.6-1.3,0.8-2.2,0.8c-0.8,0-1.5-0.2-2-0.7C240.4,97,240,96.4,240,95.6z"/>
		</g>
	</g>
	<g>
		<g class="st6">
			<path d="M186.8,46v-9.6h3.6c0.6,0,1.1,0,1.5,0.1c0.5,0.1,0.9,0.2,1.2,0.4c0.3,0.2,0.6,0.5,0.8,0.9c0.2,0.4,0.3,0.8,0.3,1.3
				c0,0.8-0.3,1.5-0.8,2.1c-0.5,0.6-1.5,0.8-2.8,0.8h-2.5V46H186.8z M188.1,41h2.5c0.8,0,1.4-0.2,1.7-0.5c0.3-0.3,0.5-0.7,0.5-1.3
				c0-0.4-0.1-0.7-0.3-1c-0.2-0.3-0.5-0.5-0.8-0.6c-0.2-0.1-0.6-0.1-1.2-0.1h-2.5V41z"/>
			<path d="M200,43.8l1.2,0.2c-0.2,0.7-0.5,1.3-1.1,1.7s-1.2,0.6-2,0.6c-1,0-1.8-0.3-2.4-0.9c-0.6-0.6-0.9-1.5-0.9-2.6
				c0-1.2,0.3-2.1,0.9-2.7c0.6-0.6,1.4-1,2.3-1c0.9,0,1.7,0.3,2.3,0.9c0.6,0.6,0.9,1.5,0.9,2.7c0,0.1,0,0.2,0,0.3H196
				c0,0.8,0.3,1.3,0.6,1.8c0.4,0.4,0.9,0.6,1.5,0.6c0.4,0,0.8-0.1,1.1-0.3C199.5,44.6,199.8,44.3,200,43.8z M196.1,41.9h3.9
				c-0.1-0.6-0.2-1-0.4-1.3c-0.4-0.5-0.9-0.7-1.5-0.7c-0.5,0-1,0.2-1.4,0.5C196.3,40.8,196.1,41.3,196.1,41.9z"/>
			<path d="M206.8,46v-0.9c-0.4,0.7-1.1,1-1.9,1c-0.6,0-1.1-0.2-1.5-0.5c-0.5-0.3-0.8-0.7-1.1-1.3c-0.3-0.5-0.4-1.2-0.4-1.9
				c0-0.7,0.1-1.3,0.3-1.9c0.2-0.6,0.6-1,1-1.3s1-0.5,1.6-0.5c0.4,0,0.8,0.1,1.1,0.3s0.6,0.4,0.8,0.7v-3.4h1.2V46H206.8z M203,42.5
				c0,0.9,0.2,1.6,0.6,2c0.4,0.4,0.8,0.7,1.3,0.7c0.5,0,1-0.2,1.3-0.6s0.5-1.1,0.5-1.9c0-1-0.2-1.6-0.5-2.1
				c-0.4-0.4-0.8-0.7-1.4-0.7c-0.5,0-1,0.2-1.3,0.6C203.2,40.9,203,41.6,203,42.5z"/>
			<path d="M209.3,37.8v-1.4h1.2v1.4H209.3z M209.3,46v-6.9h1.2V46H209.3z"/>
			<path d="M216.4,46v-0.9c-0.4,0.7-1.1,1-1.9,1c-0.6,0-1.1-0.2-1.5-0.5c-0.5-0.3-0.8-0.7-1.1-1.3s-0.4-1.2-0.4-1.9
				c0-0.7,0.1-1.3,0.3-1.9c0.2-0.6,0.6-1,1-1.3c0.5-0.3,1-0.5,1.6-0.5c0.4,0,0.8,0.1,1.1,0.3s0.6,0.4,0.8,0.7v-3.4h1.2V46H216.4z
				 M212.7,42.5c0,0.9,0.2,1.6,0.6,2c0.4,0.4,0.8,0.7,1.3,0.7c0.5,0,1-0.2,1.3-0.6c0.4-0.4,0.5-1.1,0.5-1.9c0-1-0.2-1.6-0.5-2.1
				c-0.4-0.4-0.8-0.7-1.4-0.7c-0.5,0-1,0.2-1.3,0.6S212.7,41.6,212.7,42.5z"/>
			<path d="M218.5,42.5c0-1.3,0.4-2.2,1.1-2.9c0.6-0.5,1.3-0.8,2.2-0.8c1,0,1.7,0.3,2.3,0.9s0.9,1.5,0.9,2.6c0,0.9-0.1,1.6-0.4,2.1
				c-0.3,0.5-0.7,0.9-1.2,1.2c-0.5,0.3-1.1,0.4-1.7,0.4c-1,0-1.8-0.3-2.4-0.9S218.5,43.7,218.5,42.5z M219.7,42.5
				c0,0.9,0.2,1.6,0.6,2c0.4,0.4,0.9,0.7,1.5,0.7c0.6,0,1.1-0.2,1.5-0.7c0.4-0.4,0.6-1.1,0.6-2c0-0.9-0.2-1.5-0.6-2
				c-0.4-0.4-0.9-0.7-1.5-0.7c-0.6,0-1.1,0.2-1.5,0.7C219.9,41,219.7,41.6,219.7,42.5z"/>
			<path d="M225.5,43.9l1.2-0.2c0.1,0.5,0.2,0.8,0.5,1.1c0.3,0.2,0.7,0.4,1.3,0.4c0.5,0,0.9-0.1,1.2-0.3c0.3-0.2,0.4-0.5,0.4-0.8
				c0-0.3-0.1-0.5-0.3-0.6c-0.2-0.1-0.6-0.2-1.2-0.4c-0.9-0.2-1.5-0.4-1.8-0.6c-0.3-0.2-0.6-0.4-0.8-0.7c-0.2-0.3-0.3-0.6-0.3-0.9
				c0-0.3,0.1-0.6,0.2-0.9c0.1-0.3,0.3-0.5,0.6-0.7c0.2-0.1,0.4-0.3,0.7-0.3c0.3-0.1,0.7-0.1,1-0.1c0.5,0,1,0.1,1.4,0.2
				s0.7,0.4,0.9,0.6c0.2,0.3,0.3,0.6,0.4,1.1l-1.2,0.2c-0.1-0.4-0.2-0.6-0.5-0.8c-0.3-0.2-0.6-0.3-1.1-0.3c-0.5,0-0.9,0.1-1.2,0.3
				c-0.2,0.2-0.3,0.4-0.3,0.6c0,0.2,0,0.3,0.1,0.4c0.1,0.1,0.2,0.2,0.5,0.3c0.1,0,0.5,0.1,1,0.3c0.8,0.2,1.4,0.4,1.7,0.5
				s0.6,0.3,0.8,0.6s0.3,0.6,0.3,1c0,0.4-0.1,0.8-0.3,1.1c-0.2,0.3-0.6,0.6-1,0.8c-0.4,0.2-0.9,0.3-1.5,0.3c-0.9,0-1.6-0.2-2.1-0.6
				C225.9,45.2,225.6,44.7,225.5,43.9z"/>
		</g>
	</g>
	<g class="st6">
		<path d="M89.2,106.6l1.2,0.3c-0.3,1-0.7,1.8-1.4,2.3c-0.7,0.5-1.5,0.8-2.5,0.8c-1,0-1.8-0.2-2.4-0.6c-0.6-0.4-1.1-1-1.4-1.8
			c-0.3-0.8-0.5-1.6-0.5-2.5c0-1,0.2-1.8,0.6-2.5c0.4-0.7,0.9-1.3,1.6-1.6c0.7-0.4,1.4-0.6,2.3-0.6c0.9,0,1.7,0.2,2.3,0.7
			c0.6,0.5,1.1,1.1,1.3,2l-1.2,0.3c-0.2-0.7-0.5-1.2-0.9-1.5s-0.9-0.5-1.5-0.5c-0.7,0-1.3,0.2-1.8,0.5c-0.5,0.3-0.8,0.8-1,1.4
			c-0.2,0.6-0.3,1.2-0.3,1.8c0,0.8,0.1,1.5,0.3,2.1c0.2,0.6,0.6,1,1.1,1.3s1,0.4,1.6,0.4c0.7,0,1.3-0.2,1.8-0.6
			C88.7,108,89.1,107.4,89.2,106.6z"/>
		<path d="M91.4,109.9v-6.7h1v1c0.3-0.5,0.5-0.8,0.7-0.9c0.2-0.2,0.5-0.2,0.7-0.2c0.4,0,0.8,0.1,1.2,0.4l-0.4,1.1
			c-0.3-0.2-0.6-0.2-0.8-0.2c-0.2,0-0.5,0.1-0.7,0.2s-0.3,0.4-0.4,0.6c-0.1,0.4-0.2,0.9-0.2,1.3v3.5H91.4z"/>
		<path d="M100,107.7l1.2,0.1c-0.2,0.7-0.5,1.2-1,1.6S99,110,98.2,110c-1,0-1.8-0.3-2.3-0.9c-0.6-0.6-0.9-1.5-0.9-2.6
			c0-1.1,0.3-2,0.9-2.6s1.3-0.9,2.3-0.9c0.9,0,1.6,0.3,2.2,0.9c0.6,0.6,0.9,1.5,0.9,2.6c0,0.1,0,0.2,0,0.3h-5c0,0.7,0.3,1.3,0.6,1.7
			c0.4,0.4,0.8,0.6,1.4,0.6c0.4,0,0.8-0.1,1.1-0.3S99.8,108.2,100,107.7z M96.3,105.8h3.8c-0.1-0.6-0.2-1-0.4-1.3
			c-0.4-0.4-0.8-0.7-1.4-0.7c-0.5,0-1,0.2-1.3,0.5C96.5,104.8,96.3,105.2,96.3,105.8z"/>
		<path d="M106.6,109c-0.4,0.4-0.8,0.6-1.2,0.8c-0.4,0.1-0.8,0.2-1.3,0.2c-0.7,0-1.3-0.2-1.7-0.5c-0.4-0.4-0.6-0.8-0.6-1.4
			c0-0.3,0.1-0.6,0.2-0.9c0.1-0.3,0.3-0.5,0.6-0.7c0.2-0.2,0.5-0.3,0.8-0.4c0.2-0.1,0.6-0.1,1-0.2c0.9-0.1,1.6-0.2,2-0.4
			c0-0.2,0-0.3,0-0.3c0-0.5-0.1-0.8-0.3-1c-0.3-0.3-0.7-0.4-1.3-0.4c-0.5,0-0.9,0.1-1.2,0.3c-0.3,0.2-0.4,0.5-0.6,1L102,105
			c0.1-0.5,0.3-0.9,0.5-1.2s0.6-0.5,1-0.7c0.4-0.2,1-0.2,1.5-0.2c0.6,0,1,0.1,1.4,0.2s0.6,0.3,0.8,0.5s0.3,0.5,0.4,0.8
			c0,0.2,0.1,0.5,0.1,1.1v1.5c0,1.1,0,1.7,0.1,2c0,0.3,0.1,0.6,0.3,0.8h-1.2C106.7,109.6,106.7,109.3,106.6,109z M106.5,106.5
			c-0.4,0.2-1,0.3-1.9,0.4c-0.5,0.1-0.8,0.1-1,0.2c-0.2,0.1-0.3,0.2-0.5,0.4s-0.2,0.3-0.2,0.5c0,0.3,0.1,0.6,0.3,0.8
			c0.2,0.2,0.6,0.3,1,0.3c0.4,0,0.8-0.1,1.2-0.3s0.6-0.5,0.8-0.8c0.1-0.3,0.2-0.6,0.2-1.1V106.5z"/>
		<path d="M109.1,109.9v-6.7h1v1c0.3-0.5,0.5-0.8,0.7-0.9c0.2-0.2,0.5-0.2,0.7-0.2c0.4,0,0.8,0.1,1.2,0.4l-0.4,1.1
			c-0.3-0.2-0.6-0.2-0.8-0.2c-0.2,0-0.5,0.1-0.7,0.2s-0.3,0.4-0.4,0.6c-0.1,0.4-0.2,0.9-0.2,1.3v3.5H109.1z"/>
		<path d="M116.2,112.4v-9.3h1v0.9c0.2-0.3,0.5-0.6,0.8-0.8c0.3-0.2,0.7-0.3,1.1-0.3c0.6,0,1.1,0.1,1.5,0.4s0.8,0.7,1,1.3
			c0.2,0.5,0.3,1.1,0.3,1.8c0,0.7-0.1,1.3-0.4,1.9c-0.2,0.6-0.6,1-1.1,1.3c-0.5,0.3-1,0.4-1.5,0.4c-0.4,0-0.7-0.1-1-0.2
			c-0.3-0.2-0.6-0.4-0.7-0.6v3.3H116.2z M117.3,106.5c0,0.9,0.2,1.5,0.5,1.9s0.8,0.6,1.3,0.6c0.5,0,0.9-0.2,1.3-0.6
			c0.4-0.4,0.5-1.1,0.5-2c0-0.9-0.2-1.5-0.5-1.9c-0.4-0.4-0.8-0.6-1.3-0.6c-0.5,0-0.9,0.2-1.3,0.7
			C117.5,105,117.3,105.7,117.3,106.5z"/>
		<path d="M127.7,107.7l1.2,0.1c-0.2,0.7-0.5,1.2-1,1.6s-1.1,0.6-1.9,0.6c-1,0-1.8-0.3-2.3-0.9c-0.6-0.6-0.9-1.5-0.9-2.6
			c0-1.1,0.3-2,0.9-2.6s1.3-0.9,2.3-0.9c0.9,0,1.6,0.3,2.2,0.9c0.6,0.6,0.9,1.5,0.9,2.6c0,0.1,0,0.2,0,0.3h-5c0,0.7,0.3,1.3,0.6,1.7
			c0.4,0.4,0.8,0.6,1.4,0.6c0.4,0,0.8-0.1,1.1-0.3S127.5,108.2,127.7,107.7z M123.9,105.8h3.8c-0.1-0.6-0.2-1-0.4-1.3
			c-0.4-0.4-0.8-0.7-1.4-0.7c-0.5,0-1,0.2-1.3,0.5C124.2,104.8,124,105.2,123.9,105.8z"/>
		<path d="M134.3,109.9V109c-0.4,0.7-1.1,1-1.9,1c-0.5,0-1-0.1-1.5-0.4c-0.5-0.3-0.8-0.7-1-1.2c-0.2-0.5-0.4-1.1-0.4-1.8
			c0-0.7,0.1-1.3,0.3-1.8s0.6-1,1-1.3c0.4-0.3,1-0.4,1.5-0.4c0.4,0,0.8,0.1,1.1,0.3c0.3,0.2,0.6,0.4,0.8,0.7v-3.3h1.1v9.3H134.3z
			 M130.7,106.5c0,0.9,0.2,1.5,0.5,1.9c0.4,0.4,0.8,0.6,1.3,0.6c0.5,0,0.9-0.2,1.3-0.6c0.3-0.4,0.5-1,0.5-1.9c0-0.9-0.2-1.6-0.5-2
			s-0.8-0.6-1.3-0.6c-0.5,0-0.9,0.2-1.3,0.6C130.8,104.9,130.7,105.6,130.7,106.5z"/>
		<path d="M136.8,101.9v-1.3h1.1v1.3H136.8z M136.8,109.9v-6.7h1.1v6.7H136.8z"/>
		<path d="M143.6,109.9V109c-0.4,0.7-1.1,1-1.9,1c-0.5,0-1-0.1-1.5-0.4c-0.5-0.3-0.8-0.7-1-1.2c-0.2-0.5-0.4-1.1-0.4-1.8
			c0-0.7,0.1-1.3,0.3-1.8s0.6-1,1-1.3c0.4-0.3,1-0.4,1.5-0.4c0.4,0,0.8,0.1,1.1,0.3c0.3,0.2,0.6,0.4,0.8,0.7v-3.3h1.1v9.3H143.6z
			 M140,106.5c0,0.9,0.2,1.5,0.5,1.9c0.4,0.4,0.8,0.6,1.3,0.6c0.5,0,0.9-0.2,1.3-0.6c0.3-0.4,0.5-1,0.5-1.9c0-0.9-0.2-1.6-0.5-2
			s-0.8-0.6-1.3-0.6c-0.5,0-0.9,0.2-1.3,0.6C140.2,104.9,140,105.6,140,106.5z"/>
		<path d="M145.7,106.5c0-1.2,0.3-2.2,1-2.8c0.6-0.5,1.3-0.7,2.1-0.7c0.9,0,1.7,0.3,2.3,0.9s0.9,1.4,0.9,2.5c0,0.9-0.1,1.5-0.4,2
			c-0.3,0.5-0.6,0.9-1.1,1.2c-0.5,0.3-1,0.4-1.6,0.4c-0.9,0-1.7-0.3-2.3-0.9C146,108.5,145.7,107.6,145.7,106.5z M146.8,106.5
			c0,0.9,0.2,1.5,0.6,1.9s0.9,0.6,1.4,0.6c0.6,0,1-0.2,1.4-0.6s0.6-1.1,0.6-2c0-0.8-0.2-1.5-0.6-1.9c-0.4-0.4-0.8-0.6-1.4-0.6
			c-0.6,0-1,0.2-1.4,0.6S146.8,105.6,146.8,106.5z"/>
	</g>
	<g>
		<g class="st6">
			<path class="st7" d="M256.8,95.6c0-0.2,0-0.4,0-0.5c0-0.6,0.1-1.2,0.3-1.6c0.1-0.3,0.3-0.7,0.6-1c0.2-0.3,0.6-0.6,1.1-1.1
				c0.5-0.5,0.9-0.9,1.1-1.2s0.2-0.6,0.2-0.9c0-0.6-0.2-1.2-0.7-1.6c-0.5-0.5-1.1-0.7-1.8-0.7c-0.7,0-1.2,0.2-1.7,0.6
				s-0.7,1.1-0.9,2l-1.6-0.2c0.1-1.2,0.6-2.1,1.3-2.8s1.7-1,2.9-1c1.3,0,2.3,0.3,3,1s1.1,1.5,1.1,2.5c0,0.6-0.1,1.1-0.4,1.6
				s-0.8,1.1-1.5,1.7c-0.5,0.5-0.9,0.8-1,1s-0.3,0.5-0.4,0.7s-0.1,0.7-0.1,1.4H256.8z M256.7,98.7v-1.8h1.8v1.8H256.7z"/>
		</g>
	</g>
</g>
<g id="Layer_3" class="st8">
	<image style="display:inline;overflow:visible;" width="420" height="180" xlink:href="31227E64.jpg" >
	</image>
</g>
</svg>
