<svg xmlns="http://www.w3.org/2000/svg" viewBox="0 0 438.41 191.93"><defs><style>.cls-1,.cls-2,.cls-3{fill:#fff;}.cls-12,.cls-2,.cls-3,.cls-5{stroke:#000;}.cls-2{stroke-width:0.5px;}.cls-3{stroke-width:0.54px;}.cls-4{fill:#8fd6ff;}.cls-5{stroke-linejoin:round;stroke-width:0.63px;}.cls-10,.cls-6,.cls-7,.cls-8{isolation:isolate;}.cls-7{font-size:17.5px;fill:#e10000;}.cls-10,.cls-7,.cls-8{font-family:Helvetica-Light, Helvetica;}.cls-10,.cls-8{font-size:12.5px;}.cls-8{letter-spacing:-0.09em;}.cls-9{letter-spacing:0em;}.cls-11{letter-spacing:-0.02em;}.cls-12{fill:none;stroke-miterlimit:10;}</style></defs><title>OJ103514686</title><g id="Shapes"><g id="layer6"><rect id="rect9544" class="cls-1" width="438.41" height="191.93"/></g><g id="layer1"><g id="g9517"><circle id="path9108" class="cls-2" cx="46.86" cy="88.29" r="33.34"/><circle id="circle9116" class="cls-2" cx="385.26" cy="141.32" r="33.34"/><g id="g9126"><circle id="circle9114" class="cls-2" cx="383.24" cy="44.35" r="33.34"/></g><g id="g9151"><rect id="rect9131" class="cls-3" x="170.91" y="33.26" width="86.83" height="110.07"/><rect id="rect9142" class="cls-4" x="171.55" y="87.6" width="85.54" height="18.07"/></g><path id="path5424" class="cls-5" d="M149.84,85.41l12,4.42-12,4.42A7.52,7.52,0,0,0,149.84,85.41Z" transform="translate(6.06 2.84)"/><path id="path9159" class="cls-5" d="M160.53,89.85" transform="translate(6.06 2.84)"/><path id="path9195" class="cls-5" d="M277.09,86.33l-11.78,2.29,7.49-9.37A7,7,0,0,0,277.09,86.33Z" transform="translate(6.06 2.84)"/><path id="path9185" class="cls-5" d="M266.36,88" transform="translate(6.06 2.84)"/><path id="path9231" class="cls-5" d="M273.25,104.24l-7.94-9L277.18,97A7,7,0,0,0,273.25,104.24Z" transform="translate(6.06 2.84)"/><path id="path9221" class="cls-5" d="M266.41,95.82" transform="translate(6.06 2.84)"/><g id="text9513" class="cls-6"><text class="cls-7" transform="translate(258.49 101.93)">?</text></g></g></g></g><g id="txt"><g id="text9118" class="cls-6"><text class="cls-8" transform="translate(355.08 49)">T<tspan class="cls-9" x="5.8" y="0">rabajo 1</tspan></text></g><g id="text9122" class="cls-6"><text class="cls-8" transform="translate(356.84 145.98)">T<tspan class="cls-9" x="5.8" y="0">rabajo 2</tspan></text></g><g id="text9133" class="cls-6"><text class="cls-10" transform="translate(191.44 48.39)">Pedidos</text></g><g id="text9144" class="cls-6"><text class="cls-10" transform="translate(175.11 100.92)">pedido nยบ 123</text></g><g id="text9181" class="cls-6"><text class="cls-10" transform="translate(84.45 112.69)">C<tspan class="cls-11" x="9.02" y="0">r</tspan><tspan class="cls-9" x="12.96" y="0">ear pedido</tspan></text></g><g id="text9389" class="cls-6"><text class="cls-10" transform="translate(286.98 98.04)">P<tspan class="cls-11" x="7.64" y="0">r</tspan><tspan x="11.57" y="0">ocesar pedidos</tspan></text></g><line class="cls-12" x1="167.92" y1="92.67" x2="84.45" y2="92.67"/><line class="cls-12" x1="271.37" y1="91.46" x2="346.39" y2="46.17"/><line class="cls-12" x1="271.37" y1="98.08" x2="349.91" y2="140.5"/></g></svg>