<svg xmlns="http://www.w3.org/2000/svg" viewBox="0 0 354.29 217.86"><defs><style>.cls-1{fill:#fff;}.cls-2{fill:#0078d7;}.cls-3{fill:#ed9292;}.cls-10,.cls-4,.cls-6,.cls-8,.cls-9{fill:none;}.cls-5{fill:#29354a;}.cls-6,.cls-8{stroke:#313131;}.cls-10,.cls-7,.cls-9{stroke:#000;}.cls-7{stroke-linejoin:round;stroke-width:0.63px;}.cls-8{stroke-width:1.09px;}.cls-10{stroke-miterlimit:10;}.cls-11,.cls-12,.cls-13{isolation:isolate;}.cls-12{font-size:15px;}.cls-12,.cls-13{font-family:Helvetica-Light, Helvetica;}.cls-13{font-size:10px;}</style></defs><title>OJ103514653</title><g id="Shapes"><g id="layer1"><rect id="rect8170" class="cls-1" width="354.29" height="217.86"/></g><g id="layer2"><g id="g8060"><g id="paths"><g id="g55"><path id="path57" class="cls-2" d="M328.13,124.22c-.16-.32-.47-.47-.63-.79a2.24,2.24,0,0,0-.95-.32,2.28,2.28,0,0,0-1.1.32c-.32.16-.47.47-.79.63l-.47.95a3.07,3.07,0,0,0-.16,1.26,3.5,3.5,0,0,0,.16,1.42,2.57,2.57,0,0,0,.47.95.87.87,0,0,0,.79.47,2,2,0,0,0,.95.16,1.18,1.18,0,0,0,.79-.16,2.77,2.77,0,0,0,.79-.63l.47-.95a5.76,5.76,0,0,0,0-2.68l-.32-.63Z"/><path id="path59" class="cls-2" d="M326.08,94.1c-12.62,0-22.71,4.26-22.71,9v42.59c0,4.73,10.25,9.15,22.71,9.15,12.62,0,22.71-4.26,22.71-9V103.25C348.95,98.51,338.69,94.1,326.08,94.1Zm-6.78,35.65a2.24,2.24,0,0,1-.32.95,1.57,1.57,0,0,1-.63.79,3.3,3.3,0,0,1-.95.63,7.33,7.33,0,0,1-1.42.47,6.5,6.5,0,0,1-1.89.16H313a2,2,0,0,1-.95-.16,6.83,6.83,0,0,1-.79-.16.82.82,0,0,1-.63-.32V128.8a3.45,3.45,0,0,0,.79.47c.32.16.47.32.79.47s.63.16.95.32a2,2,0,0,0,.95.16c.32,0,.47,0,.63-.16a.55.55,0,0,0,.32-.16c.16,0,.16-.16.16-.32v-.32a.58.58,0,0,0-.16-.47c-.16-.16-.16-.32-.32-.32-.16-.16-.32-.16-.63-.32s-.47-.16-.79-.32a6.39,6.39,0,0,1-1.42-.79c-.32-.32-.63-.47-.95-.79a1.36,1.36,0,0,1-.47-.95,2.68,2.68,0,0,1-.16-1.1,4.67,4.67,0,0,1,.32-1.58,8.75,8.75,0,0,1,.95-1.26,4.93,4.93,0,0,1,1.58-.79,8,8,0,0,1,2.05-.32h1.1a2,2,0,0,1,.95.16c.32,0,.47.16.79.16s.47.16.63.16v3.15c-.16-.16-.32-.16-.63-.32-.16-.16-.47-.16-.79-.32a1.42,1.42,0,0,0-.79-.16h-.95c-.47,0-.79,0-.95.16-.32.16-.32.32-.32.63,0,.16,0,.32.16.32,0,.16.16.16.32.32s.32.16.47.32.47.16.79.32c.47.16.95.47,1.42.63a6.68,6.68,0,0,1,1.1.79c.32.32.47.63.79.95a3.15,3.15,0,0,1,.32,1.42A1.2,1.2,0,0,0,319.29,129.74Zm9.31,6-2.68-2.84a9.1,9.1,0,0,1-2.21-.47,7,7,0,0,1-1.73-1.26,5.67,5.67,0,0,1-1.26-1.89,6.54,6.54,0,0,1-.47-2.52,7.37,7.37,0,0,1,.47-2.68A8.94,8.94,0,0,1,322,122a5,5,0,0,1,1.89-1.26,6.54,6.54,0,0,1,2.52-.47,5.27,5.27,0,0,1,2.37.47,5.67,5.67,0,0,1,1.89,1.26,7.93,7.93,0,0,1,1.26,1.89,6.8,6.8,0,0,1,.47,2.68,3.7,3.7,0,0,1-.32,1.89,4.93,4.93,0,0,1-.79,1.58,4.25,4.25,0,0,1-1.1,1.26,11.07,11.07,0,0,1-1.42.95l4.1,3.47H328.6Zm13.56-3.15h-7.89V120.44h3.63v9.31h4.26Zm-16.09-25.24c-9,0-16.25-2.21-16.25-4.89s7.26-4.89,16.25-4.89,16.25,2.21,16.25,4.89S335.07,107.35,326.08,107.35Z"/></g></g><rect id="rect6243" class="cls-3" x="177.6" y="82.06" width="104.61" height="12.86"/><rect id="rect6245" class="cls-3" x="177.36" y="149.92" width="105.34" height="19.29"/><g id="g7468"><path id="path7472" class="cls-4" d="M283.51,89.86V77h25.75v25.75H283.51V89.86Z"/><path id="path7470" class="cls-4" d="M288.47,102.53a1.81,1.81,0,0,1-1-1.13c-.18-.46-.2-1.32-.17-6.46l0-5.93.36-.47a1.87,1.87,0,0,1,1.63-.85l.71-.08.08-3a16.39,16.39,0,0,1,.27-3.56,6.23,6.23,0,0,1,5.09-3.93A6.51,6.51,0,0,1,302.66,81a16.85,16.85,0,0,1,.27,3.56l.08,3,.71.08a1.87,1.87,0,0,1,1.63.85l.36.47,0,5.93c0,6.66,0,6.71-.84,7.38l-.46.35-7.8,0c-6.89,0-7.84,0-8.18-.17Zm9.65-4a16.86,16.86,0,0,0-.25-1.88l-.24-1.36.44-.55a1.55,1.55,0,0,0,.44-1.3,1.68,1.68,0,0,0-.27-1.11,2,2,0,0,0-3.45,0,1.68,1.68,0,0,0-.27,1.11,1.53,1.53,0,0,0,.42,1.27,2,2,0,0,1,.42.73c0,.12-.12.89-.28,1.73a7.88,7.88,0,0,0-.2,1.73c.07.19.29.21,1.66.18l1.58,0v-.51Zm2-13.58c0-1.45,0-2.83,0-3.06-.25-1.38-2.48-2.46-4.34-2.09a3.49,3.49,0,0,0-2,1c-.77.73-.79.83-.79,3.92a25.55,25.55,0,0,0,.09,2.9s1.66.07,3.57.05l3.48,0,0-2.64Z"/></g><g id="g7515"><g id="g7474"><path id="path7476" class="cls-5" d="M286.66,94.19a.81.81,0,0,1-.46-.51,13.6,13.6,0,0,1-.07-2.91l0-2.67.16-.21a.84.84,0,0,1,.73-.38l.32,0,0-1.36a7.38,7.38,0,0,1,.12-1.6,2.8,2.8,0,0,1,2.29-1.77,2.93,2.93,0,0,1,3.24,1.77,7.58,7.58,0,0,1,.12,1.6l0,1.36.32,0a.84.84,0,0,1,.73.38l.16.21,0,2.67c0,3,0,3-.38,3.32l-.21.16h-3.51c-3.1,0-3.53,0-3.68-.08ZM291,92.4a7.59,7.59,0,0,0-.11-.85l-.11-.61.2-.25a.7.7,0,0,0,.2-.58.75.75,0,0,0-.12-.5.92.92,0,0,0-1.55,0,.75.75,0,0,0-.12.5.69.69,0,0,0,.19.57.88.88,0,0,1,.19.33c0,.05-.06.4-.12.78a3.55,3.55,0,0,0-.09.78c0,.08.13.09.75.08l.71,0V92.4Zm.89-6.11c0-.65,0-1.27,0-1.38-.11-.62-1.12-1.11-2-.94a1.57,1.57,0,0,0-.9.43c-.35.33-.36.37-.36,1.76a11.5,11.5,0,0,0,0,1.31s.75,0,1.61,0l1.57,0,0-1.19Z"/></g><path id="path7476-2" class="cls-1" d="M290.27,89.18a1,1,0,0,0-.78.43.76.76,0,0,0-.12.5.69.69,0,0,0,.19.57.89.89,0,0,1,.19.33c0,.05-.06.4-.12.78a3.54,3.54,0,0,0-.09.78c0,.08.13.09.75.08l.71,0V92.4a7.49,7.49,0,0,0-.11-.85l-.11-.61.2-.25a.7.7,0,0,0,.2-.58.76.76,0,0,0-.12-.5,1,1,0,0,0-.78-.43Z"/></g><g id="g7520"><g id="g7522"><path id="path7524" class="cls-5" d="M285.4,165.26a.81.81,0,0,1-.46-.51,13.6,13.6,0,0,1-.07-2.91l0-2.67L285,159a.84.84,0,0,1,.73-.38l.32,0,0-1.36a7.38,7.38,0,0,1,.12-1.6,2.8,2.8,0,0,1,2.29-1.77,2.93,2.93,0,0,1,3.24,1.77,7.58,7.58,0,0,1,.12,1.6l0,1.36.32,0a.84.84,0,0,1,.73.38l.16.21,0,2.67c0,3,0,3-.38,3.32l-.21.16h-3.51c-3.1,0-3.53,0-3.68-.08Zm4.34-1.79a7.59,7.59,0,0,0-.11-.85l-.11-.61.2-.25a.7.7,0,0,0,.2-.58.75.75,0,0,0-.12-.5.92.92,0,0,0-1.55,0,.75.75,0,0,0-.12.5.69.69,0,0,0,.19.57.88.88,0,0,1,.19.33c0,.05-.06.4-.12.78a3.55,3.55,0,0,0-.09.78c0,.08.13.09.75.08l.71,0v-.23Zm.89-6.11c0-.65,0-1.27,0-1.38-.11-.62-1.12-1.11-2-.94a1.57,1.57,0,0,0-.9.43c-.35.33-.36.37-.36,1.76a11.5,11.5,0,0,0,0,1.31s.75,0,1.61,0l1.57,0,0-1.19Z"/></g><path id="path7526" class="cls-1" d="M289,160.26a1,1,0,0,0-.78.43.76.76,0,0,0-.12.5.69.69,0,0,0,.19.57.89.89,0,0,1,.19.33c0,.05-.06.4-.12.78a3.54,3.54,0,0,0-.09.78c0,.08.13.09.75.08l.71,0v-.23a7.49,7.49,0,0,0-.11-.85l-.11-.61.2-.25a.7.7,0,0,0,.2-.58.76.76,0,0,0-.12-.5,1,1,0,0,0-.78-.43Z"/></g><g id="g5342"><circle id="path5124" class="cls-6" cx="44.5" cy="44.9" r="36.37"/><g id="Ibiza_Symbols" data-name="Ibiza Symbols"><g id="g6"><path id="path8" class="cls-2" d="M60.9,27.65H27.8a2.09,2.09,0,0,0-2,2.1v23.1a2.09,2.09,0,0,0,2,2.1H39.1c1.2,4.3-.4,4.9-7.6,4.9v2.3H55.9v-2.3c-7.2,0-7.9-.6-6.7-4.9H60.9a2.37,2.37,0,0,0,2.3-2.1V29.75A2.37,2.37,0,0,0,60.9,27.65Zm-.6,2.8v21.6H28.6V30.45Z"/><g id="group975-1984"><g id="shape976-1985"><path id="path16" class="cls-2" d="M49.88,37.27,44.08,34l-5.8,3.3v.1l5.8,3.3,5.8-3.4h0Z"/></g><g id="shape977-1987"><path id="path21" class="cls-2" d="M44.71,41.62v6.6l5.8-3.3v-6.6Z"/></g><g id="shape978-1989"><path id="path26" class="cls-2" d="M43.51,41.62l-5.8-3.3v6.6l5.8,3.3Z"/></g></g></g></g></g><g id="g5377"><g id="g5360"><circle id="path5124-6" class="cls-6" cx="44.5" cy="156.53" r="36.37"/><g id="g5199"><g id="g5201"><path id="path5203" class="cls-2" d="M60.9,139.28H27.8a2.09,2.09,0,0,0-2,2.1v23.1a2.09,2.09,0,0,0,2,2.1H39.1c1.2,4.3-.4,4.9-7.6,4.9v2.3H55.9v-2.3c-7.2,0-7.9-.6-6.7-4.9H60.9a2.37,2.37,0,0,0,2.3-2.1v-23.1A2.37,2.37,0,0,0,60.9,139.28Zm-.6,2.8v21.6H28.6v-21.6Z"/><g id="g5205"><g id="g5209"><path id="path5213" class="cls-2" d="M49.88,148.89l-5.8-3.3-5.8,3.3v.1l5.8,3.3,5.8-3.4h0Z"/></g><g id="g5215"><path id="path5219" class="cls-2" d="M44.71,153.25v6.6l5.8-3.3v-6.6Z"/></g><g id="g5221"><path id="path5225" class="cls-2" d="M43.51,153.25l-5.8-3.3v6.6l5.8,3.3Z"/></g></g></g></g></g></g><path id="path5424" class="cls-7" d="M162.16,80.49,171.72,89l-12.8-.29A7.52,7.52,0,0,0,162.16,80.49Z"/><path id="path5397" class="cls-7" d="M170.48,88.53"/><path id="path5689" class="cls-7" d="M160.83,153l12,4.36-12,4.48A7.52,7.52,0,0,0,160.83,153Z"/><path id="path5685" class="cls-7" d="M171.54,157.42"/><rect id="rect6099" class="cls-6" x="177.94" y="61.07" width="104.81" height="49.5"/><rect id="rect6105" class="cls-8" x="177.98" y="129.68" width="104.72" height="58.69"/><path id="path7998" class="cls-9" d="M232.34,111.34v17.94"/></g></g><line class="cls-10" x1="170.48" y1="88.53" x2="83.67" y2="51.33"/><line class="cls-10" x1="171.54" y1="157.42" x2="83.67" y2="157.42"/></g><g id="txt"><g id="text5999" class="cls-11"><text class="cls-12" transform="translate(105.24 54.58)">Actualizar</text></g><g id="text6101" class="cls-11"><text class="cls-13" transform="translate(211.88 72.77)">Pedidos</text></g><g id="text6107" class="cls-11"><text class="cls-13" transform="translate(179.92 142.77)">Elementos de pedidos</text></g><g id="text7990" class="cls-11"><text class="cls-12" transform="translate(90.75 146.96)">Actualizar</text><text class="cls-12" transform="translate(83.67 184.46)">(bloqueado)</text></g><g id="text8292" class="cls-11"><text class="cls-12" transform="translate(17.86 98.58)">Nodo 1</text></g><g id="text8296" class="cls-11"><text class="cls-12" transform="translate(17.55 211.44)">Nodo 2</text></g></g></svg>