<?xml version="1.0" encoding="utf-8"?>
<!-- Generator: Adobe Illustrator 22.0.1, SVG Export Plug-In . SVG Version: 6.00 Build 0)  -->
<svg version="1.1" xmlns="http://www.w3.org/2000/svg" xmlns:xlink="http://www.w3.org/1999/xlink" x="0px" y="0px"
	 viewBox="0 0 354.3 217.9" style="enable-background:new 0 0 354.3 217.9;" xml:space="preserve">
<style type="text/css">
	.st0{fill:#FFFFFF;}
	.st1{fill:#0078D7;}
	.st2{fill:#ED9292;}
	.st3{fill:none;}
	.st4{fill:#29354A;}
	.st5{fill:none;stroke:#313131;}
	.st6{stroke:#000000;stroke-width:0.625;stroke-linejoin:round;}
	.st7{fill:none;stroke:#313131;stroke-width:1.0884;}
	.st8{fill:none;stroke:#000000;}
	.st9{fill:none;stroke:#000000;stroke-width:0.625;stroke-linejoin:round;}
	.st10{display:none;}
</style>
<g id="svg2" inkscape:version="0.91 r13725" sodipodi:docname="database-lock.svg" xmlns:cc="http://creativecommons.org/ns#" xmlns:dc="http://purl.org/dc/elements/1.1/" xmlns:inkscape="http://www.inkscape.org/namespaces/inkscape" xmlns:rdf="http://www.w3.org/1999/02/22-rdf-syntax-ns#" xmlns:sodipodi="http://sodipodi.sourceforge.net/DTD/sodipodi-0.dtd" xmlns:svg="http://www.w3.org/2000/svg">
	<g id="layer1" transform="translate(-41.854622,-629.40924)" inkscape:groupmode="layer" inkscape:label="Layer 1">
		<rect id="rect8170" x="41.9" y="629.4" class="st0" width="354.3" height="217.9"/>
	</g>
	<g id="layer2" transform="translate(-41.854622,-57.047085)" inkscape:groupmode="layer" inkscape:label="VMs">
		<g id="g8060" transform="translate(5.4953999,-7.3235531)">
			<g id="paths" transform="matrix(1.57723,0,0,1.57723,230.98892,98.69099)">
				<g id="g55">
					<path id="path57" inkscape:connector-curvature="0" class="st1" d="M78.3,57c-0.1-0.2-0.3-0.3-0.4-0.5
						c-0.2-0.1-0.4-0.2-0.6-0.2c-0.3,0-0.5,0.1-0.7,0.2c-0.2,0.1-0.3,0.3-0.5,0.4c-0.1,0.2-0.2,0.4-0.3,0.6
						c-0.1,0.2-0.1,0.5-0.1,0.8c0,0.4,0,0.7,0.1,0.9c0.1,0.3,0.2,0.5,0.3,0.6c0.1,0.2,0.3,0.3,0.5,0.3c0.2,0.1,0.4,0.1,0.6,0.1
						s0.4,0,0.5-0.1c0.2-0.1,0.3-0.2,0.5-0.4c0.1-0.2,0.2-0.4,0.3-0.6c0.1-0.2,0.1-0.5,0.1-0.9c0-0.3,0-0.5-0.1-0.8
						C78.5,57.4,78.4,57.2,78.3,57L78.3,57z"/>
					<path id="path59" inkscape:connector-curvature="0" class="st1" d="M77,37.9c-8,0-14.4,2.7-14.4,5.7v27c0,3,6.5,5.8,14.4,5.8
						c8,0,14.4-2.7,14.4-5.7v-27C91.5,40.7,85,37.9,77,37.9z M72.7,60.5c0,0.2-0.1,0.4-0.2,0.6c-0.1,0.2-0.2,0.4-0.4,0.5
						c-0.2,0.2-0.4,0.3-0.6,0.4c-0.2,0.1-0.5,0.2-0.9,0.3c-0.3,0.1-0.7,0.1-1.2,0.1c-0.2,0-0.5,0-0.7,0s-0.4,0-0.6-0.1
						c-0.2,0-0.4-0.1-0.5-0.1c-0.2,0-0.3-0.1-0.4-0.2v-2.1c0.1,0.1,0.3,0.2,0.5,0.3s0.3,0.2,0.5,0.3s0.4,0.1,0.6,0.2
						c0.2,0.1,0.4,0.1,0.6,0.1s0.3,0,0.4-0.1c0.1,0,0.2-0.1,0.2-0.1c0.1,0,0.1-0.1,0.1-0.2c0-0.1,0-0.1,0-0.2c0-0.1,0-0.2-0.1-0.3
						s-0.1-0.2-0.2-0.2c-0.1-0.1-0.2-0.1-0.4-0.2c-0.2-0.1-0.3-0.1-0.5-0.2c-0.3-0.1-0.6-0.3-0.9-0.5c-0.2-0.2-0.4-0.3-0.6-0.5
						s-0.3-0.4-0.3-0.6C67,57.5,67,57.2,67,57c0-0.4,0.1-0.7,0.2-1c0.2-0.3,0.4-0.6,0.6-0.8c0.3-0.2,0.6-0.4,1-0.5s0.8-0.2,1.3-0.2
						c0.3,0,0.5,0,0.7,0s0.4,0,0.6,0.1c0.2,0,0.3,0.1,0.5,0.1s0.3,0.1,0.4,0.1v2c-0.1-0.1-0.2-0.1-0.4-0.2c-0.1-0.1-0.3-0.1-0.5-0.2
						c-0.2-0.1-0.3-0.1-0.5-0.1s-0.4,0-0.6,0c-0.3,0-0.5,0-0.6,0.1c-0.2,0.1-0.2,0.2-0.2,0.4c0,0.1,0,0.2,0.1,0.2
						c0,0.1,0.1,0.1,0.2,0.2c0.1,0.1,0.2,0.1,0.3,0.2c0.1,0.1,0.3,0.1,0.5,0.2c0.3,0.1,0.6,0.3,0.9,0.4c0.3,0.2,0.5,0.3,0.7,0.5
						s0.3,0.4,0.5,0.6c0.1,0.2,0.2,0.5,0.2,0.9C72.8,60.1,72.7,60.3,72.7,60.5z M78.6,64.3l-1.7-1.8c-0.5,0-1-0.2-1.4-0.3
						c-0.4-0.2-0.8-0.5-1.1-0.8c-0.3-0.3-0.6-0.7-0.8-1.2c-0.2-0.5-0.3-1-0.3-1.6s0.1-1.2,0.3-1.7c0.2-0.5,0.5-0.9,0.8-1.3
						c0.3-0.4,0.8-0.6,1.2-0.8c0.5-0.2,1-0.3,1.6-0.3s1.1,0.1,1.5,0.3c0.5,0.2,0.9,0.5,1.2,0.8c0.3,0.3,0.6,0.8,0.8,1.2
						c0.2,0.5,0.3,1,0.3,1.7c0,0.4,0,0.9-0.2,1.2c-0.1,0.4-0.3,0.7-0.5,1s-0.4,0.6-0.7,0.8c-0.3,0.2-0.5,0.4-0.9,0.6l2.6,2.2H78.6
						L78.6,64.3z M87.2,62.3h-5v-7.7h2.3v5.9h2.7V62.3z M77,46.3c-5.7,0-10.3-1.4-10.3-3.1c0-1.7,4.6-3.1,10.3-3.1
						c5.7,0,10.3,1.4,10.3,3.1C87.3,44.9,82.7,46.3,77,46.3z"/>
				</g>
			</g>
			<rect id="rect6243" x="201.8" y="146.4" class="st2" width="111.1" height="12.9"/>
			<rect id="rect6245" x="201.4" y="214.3" class="st2" width="112.1" height="19.3"/>
			<g id="g7468">
				<path id="path7472" inkscape:connector-curvature="0" class="st3" d="M309.9,154.2v-12.9h12.9h12.9v12.9v12.9h-12.9h-12.9V154.2
					L309.9,154.2z"/>
				<path id="path7470" inkscape:connector-curvature="0" class="st3" d="M314.8,166.9c-0.6-0.3-0.8-0.6-1-1.1s-0.2-1.3-0.2-6.5
					v-5.9l0.4-0.5c0.5-0.6,0.8-0.8,1.6-0.8l0.7-0.1l0.1-3c0.1-2.2,0.1-3.2,0.3-3.6c0.8-2.1,2.7-3.6,5.1-3.9c3.2-0.5,6.2,1.2,7.2,3.9
					c0.1,0.4,0.2,1.4,0.3,3.6l0.1,3l0.7,0.1c0.9,0.1,1.2,0.2,1.6,0.8l0.4,0.5v5.9c0,6.7,0,6.7-0.8,7.4l-0.5,0.4H323
					C316.1,167.1,315.2,167.1,314.8,166.9L314.8,166.9z M324.5,162.9c0-0.3-0.1-1.1-0.2-1.9l-0.2-1.4l0.4-0.5
					c0.4-0.5,0.4-0.6,0.4-1.3c0-0.6-0.1-0.8-0.3-1.1c-0.9-1.3-2.5-1.3-3.5,0c-0.2,0.3-0.3,0.6-0.3,1.1c0,0.7,0.1,0.8,0.4,1.3
					c0.2,0.3,0.4,0.6,0.4,0.7s-0.1,0.9-0.3,1.7s-0.2,1.6-0.2,1.7c0.1,0.2,0.3,0.2,1.7,0.2h1.6L324.5,162.9L324.5,162.9z
					 M326.5,149.3c0-1.5,0-2.8,0-3.1c-0.3-1.4-2.5-2.5-4.3-2.1c-1,0.2-1.4,0.4-2,1c-0.8,0.7-0.8,0.8-0.8,3.9c0,1.5,0,2.9,0.1,2.9
					c0,0,1.7,0.1,3.6,0.1h3.5L326.5,149.3L326.5,149.3z"/>
			</g>
			<g id="g7515" transform="translate(-7.213203,-0.01663144)">
				<g id="g7474" transform="matrix(0.45003489,0,0,0.45003489,177.30552,82.501783)">
					<path id="path7476" inkscape:connector-curvature="0" class="st4" d="M328.7,169c-0.6-0.3-0.8-0.6-1-1.1s-0.2-1.3-0.2-6.5v-5.9
						l0.4-0.5c0.5-0.6,0.8-0.8,1.6-0.8l0.7-0.1l0.1-3c0.1-2.2,0.1-3.2,0.3-3.6c0.8-2.1,2.7-3.6,5.1-3.9c3.2-0.5,6.2,1.2,7.2,3.9
						c0.1,0.4,0.2,1.4,0.3,3.6l0.1,3l0.7,0.1c0.9,0.1,1.2,0.2,1.6,0.8l0.4,0.5v5.9c0,6.7,0,6.7-0.8,7.4l-0.5,0.4h-7.8
						C330,169.2,329,169.2,328.7,169L328.7,169z M338.3,165.1c0-0.3-0.1-1.1-0.2-1.9l-0.2-1.4l0.4-0.5c0.4-0.5,0.4-0.6,0.4-1.3
						c0-0.6-0.1-0.8-0.3-1.1c-0.9-1.3-2.5-1.3-3.5,0c-0.2,0.3-0.3,0.6-0.3,1.1c0,0.7,0.1,0.8,0.4,1.3c0.2,0.3,0.4,0.6,0.4,0.7
						s-0.1,0.9-0.3,1.7s-0.2,1.6-0.2,1.7c0.1,0.2,0.3,0.2,1.7,0.2h1.6L338.3,165.1L338.3,165.1z M340.3,151.5c0-1.5,0-2.8,0-3.1
						c-0.3-1.4-2.5-2.5-4.3-2.1c-1,0.2-1.4,0.4-2,1c-0.8,0.7-0.8,0.8-0.8,3.9c0,1.5,0,2.9,0.1,2.9c0,0,1.7,0.1,3.6,0.1h3.5
						L340.3,151.5L340.3,151.5z"/>
				</g>
				<path id="path7476-2" inkscape:connector-curvature="0" class="st0" d="M328.8,153.6c-0.3,0-0.6,0.1-0.8,0.4
					c-0.1,0.1-0.1,0.3-0.1,0.5c0,0.3,0,0.4,0.2,0.6c0.1,0.1,0.2,0.3,0.2,0.3c0,0.1-0.1,0.4-0.1,0.8s-0.1,0.7-0.1,0.8
					s0.1,0.1,0.7,0.1h0.7v-0.2c0-0.1-0.1-0.5-0.1-0.8l-0.1-0.6l0.2-0.2c0.2-0.2,0.2-0.3,0.2-0.6s0-0.4-0.1-0.5
					C329.4,153.7,329.1,153.6,328.8,153.6L328.8,153.6z"/>
			</g>
			<g id="g7520" transform="translate(-8.4758941,71.054809)">
				<g id="g7522" transform="matrix(0.45003489,0,0,0.45003489,177.30552,82.501783)">
					<path id="path7524" inkscape:connector-curvature="0" class="st4" d="M328.7,169c-0.6-0.3-0.8-0.6-1-1.1s-0.2-1.3-0.2-6.5v-5.9
						l0.4-0.5c0.5-0.6,0.8-0.8,1.6-0.8l0.7-0.1l0.1-3c0.1-2.2,0.1-3.2,0.3-3.6c0.8-2.1,2.7-3.6,5.1-3.9c3.2-0.5,6.2,1.2,7.2,3.9
						c0.1,0.4,0.2,1.4,0.3,3.6l0.1,3l0.7,0.1c0.9,0.1,1.2,0.2,1.6,0.8l0.4,0.5v5.9c0,6.7,0,6.7-0.8,7.4l-0.5,0.4h-7.8
						C330,169.2,329,169.2,328.7,169L328.7,169z M338.3,165.1c0-0.3-0.1-1.1-0.2-1.9l-0.2-1.4l0.4-0.5c0.4-0.5,0.4-0.6,0.4-1.3
						c0-0.6-0.1-0.8-0.3-1.1c-0.9-1.3-2.5-1.3-3.5,0c-0.2,0.3-0.3,0.6-0.3,1.1c0,0.7,0.1,0.8,0.4,1.3c0.2,0.3,0.4,0.6,0.4,0.7
						s-0.1,0.9-0.3,1.7s-0.2,1.6-0.2,1.7c0.1,0.2,0.3,0.2,1.7,0.2h1.6L338.3,165.1L338.3,165.1z M340.3,151.5c0-1.5,0-2.8,0-3.1
						c-0.3-1.4-2.5-2.5-4.3-2.1c-1,0.2-1.4,0.4-2,1c-0.8,0.7-0.8,0.8-0.8,3.9c0,1.5,0,2.9,0.1,2.9c0,0,1.7,0.1,3.6,0.1h3.5
						L340.3,151.5L340.3,151.5z"/>
				</g>
				<path id="path7526" inkscape:connector-curvature="0" class="st0" d="M328.8,153.6c-0.3,0-0.6,0.1-0.8,0.4
					c-0.1,0.1-0.1,0.3-0.1,0.5c0,0.3,0,0.4,0.2,0.6c0.1,0.1,0.2,0.3,0.2,0.3c0,0.1-0.1,0.4-0.1,0.8s-0.1,0.7-0.1,0.8
					s0.1,0.1,0.7,0.1h0.7v-0.2c0-0.1-0.1-0.5-0.1-0.8l-0.1-0.6l0.2-0.2c0.2-0.2,0.2-0.3,0.2-0.6s0-0.4-0.1-0.5
					C329.4,153.7,329.1,153.6,328.8,153.6L328.8,153.6z"/>
			</g>
			<g id="g5342">
				<ellipse id="path5124" class="st5" cx="85.9" cy="109.3" rx="36.4" ry="36.4"/>
				<g id="Ibiza_Symbols" transform="translate(-28.737032,20.324009)">
					<g id="g6">
						<path id="path8" inkscape:connector-curvature="0" class="st1" d="M131,71.7H97.9c-1.1,0-2,1-2,2.1v23.1c0,1.1,0.9,2.1,2,2.1
							h11.3c1.2,4.3-0.4,4.9-7.6,4.9v2.3h9.1h6.7h8.6v-2.3c-7.2,0-7.9-0.6-6.7-4.9H131c1.1,0,2.3-1,2.3-2.1V73.8
							C133.3,72.7,132.1,71.7,131,71.7z M130.4,74.5v21.6H98.7V74.5H130.4L130.4,74.5z"/>
						<g id="group975-1984_1_" transform="translate(1176.51,-2762.63)">
							<g id="shape976-1985_2_" transform="translate(0.8685,-17.652)">
								<path id="path16" inkscape:connector-curvature="0" class="st1" d="M-1057.4,2861.6l-5.8-3.3l-5.8,3.3v0.1l5.8,3.3
									L-1057.4,2861.6L-1057.4,2861.6L-1057.4,2861.6z"/>
							</g>
							<g id="shape977-1987_1_" transform="translate(15.8925,0)">
								<path id="path21" inkscape:connector-curvature="0" class="st1" d="M-1077.6,2848.3v6.6l5.8-3.3v-6.6L-1077.6,2848.3z"/>
							</g>
							<g id="shape978-1989_1_">
								<path id="path26" inkscape:connector-curvature="0" class="st1" d="M-1062.9,2848.3l-5.8-3.3v6.6l5.8,3.3V2848.3z"/>
							</g>
						</g>
					</g>
				</g>
			</g>
			<g id="g5377">
				<g id="g5360">
					
						<ellipse id="path5124-6" transform="matrix(0.9985 -5.529871e-02 5.529871e-02 0.9985 -12.0843 5.0883)" class="st5" cx="85.9" cy="220.9" rx="36.4" ry="36.4"/>
					<g id="g5199" transform="translate(-28.737032,131.9459)">
						<g id="g5201">
							<path id="path5203" inkscape:connector-curvature="0" class="st1" d="M131,71.7H97.9c-1.1,0-2,1-2,2.1v23.1
								c0,1.1,0.9,2.1,2,2.1h11.3c1.2,4.3-0.4,4.9-7.6,4.9v2.3h9.1h6.7h8.6v-2.3c-7.2,0-7.9-0.6-6.7-4.9H131c1.1,0,2.3-1,2.3-2.1
								V73.8C133.3,72.7,132.1,71.7,131,71.7z M130.4,74.5v21.6H98.7V74.5H130.4L130.4,74.5z"/>
							<g id="g5205" transform="translate(1176.51,-2762.63)">
								<g id="g5209" transform="translate(0.8685,-17.652)">
									<path id="path5213" inkscape:connector-curvature="0" class="st1" d="M-1057.4,2861.6l-5.8-3.3l-5.8,3.3v0.1l5.8,3.3
										L-1057.4,2861.6L-1057.4,2861.6L-1057.4,2861.6z"/>
								</g>
								<g id="g5215" transform="translate(15.8925,0)">
									<path id="path5219" inkscape:connector-curvature="0" class="st1" d="M-1077.6,2848.3v6.6l5.8-3.3v-6.6L-1077.6,2848.3z"/>
								</g>
								<g id="g5221">
									<path id="path5225" inkscape:connector-curvature="0" class="st1" d="M-1062.9,2848.3l-5.8-3.3v6.6l5.8,3.3V2848.3z"/>
								</g>
							</g>
						</g>
					</g>
				</g>
			</g>
			<path id="path5424" inkscape:connector-curvature="0" class="st6" d="M189.5,144.9l9.6,8.5l-12.8-0.3
				C189,151.4,190.3,148,189.5,144.9z"/>
			<path id="path5689" inkscape:connector-curvature="0" class="st6" d="M187.2,217.4l12,4.4l-12,4.5
				C189.1,223.6,189.1,220,187.2,217.4z"/>
			<rect id="rect6099" x="202.2" y="125.4" class="st5" width="111.4" height="49.5"/>
			<rect id="rect6105" x="202.2" y="194.1" class="st7" width="111.3" height="58.7"/>
			<path id="path7998" inkscape:connector-curvature="0" sodipodi:nodetypes="cc" class="st8" d="M257.7,174.9v18.7"/>
		</g>
	</g>
</g>
<g id="Layer_3">
	<line class="st9" x1="90.3" y1="51.8" x2="154" y2="85.8"/>
	<path class="st9" d="M154,157.6l-63.7,1L154,157.6z"/>
	<g>
		<path d="M29.9,99.4v-8.6h1.2l4.5,6.7v-6.7h1.1v8.6h-1.2L31,92.6v6.8H29.9z"/>
		<path d="M38.1,96.3c0-1.2,0.3-2,1-2.6c0.5-0.5,1.2-0.7,2-0.7c0.9,0,1.6,0.3,2.1,0.8s0.8,1.3,0.8,2.3c0,0.8-0.1,1.4-0.4,1.9
			s-0.6,0.8-1,1.1s-1,0.4-1.5,0.4c-0.9,0-1.6-0.3-2.1-0.8S38.1,97.3,38.1,96.3z M39.2,96.3c0,0.8,0.2,1.4,0.5,1.8s0.8,0.6,1.3,0.6
			c0.5,0,1-0.2,1.3-0.6s0.5-1,0.5-1.8c0-0.8-0.2-1.4-0.5-1.7s-0.8-0.6-1.3-0.6c-0.5,0-1,0.2-1.3,0.6S39.2,95.5,39.2,96.3z"/>
		<path d="M49.2,99.4v-0.8c-0.4,0.6-1,0.9-1.7,0.9c-0.5,0-1-0.1-1.4-0.4s-0.7-0.7-1-1.1s-0.3-1.1-0.3-1.7c0-0.6,0.1-1.2,0.3-1.7
			s0.5-0.9,0.9-1.2s0.9-0.4,1.4-0.4c0.4,0,0.7,0.1,1,0.2s0.5,0.4,0.7,0.6v-3.1h1v8.6H49.2z M45.8,96.3c0,0.8,0.2,1.4,0.5,1.8
			s0.7,0.6,1.2,0.6c0.5,0,0.9-0.2,1.2-0.6s0.5-1,0.5-1.7c0-0.9-0.2-1.5-0.5-1.9s-0.7-0.6-1.2-0.6c-0.5,0-0.9,0.2-1.2,0.6
			S45.8,95.4,45.8,96.3z"/>
		<path d="M51.4,96.3c0-1.2,0.3-2,1-2.6c0.5-0.5,1.2-0.7,2-0.7c0.9,0,1.6,0.3,2.1,0.8s0.8,1.3,0.8,2.3c0,0.8-0.1,1.4-0.4,1.9
			s-0.6,0.8-1,1.1s-1,0.4-1.5,0.4c-0.9,0-1.6-0.3-2.1-0.8S51.4,97.3,51.4,96.3z M52.5,96.3c0,0.8,0.2,1.4,0.5,1.8s0.8,0.6,1.3,0.6
			c0.5,0,1-0.2,1.3-0.6s0.5-1,0.5-1.8c0-0.8-0.2-1.4-0.5-1.7s-0.8-0.6-1.3-0.6c-0.5,0-1,0.2-1.3,0.6S52.5,95.5,52.5,96.3z"/>
		<path d="M65.5,99.4h-1.1v-6.7c-0.3,0.2-0.6,0.5-1,0.7s-0.8,0.4-1.1,0.5v-1c0.6-0.3,1.1-0.6,1.5-1s0.8-0.8,0.9-1.1h0.7V99.4z"/>
	</g>
	<g>
		<path d="M30.1,211.4v-8.6h1.2l4.5,6.7v-6.7h1.1v8.6h-1.2l-4.5-6.8v6.8H30.1z"/>
		<path d="M38.2,208.3c0-1.2,0.3-2,1-2.6c0.5-0.5,1.2-0.7,2-0.7c0.9,0,1.6,0.3,2.1,0.8s0.8,1.3,0.8,2.3c0,0.8-0.1,1.4-0.4,1.9
			s-0.6,0.8-1,1.1s-1,0.4-1.5,0.4c-0.9,0-1.6-0.3-2.1-0.8S38.2,209.3,38.2,208.3z M39.3,208.3c0,0.8,0.2,1.4,0.5,1.8
			s0.8,0.6,1.3,0.6c0.5,0,1-0.2,1.3-0.6s0.5-1,0.5-1.8c0-0.8-0.2-1.4-0.5-1.7s-0.8-0.6-1.3-0.6c-0.5,0-1,0.2-1.3,0.6
			S39.3,207.5,39.3,208.3z"/>
		<path d="M49.3,211.4v-0.8c-0.4,0.6-1,0.9-1.7,0.9c-0.5,0-1-0.1-1.4-0.4s-0.7-0.7-1-1.1s-0.3-1.1-0.3-1.7c0-0.6,0.1-1.2,0.3-1.7
			s0.5-0.9,0.9-1.2s0.9-0.4,1.4-0.4c0.4,0,0.7,0.1,1,0.2s0.5,0.4,0.7,0.6v-3.1h1v8.6H49.3z M46,208.3c0,0.8,0.2,1.4,0.5,1.8
			s0.7,0.6,1.2,0.6c0.5,0,0.9-0.2,1.2-0.6s0.5-1,0.5-1.7c0-0.9-0.2-1.5-0.5-1.9s-0.7-0.6-1.2-0.6c-0.5,0-0.9,0.2-1.2,0.6
			S46,207.4,46,208.3z"/>
		<path d="M51.6,208.3c0-1.2,0.3-2,1-2.6c0.5-0.5,1.2-0.7,2-0.7c0.9,0,1.6,0.3,2.1,0.8s0.8,1.3,0.8,2.3c0,0.8-0.1,1.4-0.4,1.9
			s-0.6,0.8-1,1.1s-1,0.4-1.5,0.4c-0.9,0-1.6-0.3-2.1-0.8S51.6,209.3,51.6,208.3z M52.6,208.3c0,0.8,0.2,1.4,0.5,1.8
			s0.8,0.6,1.3,0.6c0.5,0,1-0.2,1.3-0.6s0.5-1,0.5-1.8c0-0.8-0.2-1.4-0.5-1.7s-0.8-0.6-1.3-0.6c-0.5,0-1,0.2-1.3,0.6
			S52.6,207.5,52.6,208.3z"/>
		<path d="M67.2,210.4v1h-5.7c0-0.3,0-0.5,0.1-0.7c0.1-0.4,0.4-0.8,0.7-1.1s0.8-0.8,1.4-1.3c0.9-0.8,1.6-1.4,1.9-1.8
			s0.5-0.9,0.5-1.3c0-0.4-0.1-0.8-0.4-1.1s-0.7-0.4-1.2-0.4c-0.5,0-0.9,0.2-1.2,0.5s-0.5,0.7-0.5,1.3l-1.1-0.1
			c0.1-0.8,0.4-1.4,0.8-1.8s1.1-0.6,2-0.6c0.8,0,1.5,0.2,2,0.7s0.7,1,0.7,1.7c0,0.3-0.1,0.7-0.2,1s-0.4,0.7-0.7,1s-0.9,0.9-1.6,1.5
			c-0.6,0.5-1,0.9-1.2,1.1s-0.3,0.4-0.4,0.6H67.2z"/>
	</g>
	<g>
		<path d="M94.9,147.2l3.3-8.6h1.2l3.5,8.6h-1.3l-1-2.6H97l-0.9,2.6H94.9z M97.4,143.7h2.9l-0.9-2.4c-0.3-0.7-0.5-1.3-0.6-1.8
			c-0.1,0.6-0.3,1.1-0.5,1.6L97.4,143.7z"/>
		<path d="M107.6,145l1,0.1c-0.1,0.7-0.4,1.3-0.9,1.7s-1,0.6-1.7,0.6c-0.9,0-1.5-0.3-2.1-0.8s-0.8-1.4-0.8-2.4
			c0-0.7,0.1-1.3,0.3-1.8s0.6-0.9,1-1.1s1-0.4,1.5-0.4c0.7,0,1.2,0.2,1.7,0.5s0.7,0.8,0.8,1.5l-1,0.2c-0.1-0.4-0.3-0.7-0.5-0.9
			s-0.5-0.3-0.9-0.3c-0.5,0-1,0.2-1.3,0.6s-0.5,1-0.5,1.8c0,0.8,0.2,1.4,0.5,1.8s0.7,0.6,1.3,0.6c0.4,0,0.8-0.1,1-0.4
			S107.6,145.5,107.6,145z"/>
		<path d="M111.8,146.3l0.2,0.9c-0.3,0.1-0.6,0.1-0.8,0.1c-0.4,0-0.7-0.1-0.9-0.2s-0.4-0.3-0.4-0.5s-0.1-0.6-0.1-1.2v-3.6h-0.8V141
			h0.8v-1.5l1-0.6v2.2h1.1v0.8h-1.1v3.6c0,0.3,0,0.5,0.1,0.6s0.1,0.2,0.2,0.2s0.2,0.1,0.4,0.1C111.4,146.3,111.6,146.3,111.8,146.3z
			"/>
		<path d="M116.8,147.2v-0.9c-0.5,0.7-1.1,1.1-2,1.1c-0.4,0-0.7-0.1-1-0.2s-0.6-0.3-0.7-0.5s-0.3-0.5-0.3-0.8c0-0.2-0.1-0.5-0.1-1
			V141h1.1v3.5c0,0.6,0,0.9,0.1,1.1c0.1,0.3,0.2,0.5,0.4,0.7s0.5,0.2,0.8,0.2s0.6-0.1,0.9-0.2s0.5-0.4,0.6-0.7s0.2-0.7,0.2-1.2V141
			h1.1v6.2H116.8z"/>
		<path d="M123.3,146.5c-0.4,0.3-0.8,0.6-1.1,0.7s-0.7,0.2-1.2,0.2c-0.7,0-1.2-0.2-1.6-0.5s-0.6-0.8-0.6-1.3c0-0.3,0.1-0.6,0.2-0.8
			s0.3-0.5,0.5-0.6s0.5-0.3,0.8-0.3c0.2-0.1,0.5-0.1,0.9-0.2c0.9-0.1,1.5-0.2,1.9-0.4c0-0.1,0-0.2,0-0.3c0-0.4-0.1-0.7-0.3-0.9
			c-0.3-0.2-0.7-0.4-1.2-0.4c-0.5,0-0.9,0.1-1.1,0.3s-0.4,0.5-0.5,0.9l-1-0.1c0.1-0.4,0.2-0.8,0.5-1.1s0.5-0.5,0.9-0.6
			s0.9-0.2,1.4-0.2c0.5,0,1,0.1,1.3,0.2s0.6,0.3,0.7,0.5s0.3,0.4,0.3,0.7c0,0.2,0.1,0.5,0.1,1v1.4c0,1,0,1.6,0.1,1.9
			s0.1,0.5,0.3,0.7h-1.1C123.4,147,123.3,146.8,123.3,146.5z M123.2,144.1c-0.4,0.2-1,0.3-1.7,0.4c-0.4,0.1-0.7,0.1-0.9,0.2
			s-0.3,0.2-0.4,0.3s-0.1,0.3-0.1,0.5c0,0.3,0.1,0.5,0.3,0.7s0.5,0.3,0.9,0.3c0.4,0,0.8-0.1,1.1-0.3s0.5-0.4,0.7-0.7
			c0.1-0.2,0.2-0.6,0.2-1.1V144.1z"/>
		<path d="M125.8,147.2v-8.6h1.1v8.6H125.8z"/>
		<path d="M128.3,139.9v-1.2h1.1v1.2H128.3z M128.3,147.2V141h1.1v6.2H128.3z"/>
		<path d="M130.3,147.2v-0.9l4-4.5c-0.4,0-0.8,0-1.2,0h-2.5V141h5.1v0.7l-3.4,3.9l-0.7,0.7c0.5,0,0.9-0.1,1.3-0.1h2.9v0.9H130.3z"/>
		<path d="M140.8,146.5c-0.4,0.3-0.8,0.6-1.1,0.7s-0.7,0.2-1.2,0.2c-0.7,0-1.2-0.2-1.6-0.5s-0.6-0.8-0.6-1.3c0-0.3,0.1-0.6,0.2-0.8
			s0.3-0.5,0.5-0.6s0.5-0.3,0.8-0.3c0.2-0.1,0.5-0.1,0.9-0.2c0.9-0.1,1.5-0.2,1.9-0.4c0-0.1,0-0.2,0-0.3c0-0.4-0.1-0.7-0.3-0.9
			c-0.3-0.2-0.7-0.4-1.2-0.4c-0.5,0-0.9,0.1-1.1,0.3s-0.4,0.5-0.5,0.9l-1-0.1c0.1-0.4,0.2-0.8,0.5-1.1s0.5-0.5,0.9-0.6
			s0.9-0.2,1.4-0.2c0.5,0,1,0.1,1.3,0.2s0.6,0.3,0.7,0.5s0.3,0.4,0.3,0.7c0,0.2,0.1,0.5,0.1,1v1.4c0,1,0,1.6,0.1,1.9
			s0.1,0.5,0.3,0.7H141C140.9,147,140.9,146.8,140.8,146.5z M140.7,144.1c-0.4,0.2-1,0.3-1.7,0.4c-0.4,0.1-0.7,0.1-0.9,0.2
			s-0.3,0.2-0.4,0.3s-0.1,0.3-0.1,0.5c0,0.3,0.1,0.5,0.3,0.7s0.5,0.3,0.9,0.3c0.4,0,0.8-0.1,1.1-0.3s0.5-0.4,0.7-0.7
			c0.1-0.2,0.2-0.6,0.2-1.1V144.1z"/>
		<path d="M143.3,147.2V141h0.9v0.9c0.2-0.4,0.5-0.7,0.7-0.9s0.4-0.2,0.7-0.2c0.4,0,0.7,0.1,1.1,0.3l-0.4,1
			c-0.3-0.2-0.5-0.2-0.8-0.2c-0.2,0-0.4,0.1-0.6,0.2s-0.3,0.3-0.4,0.6c-0.1,0.4-0.2,0.8-0.2,1.2v3.3H143.3z"/>
	</g>
	<g>
		<path d="M110.8,59.1l3.3-8.6h1.2l3.5,8.6h-1.3l-1-2.6H113l-0.9,2.6H110.8z M113.3,55.6h2.9l-0.9-2.4c-0.3-0.7-0.5-1.3-0.6-1.8
			c-0.1,0.6-0.3,1.1-0.5,1.6L113.3,55.6z"/>
		<path d="M123.6,56.9l1,0.1c-0.1,0.7-0.4,1.3-0.9,1.7s-1,0.6-1.7,0.6c-0.9,0-1.5-0.3-2.1-0.8s-0.8-1.4-0.8-2.4
			c0-0.7,0.1-1.3,0.3-1.8s0.6-0.9,1-1.1s1-0.4,1.5-0.4c0.7,0,1.2,0.2,1.7,0.5s0.7,0.8,0.8,1.5l-1,0.2c-0.1-0.4-0.3-0.7-0.5-0.9
			s-0.5-0.3-0.9-0.3c-0.5,0-1,0.2-1.3,0.6s-0.5,1-0.5,1.8c0,0.8,0.2,1.4,0.5,1.8s0.7,0.6,1.3,0.6c0.4,0,0.8-0.1,1-0.4
			S123.5,57.4,123.6,56.9z"/>
		<path d="M127.7,58.2l0.2,0.9c-0.3,0.1-0.6,0.1-0.8,0.1c-0.4,0-0.7-0.1-0.9-0.2s-0.4-0.3-0.4-0.5s-0.1-0.6-0.1-1.2v-3.6h-0.8v-0.8
			h0.8v-1.5l1-0.6v2.2h1.1v0.8h-1.1v3.6c0,0.3,0,0.5,0.1,0.6s0.1,0.2,0.2,0.2s0.2,0.1,0.4,0.1C127.3,58.2,127.5,58.2,127.7,58.2z"/>
		<path d="M132.7,59.1v-0.9c-0.5,0.7-1.1,1.1-2,1.1c-0.4,0-0.7-0.1-1-0.2s-0.6-0.3-0.7-0.5s-0.3-0.5-0.3-0.8c0-0.2-0.1-0.5-0.1-1
			v-3.9h1.1v3.5c0,0.6,0,0.9,0.1,1.1c0.1,0.3,0.2,0.5,0.4,0.7s0.5,0.2,0.8,0.2s0.6-0.1,0.9-0.2s0.5-0.4,0.6-0.7s0.2-0.7,0.2-1.2
			v-3.3h1.1v6.2H132.7z"/>
		<path d="M139.2,58.4c-0.4,0.3-0.8,0.6-1.1,0.7s-0.7,0.2-1.2,0.2c-0.7,0-1.2-0.2-1.6-0.5s-0.6-0.8-0.6-1.3c0-0.3,0.1-0.6,0.2-0.8
			s0.3-0.5,0.5-0.6s0.5-0.3,0.8-0.3c0.2-0.1,0.5-0.1,0.9-0.2c0.9-0.1,1.5-0.2,1.9-0.4c0-0.1,0-0.2,0-0.3c0-0.4-0.1-0.7-0.3-0.9
			c-0.3-0.2-0.7-0.4-1.2-0.4c-0.5,0-0.9,0.1-1.1,0.3s-0.4,0.5-0.5,0.9l-1-0.1c0.1-0.4,0.2-0.8,0.5-1.1s0.5-0.5,0.9-0.6
			s0.9-0.2,1.4-0.2c0.5,0,1,0.1,1.3,0.2s0.6,0.3,0.7,0.5s0.3,0.4,0.3,0.7c0,0.2,0.1,0.5,0.1,1v1.4c0,1,0,1.6,0.1,1.9
			s0.1,0.5,0.3,0.7h-1.1C139.3,58.9,139.2,58.7,139.2,58.4z M139.1,56c-0.4,0.2-1,0.3-1.7,0.4c-0.4,0.1-0.7,0.1-0.9,0.2
			s-0.3,0.2-0.4,0.3s-0.1,0.3-0.1,0.5c0,0.3,0.1,0.5,0.3,0.7s0.5,0.3,0.9,0.3c0.4,0,0.8-0.1,1.1-0.3s0.5-0.4,0.7-0.7
			c0.1-0.2,0.2-0.6,0.2-1.1V56z"/>
		<path d="M141.7,59.1v-8.6h1.1v8.6H141.7z"/>
		<path d="M144.3,51.8v-1.2h1.1v1.2H144.3z M144.3,59.1v-6.2h1.1v6.2H144.3z"/>
		<path d="M146.2,59.1v-0.9l4-4.5c-0.4,0-0.8,0-1.2,0h-2.5v-0.9h5.1v0.7l-3.4,3.9l-0.7,0.7c0.5,0,0.9-0.1,1.3-0.1h2.9v0.9H146.2z"/>
		<path d="M156.7,58.4c-0.4,0.3-0.8,0.6-1.1,0.7s-0.7,0.2-1.2,0.2c-0.7,0-1.2-0.2-1.6-0.5s-0.6-0.8-0.6-1.3c0-0.3,0.1-0.6,0.2-0.8
			s0.3-0.5,0.5-0.6s0.5-0.3,0.8-0.3c0.2-0.1,0.5-0.1,0.9-0.2c0.9-0.1,1.5-0.2,1.9-0.4c0-0.1,0-0.2,0-0.3c0-0.4-0.1-0.7-0.3-0.9
			c-0.3-0.2-0.7-0.4-1.2-0.4c-0.5,0-0.9,0.1-1.1,0.3s-0.4,0.5-0.5,0.9l-1-0.1c0.1-0.4,0.2-0.8,0.5-1.1s0.5-0.5,0.9-0.6
			s0.9-0.2,1.4-0.2c0.5,0,1,0.1,1.3,0.2s0.6,0.3,0.7,0.5s0.3,0.4,0.3,0.7c0,0.2,0.1,0.5,0.1,1v1.4c0,1,0,1.6,0.1,1.9
			s0.1,0.5,0.3,0.7h-1.1C156.8,58.9,156.8,58.7,156.7,58.4z M156.6,56c-0.4,0.2-1,0.3-1.7,0.4c-0.4,0.1-0.7,0.1-0.9,0.2
			s-0.3,0.2-0.4,0.3s-0.1,0.3-0.1,0.5c0,0.3,0.1,0.5,0.3,0.7s0.5,0.3,0.9,0.3c0.4,0,0.8-0.1,1.1-0.3s0.5-0.4,0.7-0.7
			c0.1-0.2,0.2-0.6,0.2-1.1V56z"/>
		<path d="M159.2,59.1v-6.2h0.9v0.9c0.2-0.4,0.5-0.7,0.7-0.9s0.4-0.2,0.7-0.2c0.4,0,0.7,0.1,1.1,0.3l-0.4,1
			c-0.3-0.2-0.5-0.2-0.8-0.2c-0.2,0-0.4,0.1-0.6,0.2s-0.3,0.3-0.4,0.6c-0.1,0.4-0.2,0.8-0.2,1.2v3.3H159.2z"/>
	</g>
	<g>
		<path d="M201.4,73.4v-7.9h3c0.5,0,0.9,0,1.2,0.1c0.4,0.1,0.7,0.2,1,0.4c0.3,0.2,0.5,0.4,0.6,0.8s0.2,0.7,0.2,1.1
			c0,0.7-0.2,1.2-0.6,1.7c-0.4,0.5-1.2,0.7-2.3,0.7h-2v3.2H201.4z M202.4,69.3h2c0.7,0,1.2-0.1,1.4-0.4c0.3-0.3,0.4-0.6,0.4-1.1
			c0-0.3-0.1-0.6-0.3-0.8c-0.2-0.2-0.4-0.4-0.7-0.5c-0.2,0-0.5-0.1-1-0.1h-2V69.3z"/>
		<path d="M212.2,71.6l1,0.1c-0.2,0.6-0.4,1-0.9,1.4c-0.4,0.3-1,0.5-1.6,0.5c-0.8,0-1.5-0.3-2-0.8c-0.5-0.5-0.7-1.2-0.7-2.2
			c0-1,0.2-1.7,0.7-2.2s1.1-0.8,1.9-0.8c0.8,0,1.4,0.3,1.9,0.8s0.7,1.2,0.7,2.2c0,0.1,0,0.1,0,0.3H209c0,0.6,0.2,1.1,0.5,1.4
			c0.3,0.3,0.7,0.5,1.2,0.5c0.4,0,0.7-0.1,0.9-0.3C211.9,72.3,212.1,72,212.2,71.6z M209,70h3.2c0-0.5-0.2-0.8-0.4-1.1
			c-0.3-0.4-0.7-0.6-1.2-0.6c-0.4,0-0.8,0.1-1.1,0.4C209.2,69.1,209.1,69.5,209,70z"/>
		<path d="M217.8,73.4v-0.7c-0.4,0.6-0.9,0.8-1.6,0.8c-0.5,0-0.9-0.1-1.3-0.4c-0.4-0.3-0.7-0.6-0.9-1c-0.2-0.4-0.3-1-0.3-1.5
			c0-0.6,0.1-1.1,0.3-1.5c0.2-0.5,0.5-0.8,0.9-1.1c0.4-0.2,0.8-0.4,1.3-0.4c0.3,0,0.7,0.1,0.9,0.2c0.3,0.1,0.5,0.3,0.7,0.6v-2.8h1
			v7.9H217.8z M214.8,70.6c0,0.7,0.2,1.3,0.5,1.6c0.3,0.4,0.7,0.5,1.1,0.5c0.4,0,0.8-0.2,1.1-0.5c0.3-0.3,0.4-0.9,0.4-1.6
			c0-0.8-0.2-1.4-0.5-1.7s-0.7-0.5-1.1-0.5c-0.4,0-0.8,0.2-1.1,0.5S214.8,69.8,214.8,70.6z"/>
		<path d="M220,66.7v-1.1h1v1.1H220z M220,73.4v-5.7h1v5.7H220z"/>
		<path d="M225.8,73.4v-0.7c-0.4,0.6-0.9,0.8-1.6,0.8c-0.5,0-0.9-0.1-1.3-0.4c-0.4-0.3-0.7-0.6-0.9-1c-0.2-0.4-0.3-1-0.3-1.5
			c0-0.6,0.1-1.1,0.3-1.5c0.2-0.5,0.5-0.8,0.9-1.1c0.4-0.2,0.8-0.4,1.3-0.4c0.3,0,0.6,0.1,0.9,0.2c0.3,0.1,0.5,0.3,0.7,0.6v-2.8h1
			v7.9H225.8z M222.8,70.6c0,0.7,0.2,1.3,0.5,1.6c0.3,0.4,0.7,0.5,1.1,0.5c0.4,0,0.8-0.2,1.1-0.5c0.3-0.3,0.4-0.9,0.4-1.6
			c0-0.8-0.2-1.4-0.5-1.7s-0.7-0.5-1.1-0.5c-0.4,0-0.8,0.2-1.1,0.5C222.9,69.3,222.8,69.8,222.8,70.6z"/>
		<path d="M227.6,70.6c0-1.1,0.3-1.8,0.9-2.3c0.5-0.4,1.1-0.6,1.8-0.6c0.8,0,1.4,0.3,1.9,0.8c0.5,0.5,0.7,1.2,0.7,2.1
			c0,0.7-0.1,1.3-0.3,1.7c-0.2,0.4-0.5,0.7-1,1c-0.4,0.2-0.9,0.3-1.4,0.3c-0.8,0-1.4-0.3-1.9-0.8C227.9,72.3,227.6,71.5,227.6,70.6z
			 M228.6,70.6c0,0.7,0.2,1.3,0.5,1.6c0.3,0.4,0.7,0.5,1.2,0.5c0.5,0,0.9-0.2,1.2-0.5c0.3-0.4,0.5-0.9,0.5-1.7
			c0-0.7-0.2-1.2-0.5-1.6c-0.3-0.4-0.7-0.5-1.2-0.5c-0.5,0-0.9,0.2-1.2,0.5C228.8,69.3,228.6,69.9,228.6,70.6z"/>
		<path d="M233.4,71.7l1-0.2c0.1,0.4,0.2,0.7,0.4,0.9c0.2,0.2,0.6,0.3,1,0.3c0.4,0,0.8-0.1,1-0.3s0.3-0.4,0.3-0.6
			c0-0.2-0.1-0.4-0.3-0.5c-0.1-0.1-0.5-0.2-1-0.3c-0.7-0.2-1.2-0.3-1.5-0.5c-0.3-0.1-0.5-0.3-0.6-0.5c-0.1-0.2-0.2-0.5-0.2-0.8
			c0-0.3,0.1-0.5,0.2-0.7c0.1-0.2,0.3-0.4,0.5-0.5c0.2-0.1,0.4-0.2,0.6-0.3c0.3-0.1,0.5-0.1,0.8-0.1c0.4,0,0.8,0.1,1.2,0.2
			c0.3,0.1,0.6,0.3,0.8,0.5c0.2,0.2,0.3,0.5,0.3,0.9l-0.9,0.1c0-0.3-0.2-0.5-0.4-0.7c-0.2-0.2-0.5-0.2-0.9-0.2c-0.4,0-0.8,0.1-1,0.2
			c-0.2,0.1-0.3,0.3-0.3,0.5c0,0.1,0,0.2,0.1,0.3c0.1,0.1,0.2,0.2,0.4,0.3c0.1,0,0.4,0.1,0.9,0.2c0.7,0.2,1.2,0.3,1.4,0.4
			c0.3,0.1,0.5,0.3,0.6,0.5c0.2,0.2,0.2,0.5,0.2,0.8c0,0.3-0.1,0.6-0.3,0.9c-0.2,0.3-0.5,0.5-0.8,0.7c-0.4,0.2-0.8,0.2-1.2,0.2
			c-0.7,0-1.3-0.2-1.7-0.5C233.8,72.8,233.6,72.3,233.4,71.7z"/>
	</g>
	<g>
		<path d="M170.1,143.2v-7.9h5.7v0.9h-4.7v2.4h4.4v0.9h-4.4v2.7h4.8v0.9H170.1z"/>
		<path d="M177,143.2v-7.9h1v7.9H177z"/>
		<path d="M183.1,141.4l1,0.1c-0.2,0.6-0.4,1-0.9,1.4c-0.4,0.3-1,0.5-1.6,0.5c-0.8,0-1.5-0.3-2-0.8c-0.5-0.5-0.7-1.2-0.7-2.2
			c0-1,0.2-1.7,0.7-2.2c0.5-0.5,1.1-0.8,1.9-0.8c0.8,0,1.4,0.3,1.9,0.8c0.5,0.5,0.7,1.2,0.7,2.2c0,0.1,0,0.1,0,0.3h-4.3
			c0,0.6,0.2,1.1,0.5,1.4c0.3,0.3,0.7,0.5,1.2,0.5c0.4,0,0.7-0.1,0.9-0.3C182.8,142.1,183,141.8,183.1,141.4z M179.9,139.8h3.2
			c0-0.5-0.2-0.8-0.4-1.1c-0.3-0.4-0.7-0.6-1.2-0.6c-0.4,0-0.8,0.1-1.1,0.4C180.1,138.9,180,139.3,179.9,139.8z"/>
		<path d="M185.1,143.2v-5.7h0.9v0.8c0.2-0.3,0.4-0.5,0.7-0.7c0.3-0.2,0.6-0.3,1-0.3c0.4,0,0.8,0.1,1,0.3c0.3,0.2,0.5,0.4,0.6,0.7
			c0.5-0.7,1-1,1.8-1c0.6,0,1,0.2,1.3,0.5c0.3,0.3,0.5,0.8,0.5,1.4v3.9h-1v-3.6c0-0.4,0-0.7-0.1-0.8c-0.1-0.2-0.2-0.3-0.3-0.4
			c-0.2-0.1-0.4-0.2-0.6-0.2c-0.4,0-0.7,0.1-1,0.4c-0.3,0.3-0.4,0.7-0.4,1.3v3.3h-1v-3.7c0-0.4-0.1-0.8-0.2-1
			c-0.2-0.2-0.4-0.3-0.8-0.3c-0.3,0-0.5,0.1-0.8,0.2c-0.2,0.1-0.4,0.4-0.5,0.6c-0.1,0.3-0.2,0.7-0.2,1.2v3H185.1z"/>
		<path d="M197.8,141.4l1,0.1c-0.2,0.6-0.4,1-0.9,1.4c-0.4,0.3-1,0.5-1.6,0.5c-0.8,0-1.5-0.3-2-0.8c-0.5-0.5-0.7-1.2-0.7-2.2
			c0-1,0.2-1.7,0.7-2.2c0.5-0.5,1.1-0.8,1.9-0.8c0.8,0,1.4,0.3,1.9,0.8c0.5,0.5,0.7,1.2,0.7,2.2c0,0.1,0,0.1,0,0.3h-4.3
			c0,0.6,0.2,1.1,0.5,1.4c0.3,0.3,0.7,0.5,1.2,0.5c0.4,0,0.7-0.1,0.9-0.3C197.5,142.1,197.7,141.8,197.8,141.4z M194.7,139.8h3.2
			c0-0.5-0.2-0.8-0.4-1.1c-0.3-0.4-0.7-0.6-1.2-0.6c-0.4,0-0.8,0.1-1.1,0.4C194.9,138.9,194.7,139.3,194.7,139.8z"/>
		<path d="M199.8,143.2v-5.7h0.9v0.8c0.4-0.6,1-0.9,1.8-0.9c0.3,0,0.7,0.1,0.9,0.2c0.3,0.1,0.5,0.3,0.6,0.5c0.1,0.2,0.2,0.4,0.3,0.7
			c0,0.2,0.1,0.5,0.1,0.9v3.5h-1v-3.5c0-0.4,0-0.7-0.1-0.9c-0.1-0.2-0.2-0.4-0.4-0.5c-0.2-0.1-0.4-0.2-0.7-0.2
			c-0.4,0-0.8,0.1-1.1,0.4c-0.3,0.3-0.4,0.8-0.4,1.5v3.1H199.8z"/>
		<path d="M207.7,142.4l0.1,0.9c-0.3,0.1-0.5,0.1-0.7,0.1c-0.4,0-0.6-0.1-0.8-0.2c-0.2-0.1-0.3-0.3-0.4-0.4
			c-0.1-0.2-0.1-0.6-0.1-1.1v-3.3h-0.7v-0.8h0.7v-1.4l1-0.6v2h1v0.8h-1v3.3c0,0.3,0,0.5,0.1,0.5c0,0.1,0.1,0.1,0.2,0.2
			c0.1,0,0.2,0.1,0.3,0.1C207.4,142.4,207.6,142.4,207.7,142.4z"/>
		<path d="M208.1,140.4c0-1.1,0.3-1.8,0.9-2.3c0.5-0.4,1.1-0.6,1.8-0.6c0.8,0,1.4,0.3,1.9,0.8c0.5,0.5,0.7,1.2,0.7,2.1
			c0,0.7-0.1,1.3-0.3,1.7c-0.2,0.4-0.5,0.7-1,1c-0.4,0.2-0.9,0.3-1.4,0.3c-0.8,0-1.4-0.3-1.9-0.8
			C208.3,142.1,208.1,141.3,208.1,140.4z M209,140.4c0,0.7,0.2,1.3,0.5,1.6c0.3,0.4,0.7,0.5,1.2,0.5c0.5,0,0.9-0.2,1.2-0.5
			c0.3-0.4,0.5-0.9,0.5-1.7c0-0.7-0.2-1.2-0.5-1.6c-0.3-0.4-0.7-0.5-1.2-0.5c-0.5,0-0.9,0.2-1.2,0.5
			C209.2,139.1,209,139.6,209,140.4z"/>
		<path d="M213.9,141.5l1-0.2c0.1,0.4,0.2,0.7,0.4,0.9c0.2,0.2,0.6,0.3,1,0.3c0.4,0,0.8-0.1,1-0.3s0.3-0.4,0.3-0.6
			c0-0.2-0.1-0.4-0.3-0.5c-0.1-0.1-0.5-0.2-1-0.3c-0.7-0.2-1.2-0.3-1.5-0.5c-0.3-0.1-0.5-0.3-0.6-0.5c-0.1-0.2-0.2-0.5-0.2-0.8
			c0-0.3,0.1-0.5,0.2-0.7c0.1-0.2,0.3-0.4,0.5-0.5c0.2-0.1,0.4-0.2,0.6-0.3c0.3-0.1,0.5-0.1,0.8-0.1c0.4,0,0.8,0.1,1.2,0.2
			c0.3,0.1,0.6,0.3,0.8,0.5c0.2,0.2,0.3,0.5,0.3,0.9l-0.9,0.1c0-0.3-0.2-0.5-0.4-0.7c-0.2-0.2-0.5-0.2-0.9-0.2c-0.4,0-0.8,0.1-1,0.2
			c-0.2,0.1-0.3,0.3-0.3,0.5c0,0.1,0,0.2,0.1,0.3c0.1,0.1,0.2,0.2,0.4,0.3c0.1,0,0.4,0.1,0.9,0.2c0.7,0.2,1.2,0.3,1.4,0.4
			c0.3,0.1,0.5,0.3,0.6,0.5c0.2,0.2,0.2,0.5,0.2,0.8c0,0.3-0.1,0.6-0.3,0.9c-0.2,0.3-0.5,0.5-0.8,0.7c-0.4,0.2-0.8,0.2-1.2,0.2
			c-0.7,0-1.3-0.2-1.7-0.5C214.2,142.6,214,142.1,213.9,141.5z"/>
		<path d="M226,143.2v-0.7c-0.4,0.6-0.9,0.8-1.6,0.8c-0.5,0-0.9-0.1-1.3-0.4c-0.4-0.3-0.7-0.6-0.9-1c-0.2-0.4-0.3-1-0.3-1.5
			c0-0.6,0.1-1.1,0.3-1.5c0.2-0.5,0.5-0.8,0.9-1.1c0.4-0.2,0.8-0.4,1.3-0.4c0.3,0,0.7,0.1,0.9,0.2c0.3,0.1,0.5,0.3,0.7,0.6v-2.8h1
			v7.9H226z M222.9,140.4c0,0.7,0.2,1.3,0.5,1.6c0.3,0.4,0.7,0.5,1.1,0.5c0.4,0,0.8-0.2,1.1-0.5c0.3-0.3,0.4-0.9,0.4-1.6
			c0-0.8-0.2-1.4-0.5-1.7s-0.7-0.5-1.1-0.5c-0.4,0-0.8,0.2-1.1,0.5C223,139.1,222.9,139.6,222.9,140.4z"/>
		<path d="M232,141.4l1,0.1c-0.2,0.6-0.4,1-0.9,1.4c-0.4,0.3-1,0.5-1.6,0.5c-0.8,0-1.5-0.3-2-0.8c-0.5-0.5-0.7-1.2-0.7-2.2
			c0-1,0.2-1.7,0.7-2.2c0.5-0.5,1.1-0.8,1.9-0.8c0.8,0,1.4,0.3,1.9,0.8c0.5,0.5,0.7,1.2,0.7,2.2c0,0.1,0,0.1,0,0.3h-4.3
			c0,0.6,0.2,1.1,0.5,1.4c0.3,0.3,0.7,0.5,1.2,0.5c0.4,0,0.7-0.1,0.9-0.3C231.7,142.1,231.9,141.8,232,141.4z M228.8,139.8h3.2
			c0-0.5-0.2-0.8-0.4-1.1c-0.3-0.4-0.7-0.6-1.2-0.6c-0.4,0-0.8,0.1-1.1,0.4C229,138.9,228.9,139.3,228.8,139.8z"/>
		<path d="M236.7,145.4v-7.9h0.9v0.7c0.2-0.3,0.4-0.5,0.7-0.7c0.3-0.1,0.6-0.2,1-0.2c0.5,0,0.9,0.1,1.3,0.4c0.4,0.3,0.7,0.6,0.8,1.1
			c0.2,0.5,0.3,1,0.3,1.5c0,0.6-0.1,1.1-0.3,1.6c-0.2,0.5-0.5,0.8-0.9,1.1s-0.8,0.4-1.3,0.4c-0.3,0-0.6-0.1-0.9-0.2
			s-0.5-0.3-0.6-0.5v2.8H236.7z M237.6,140.4c0,0.7,0.1,1.3,0.4,1.6c0.3,0.4,0.7,0.5,1.1,0.5c0.4,0,0.8-0.2,1.1-0.5
			c0.3-0.4,0.5-0.9,0.5-1.7c0-0.7-0.1-1.3-0.4-1.6c-0.3-0.4-0.7-0.5-1.1-0.5c-0.4,0-0.8,0.2-1.1,0.6
			C237.8,139.1,237.6,139.7,237.6,140.4z"/>
		<path d="M246.5,141.4l1,0.1c-0.2,0.6-0.4,1-0.9,1.4c-0.4,0.3-1,0.5-1.6,0.5c-0.8,0-1.5-0.3-2-0.8c-0.5-0.5-0.7-1.2-0.7-2.2
			c0-1,0.2-1.7,0.7-2.2c0.5-0.5,1.1-0.8,1.9-0.8c0.8,0,1.4,0.3,1.9,0.8c0.5,0.5,0.7,1.2,0.7,2.2c0,0.1,0,0.1,0,0.3h-4.3
			c0,0.6,0.2,1.1,0.5,1.4c0.3,0.3,0.7,0.5,1.2,0.5c0.4,0,0.7-0.1,0.9-0.3C246.1,142.1,246.3,141.8,246.5,141.4z M243.3,139.8h3.2
			c0-0.5-0.2-0.8-0.4-1.1c-0.3-0.4-0.7-0.6-1.2-0.6c-0.4,0-0.8,0.1-1.1,0.4C243.5,138.9,243.3,139.3,243.3,139.8z"/>
		<path d="M252.1,143.2v-0.7c-0.4,0.6-0.9,0.8-1.6,0.8c-0.5,0-0.9-0.1-1.3-0.4c-0.4-0.3-0.7-0.6-0.9-1c-0.2-0.4-0.3-1-0.3-1.5
			c0-0.6,0.1-1.1,0.3-1.5c0.2-0.5,0.5-0.8,0.9-1.1c0.4-0.2,0.8-0.4,1.3-0.4c0.3,0,0.6,0.1,0.9,0.2c0.3,0.1,0.5,0.3,0.7,0.6v-2.8h1
			v7.9H252.1z M249.1,140.4c0,0.7,0.2,1.3,0.5,1.6c0.3,0.4,0.7,0.5,1.1,0.5c0.4,0,0.8-0.2,1.1-0.5c0.3-0.3,0.4-0.9,0.4-1.6
			c0-0.8-0.2-1.4-0.5-1.7s-0.7-0.5-1.1-0.5c-0.4,0-0.8,0.2-1.1,0.5C249.2,139.1,249.1,139.6,249.1,140.4z"/>
		<path d="M254.3,136.5v-1.1h1v1.1H254.3z M254.3,143.2v-5.7h1v5.7H254.3z"/>
		<path d="M260.1,143.2v-0.7c-0.4,0.6-0.9,0.8-1.6,0.8c-0.5,0-0.9-0.1-1.3-0.4c-0.4-0.3-0.7-0.6-0.9-1c-0.2-0.4-0.3-1-0.3-1.5
			c0-0.6,0.1-1.1,0.3-1.5c0.2-0.5,0.5-0.8,0.9-1.1c0.4-0.2,0.8-0.4,1.3-0.4c0.3,0,0.6,0.1,0.9,0.2c0.3,0.1,0.5,0.3,0.7,0.6v-2.8h1
			v7.9H260.1z M257.1,140.4c0,0.7,0.2,1.3,0.5,1.6c0.3,0.4,0.7,0.5,1.1,0.5c0.4,0,0.8-0.2,1.1-0.5c0.3-0.3,0.4-0.9,0.4-1.6
			c0-0.8-0.2-1.4-0.5-1.7s-0.7-0.5-1.1-0.5c-0.4,0-0.8,0.2-1.1,0.5C257.2,139.1,257.1,139.6,257.1,140.4z"/>
		<path d="M261.9,140.4c0-1.1,0.3-1.8,0.9-2.3c0.5-0.4,1.1-0.6,1.8-0.6c0.8,0,1.4,0.3,1.9,0.8c0.5,0.5,0.7,1.2,0.7,2.1
			c0,0.7-0.1,1.3-0.3,1.7c-0.2,0.4-0.5,0.7-1,1c-0.4,0.2-0.9,0.3-1.4,0.3c-0.8,0-1.4-0.3-1.9-0.8
			C262.2,142.1,261.9,141.3,261.9,140.4z M262.9,140.4c0,0.7,0.2,1.3,0.5,1.6c0.3,0.4,0.7,0.5,1.2,0.5c0.5,0,0.9-0.2,1.2-0.5
			c0.3-0.4,0.5-0.9,0.5-1.7c0-0.7-0.2-1.2-0.5-1.6c-0.3-0.4-0.7-0.5-1.2-0.5c-0.5,0-0.9,0.2-1.2,0.5
			C263.1,139.1,262.9,139.6,262.9,140.4z"/>
		<path d="M267.7,141.5l1-0.2c0.1,0.4,0.2,0.7,0.4,0.9c0.2,0.2,0.6,0.3,1,0.3c0.4,0,0.8-0.1,1-0.3s0.3-0.4,0.3-0.6
			c0-0.2-0.1-0.4-0.3-0.5c-0.1-0.1-0.5-0.2-1-0.3c-0.7-0.2-1.2-0.3-1.5-0.5c-0.3-0.1-0.5-0.3-0.6-0.5c-0.1-0.2-0.2-0.5-0.2-0.8
			c0-0.3,0.1-0.5,0.2-0.7s0.3-0.4,0.5-0.5c0.2-0.1,0.4-0.2,0.6-0.3c0.3-0.1,0.5-0.1,0.8-0.1c0.4,0,0.8,0.1,1.2,0.2
			c0.3,0.1,0.6,0.3,0.7,0.5c0.2,0.2,0.3,0.5,0.3,0.9l-0.9,0.1c0-0.3-0.2-0.5-0.4-0.7c-0.2-0.2-0.5-0.2-0.9-0.2c-0.4,0-0.8,0.1-1,0.2
			c-0.2,0.1-0.3,0.3-0.3,0.5c0,0.1,0,0.2,0.1,0.3c0.1,0.1,0.2,0.2,0.4,0.3c0.1,0,0.4,0.1,0.9,0.2c0.7,0.2,1.2,0.3,1.4,0.4
			s0.5,0.3,0.6,0.5c0.2,0.2,0.2,0.5,0.2,0.8c0,0.3-0.1,0.6-0.3,0.9c-0.2,0.3-0.5,0.5-0.8,0.7c-0.4,0.2-0.8,0.2-1.2,0.2
			c-0.7,0-1.3-0.2-1.7-0.5S267.8,142.1,267.7,141.5z"/>
	</g>
	<g>
		<path d="M92.1,187c-0.6-0.7-1.1-1.6-1.5-2.6s-0.6-2-0.6-3.1c0-0.9,0.2-1.8,0.5-2.7c0.4-1,0.9-2,1.6-3h0.8
			c-0.5,0.8-0.8,1.4-0.9,1.7c-0.2,0.5-0.4,1.1-0.6,1.7c-0.2,0.7-0.3,1.5-0.3,2.2c0,1.9,0.6,3.8,1.8,5.6H92.1z"/>
		<path d="M94.9,184.5h-1v-8.6H95v3.1c0.4-0.6,1-0.8,1.7-0.8c0.4,0,0.7,0.1,1.1,0.2s0.6,0.4,0.8,0.7s0.4,0.6,0.5,1s0.2,0.8,0.2,1.3
			c0,1.1-0.3,1.9-0.8,2.5s-1.2,0.9-1.9,0.9c-0.7,0-1.3-0.3-1.7-0.9V184.5z M94.9,181.3c0,0.7,0.1,1.3,0.3,1.6
			c0.3,0.5,0.8,0.8,1.3,0.8c0.5,0,0.9-0.2,1.2-0.6s0.5-1,0.5-1.8c0-0.8-0.2-1.4-0.5-1.8S97,179,96.6,179c-0.5,0-0.9,0.2-1.2,0.6
			S94.9,180.6,94.9,181.3z"/>
		<path d="M100.5,184.5v-8.6h1.1v8.6H100.5z"/>
		<path d="M102.7,181.4c0-1.2,0.3-2,1-2.6c0.5-0.5,1.2-0.7,2-0.7c0.9,0,1.6,0.3,2.1,0.8s0.8,1.3,0.8,2.3c0,0.8-0.1,1.4-0.4,1.9
			s-0.6,0.8-1,1.1s-1,0.4-1.5,0.4c-0.9,0-1.6-0.3-2.1-0.8S102.7,182.4,102.7,181.4z M103.7,181.4c0,0.8,0.2,1.4,0.5,1.8
			s0.8,0.6,1.3,0.6c0.5,0,1-0.2,1.3-0.6s0.5-1,0.5-1.8c0-0.8-0.2-1.4-0.5-1.7s-0.8-0.6-1.3-0.6c-0.5,0-1,0.2-1.3,0.6
			S103.7,180.6,103.7,181.4z"/>
		<path d="M113.6,186.9v-3c-0.2,0.2-0.4,0.4-0.7,0.6s-0.6,0.2-0.9,0.2c-0.7,0-1.4-0.3-1.9-0.9s-0.8-1.4-0.8-2.4
			c0-0.6,0.1-1.2,0.3-1.7s0.5-0.9,0.9-1.1s0.9-0.4,1.4-0.4c0.8,0,1.4,0.3,1.8,1v-0.8h0.9v8.6H113.6z M110.3,181.4
			c0,0.8,0.2,1.4,0.5,1.8s0.7,0.6,1.2,0.6c0.4,0,0.8-0.2,1.2-0.6s0.5-1,0.5-1.7c0-0.8-0.2-1.5-0.5-1.9s-0.7-0.6-1.2-0.6
			c-0.5,0-0.8,0.2-1.2,0.6S110.3,180.5,110.3,181.4z"/>
		<path d="M120.3,184.5v-0.9c-0.5,0.7-1.1,1.1-2,1.1c-0.4,0-0.7-0.1-1-0.2s-0.6-0.3-0.7-0.5s-0.3-0.5-0.3-0.8c0-0.2-0.1-0.5-0.1-1
			v-3.9h1.1v3.5c0,0.6,0,0.9,0.1,1.1c0.1,0.3,0.2,0.5,0.4,0.7s0.5,0.2,0.8,0.2s0.6-0.1,0.9-0.2s0.5-0.4,0.6-0.7s0.2-0.7,0.2-1.2
			v-3.3h1.1v6.2H120.3z"/>
		<path d="M127,182.5l1.1,0.1c-0.2,0.6-0.5,1.1-1,1.5s-1.1,0.5-1.8,0.5c-0.9,0-1.6-0.3-2.2-0.8s-0.8-1.3-0.8-2.4
			c0-1,0.3-1.9,0.8-2.4s1.2-0.9,2.1-0.9c0.8,0,1.5,0.3,2,0.8s0.8,1.4,0.8,2.4c0,0.1,0,0.2,0,0.3h-4.6c0,0.7,0.2,1.2,0.6,1.6
			s0.8,0.5,1.3,0.5c0.4,0,0.7-0.1,1-0.3S126.8,182.9,127,182.5z M123.5,180.8h3.5c0-0.5-0.2-0.9-0.4-1.2c-0.3-0.4-0.8-0.6-1.3-0.6
			c-0.5,0-0.9,0.2-1.2,0.5S123.6,180.2,123.5,180.8z"/>
		<path d="M133.4,183.7c-0.4,0.3-0.8,0.6-1.1,0.7s-0.7,0.2-1.2,0.2c-0.7,0-1.2-0.2-1.6-0.5s-0.6-0.8-0.6-1.3c0-0.3,0.1-0.6,0.2-0.8
			s0.3-0.5,0.5-0.6s0.5-0.3,0.8-0.3c0.2-0.1,0.5-0.1,0.9-0.2c0.9-0.1,1.5-0.2,1.9-0.4c0-0.1,0-0.2,0-0.3c0-0.4-0.1-0.7-0.3-0.9
			c-0.3-0.2-0.7-0.4-1.2-0.4c-0.5,0-0.9,0.1-1.1,0.3s-0.4,0.5-0.5,0.9l-1-0.1c0.1-0.4,0.2-0.8,0.5-1.1s0.5-0.5,0.9-0.6
			s0.9-0.2,1.4-0.2c0.5,0,1,0.1,1.3,0.2s0.6,0.3,0.7,0.5s0.3,0.4,0.3,0.7c0,0.2,0.1,0.5,0.1,1v1.4c0,1,0,1.6,0.1,1.9
			s0.1,0.5,0.3,0.7h-1.1C133.5,184.3,133.4,184,133.4,183.7z M133.3,181.4c-0.4,0.2-1,0.3-1.7,0.4c-0.4,0.1-0.7,0.1-0.9,0.2
			s-0.3,0.2-0.4,0.3s-0.1,0.3-0.1,0.5c0,0.3,0.1,0.5,0.3,0.7s0.5,0.3,0.9,0.3c0.4,0,0.8-0.1,1.1-0.3s0.5-0.4,0.7-0.7
			c0.1-0.2,0.2-0.6,0.2-1.1V181.4z"/>
		<path d="M139.9,184.5v-0.8c-0.4,0.6-1,0.9-1.7,0.9c-0.5,0-1-0.1-1.4-0.4s-0.7-0.7-1-1.1s-0.3-1.1-0.3-1.7c0-0.6,0.1-1.2,0.3-1.7
			s0.5-0.9,0.9-1.2s0.9-0.4,1.4-0.4c0.4,0,0.7,0.1,1,0.2s0.5,0.4,0.7,0.6v-3.1h1v8.6H139.9z M136.6,181.4c0,0.8,0.2,1.4,0.5,1.8
			s0.7,0.6,1.2,0.6c0.5,0,0.9-0.2,1.2-0.6s0.5-1,0.5-1.7c0-0.9-0.2-1.5-0.5-1.9s-0.7-0.6-1.2-0.6c-0.5,0-0.9,0.2-1.2,0.6
			S136.6,180.6,136.6,181.4z"/>
		<path d="M142.1,181.4c0-1.2,0.3-2,1-2.6c0.5-0.5,1.2-0.7,2-0.7c0.9,0,1.6,0.3,2.1,0.8s0.8,1.3,0.8,2.3c0,0.8-0.1,1.4-0.4,1.9
			s-0.6,0.8-1,1.1s-1,0.4-1.5,0.4c-0.9,0-1.6-0.3-2.1-0.8S142.1,182.4,142.1,181.4z M143.1,181.4c0,0.8,0.2,1.4,0.5,1.8
			s0.8,0.6,1.3,0.6c0.5,0,1-0.2,1.3-0.6s0.5-1,0.5-1.8c0-0.8-0.2-1.4-0.5-1.7s-0.8-0.6-1.3-0.6c-0.5,0-1,0.2-1.3,0.6
			S143.1,180.6,143.1,181.4z"/>
		<path d="M149.7,187h-0.8c1.2-1.9,1.8-3.8,1.8-5.6c0-0.7-0.1-1.5-0.3-2.2c-0.1-0.6-0.3-1.1-0.6-1.7c-0.2-0.4-0.5-0.9-0.9-1.8h0.8
			c0.7,1,1.3,2,1.6,3c0.3,0.9,0.5,1.7,0.5,2.7c0,1.1-0.2,2.1-0.6,3.1S150.3,186.3,149.7,187z"/>
	</g>
</g>
<g id="Layer_2" class="st10">
	
		<image style="display:inline;overflow:visible;" width="354" height="217" xlink:href="A04055C4.jpg"  transform="matrix(1 0 0 1 0.1954 0.4408)">
	</image>
</g>
</svg>
