<svg xmlns="http://www.w3.org/2000/svg" viewBox="0 0 477.3 264.1"><title>OJ103614615</title><g id="Shapes"><path id="path34" d="M122,215.7c0-10.2,14.2-18.5,31.6-18.5s31.6,8.3,31.6,18.5-14.1,18.5-31.6,18.5S122,226,122,215.7" fill="none" stroke="#000" stroke-linecap="round" stroke-linejoin="round" stroke-width="0.67"/><path id="path48" d="M262.5,57.9c0-14.5,17-26.3,38.1-26.3s38.1,11.8,38.1,26.3-17,26.3-38.1,26.3-38.1-11.8-38.1-26.3" fill="none" stroke="#000" stroke-linecap="round" stroke-linejoin="round" stroke-width="0.67"/><path id="path64" d="M384.4,234.2c0-10.6,16.6-19.3,37-19.3s37,8.6,37,19.3-16.6,19.3-37,19.3-37-8.6-37-19.3" fill="none" stroke="#000" stroke-linecap="round" stroke-linejoin="round" stroke-width="0.67"/><path id="path78" d="M10.13,45.6c0-11.1,14.46-20.2,32.25-20.2s32.25,9,32.25,20.2S60.16,65.8,42.38,65.8,10.13,56.7,10.13,45.6" fill="none" stroke="#000" stroke-linecap="round" stroke-linejoin="round" stroke-width="0.7"/><path id="path92" d="M382.7,33.4c0-11.3,18.8-20.5,42-20.5s42,9.2,42,20.5-18.8,20.5-42,20.5-42-9.2-42-20.5" fill="none" stroke="#000" stroke-linecap="round" stroke-linejoin="round" stroke-width="0.67"/><path id="path108" d="M2,176.7c0-11.1,13-20.2,29.1-20.2s29.1,9,29.1,20.2-13,20.2-29.1,20.2S2,187.8,2,176.7" fill="none" stroke="#000" stroke-linecap="round" stroke-linejoin="round" stroke-width="0.67"/><path id="path122" d="M290.1,141.8c0-9.9,15.6-18,34.9-18s34.9,8,34.9,18-15.6,18-34.9,18-34.9-8-34.9-18" fill="none" stroke="#000" stroke-linecap="round" stroke-linejoin="round" stroke-width="0.67"/><path id="path150" d="M399.7,106.9c0-12.6,13-22.8,28.9-22.8s28.9,10.2,28.9,22.8-12.9,22.8-28.9,22.8-28.9-10.2-28.9-22.8" fill="none" stroke="#000" stroke-linecap="round" stroke-linejoin="round" stroke-width="0.67"/><path id="path166" d="M252,244.8c0-10.5,16-19,35.8-19s35.8,8.5,35.8,19-16,19-35.8,19-35.8-8.5-35.8-19" fill="none" stroke="#000" stroke-linecap="round" stroke-linejoin="round" stroke-width="0.67"/><path id="path175" d="M88.3,34.1c0-11.7,18.2-21.2,40.6-21.2s40.7,9.5,40.7,21.2-18.2,21.2-40.7,21.2S88.3,45.8,88.3,34.1" fill="none" stroke="#000" stroke-linecap="round" stroke-linejoin="round" stroke-width="0.67"/><g id="shape52-83"><path id="path198" d="M178.19,142.89l-24.3,54.5" fill="none" stroke="#000" stroke-linecap="round" stroke-linejoin="round" stroke-width="0.33"/></g><g id="shape58-89"><path id="path208" d="M416.08,214l-84.7-140.6" fill="none" stroke="#000" stroke-linecap="round" stroke-linejoin="round" stroke-width="0.33"/></g><path id="path220" d="M8,242.6c0-11,16.6-20,37.2-20s37.2,9,37.2,20-16.6,20-37.2,20S8,253.7,8,242.6" fill="none" stroke="#000" stroke-linecap="round" stroke-linejoin="round" stroke-width="0.67"/><g id="shape63-98"><path id="path227" d="M232.09,98.07,267,73" fill="none" stroke="#000" stroke-linecap="round" stroke-linejoin="round" stroke-width="0.33"/></g><g id="shape65-101"><path id="path232" d="M337.27,64l62.4,43.1" fill="none" stroke="#000" stroke-linecap="round" stroke-linejoin="round" stroke-width="0.33"/></g><g id="shape67-104"><path id="path237" d="M328.08,38.92l54.8-8" fill="none" stroke="#000" stroke-linecap="round" stroke-linejoin="round" stroke-width="0.33"/></g><g id="shape70-107"><path id="path242" d="M77.79,98.36l86.3,23" fill="none" stroke="#000" stroke-linecap="round" stroke-linejoin="round" stroke-width="0.33"/></g><g id="shape73-110"><path id="path247" d="M69.1,112.66l62.3,90.2" fill="none" stroke="#000" stroke-linecap="round" stroke-linejoin="round" stroke-width="0.33"/></g><g id="shape76-113"><path id="path252" d="M176.06,228.86,252,245" fill="none" stroke="#000" stroke-linecap="round" stroke-linejoin="round" stroke-width="0.33"/></g><g id="shape77-116"><path id="path257" d="M212.33,150.4l55.9,78.5" fill="none" stroke="#000" stroke-linecap="round" stroke-linejoin="round" stroke-width="0.33"/></g><g id="shape78-119"><path id="path262" d="M290.28,141.38l-46.5-20" fill="none" stroke="#000" stroke-linecap="round" stroke-linejoin="round" stroke-width="0.33"/></g><g id="shape79-122"><path id="path267" d="M122.32,216l-61-28.6" fill="none" stroke="#000" stroke-linecap="round" stroke-linejoin="round" stroke-width="0.33"/></g><g id="shape80-125"><path id="path272" d="M131.39,228.89l-49,13.7" fill="none" stroke="#000" stroke-linecap="round" stroke-linejoin="round" stroke-width="0.33"/></g><g id="shape81-128"><path id="path277" d="M175.8,98,69.54,56.58" fill="none" stroke="#000" stroke-linecap="round" stroke-linejoin="round" stroke-width="0.33"/></g><g id="shape82-131"><path id="path282" d="M304.61,84.14l4.7,40" fill="none" stroke="#000" stroke-linecap="round" stroke-linejoin="round" stroke-width="0.33"/></g><g id="shape94-134"><path id="path287" d="M303.16,109.49h-.3v-1.3c0-.1.1,0,.1,0h.2v.1l.1,1.1h0c0,.1,0,.1-.1.1Z" fill="#fff"/></g><g id="shape96-136"><path id="path292" d="M265.08,29.46,274,38" fill="none" stroke="#000" stroke-linecap="round" stroke-linejoin="round" stroke-width="0.33"/></g><g id="shape97-139"><path id="path297" d="M169.77,37.55l92.3,16.1" fill="none" stroke="#000" stroke-linecap="round" stroke-linejoin="round" stroke-width="0.33"/></g><path id="path78-2" data-name="path78" d="M13.5,98.2C13.5,87.1,27.88,78,45.55,78S77.6,87,77.6,98.2s-14.38,20.2-32,20.2-32-9.1-32-20.2" fill="none" stroke="#000" stroke-linecap="round" stroke-linejoin="round" stroke-width="0.7"/><path id="path175-2" data-name="path175" d="M195.7,19c0-8.7,17.4-15.9,38.8-15.9s38.8,7.1,38.8,15.9-17.4,15.9-38.8,15.9S195.7,27.8,195.7,19" fill="none" stroke="#000" stroke-linecap="round" stroke-linejoin="round" stroke-width="0.67"/><path id="path78-3" data-name="path78" d="M164.8,120.4c0-16.5,17.5-30,38.9-30,21.6,0,38.9,13.4,38.9,30s-17.5,30-38.9,30c-21.4-.2-38.9-13.5-38.9-30" fill="none" stroke="#000" stroke-linecap="round" stroke-linejoin="round" stroke-width="0.67"/></g><g id="Text"><text transform="translate(13.89 47.4)" font-size="9" font-family="SegoePrint, Segoe Print">Devoluciones</text><text transform="translate(15.97 101.53)" font-size="10" font-family="SegoePrint, Segoe Print">Facturación</text><text transform="translate(4.72 179.65)" font-size="9" font-family="SegoePrint, Segoe Print">Fidelización</text><text transform="translate(135.72 219.05)" font-size="9" font-family="SegoePrint, Segoe Print">Cuentas</text><text transform="translate(264.06 242.55)" font-size="9" font-family="SegoePrint, Segoe Print"><tspan letter-spacing="-0.01em">C</tspan><tspan x="6.21" y="0">entro de</tspan><tspan x="2.48" y="10.8">llamadas</tspan></text><text transform="translate(306.07 145.23)" font-size="9" font-family="SegoePrint, Segoe Print"><tspan letter-spacing="-0.06em">T</tspan><tspan x="5.52" y="0">erceros</tspan></text><text transform="translate(202.58 18.35)" font-size="8" font-family="SegoePrint, Segoe Print">Uso compa<tspan x="43.98" y="0" letter-spacing="0.04em">r</tspan><tspan x="48.41" y="0">tido</tspan><tspan x="15.08" y="11">del dron</tspan></text><text transform="translate(16.91 239.95)" font-size="9" font-family="SegoePrint, Segoe Print">Clasificación<tspan x="2.05" y="10.8">de usua</tspan><tspan x="36.36" y="10.8" letter-spacing="0.01em">r</tspan><tspan x="41.03" y="10.8">ios</tspan></text><text transform="translate(386.19 236.6)" font-size="9" font-family="SegoePrint, Segoe Print"><tspan letter-spacing="0.01em">A</tspan><tspan x="7.08" y="0">nálisis de E</tspan><tspan x="57.74" y="0" letter-spacing="-0.04em">T</tspan><tspan x="63.43" y="0">A</tspan></text><text transform="translate(188.59 125.47)" font-size="11" font-family="SegoePrint, Segoe Print">Envío</text><text transform="translate(107.02 33.58)" font-size="9" font-family="SegoePrint, Segoe Print">Vigilancia <tspan x="0.39" y="10.8">por vídeo</tspan></text><text transform="translate(265.96 56.38)" font-size="9" font-family="SegoePrint, Segoe Print"><tspan letter-spacing="0.01em">A</tspan><tspan x="7.08" y="0">dministración </tspan><tspan x="12.63" y="10.8">de drones</tspan></text><text transform="translate(407.78 30.28)" font-size="9" font-family="SegoePrint, Segoe Print"><tspan letter-spacing="0.01em">A</tspan><tspan x="7.08" y="0">nálisis </tspan><tspan x="-5.66" y="10.8">p</tspan><tspan x="0.16" y="10.8" letter-spacing="0em">r</tspan><tspan x="4.79" y="10.8">edictivo</tspan></text><text transform="translate(403.7 105.98)" font-size="9" font-family="SegoePrint, Segoe Print">Reparación <tspan x="6.02" y="10.8">del dron</tspan></text></g></svg>