<svg xmlns="http://www.w3.org/2000/svg" viewBox="0 0 492.06 273.25"><title>OJ103614612</title><g id="shapes"><g id="shape3-1"><path id="path8" d="M38.92,215.56c0-16.36,25.32-29.65,56.56-29.65S152,199.2,152,215.56,126.72,245.2,95.48,245.2,38.92,231.94,38.92,215.56Z" fill="none"/></g><g id="shape4-3"><path id="path15" d="M38.92,215.56c0-16.36,25.32-29.65,56.56-29.65S152,199.2,152,215.56,126.72,245.2,95.48,245.2s-56.56-13.26-56.56-29.64" fill="none" stroke="#000" stroke-linecap="round" stroke-linejoin="round" stroke-width="0.86"/></g><g id="shape6-7"><path id="path22" d="M175.47,38.23c0-16.36,31.51-29.65,70.32-29.65s70.33,13.29,70.33,29.65-31.48,29.64-70.33,29.64S175.47,54.61,175.47,38.23Z" fill="none"/></g><g id="shape7-9"><path id="path29" d="M175.47,38.23c0-16.36,31.51-29.65,70.32-29.65s70.33,13.29,70.33,29.65-31.48,29.64-70.33,29.64-70.32-13.26-70.32-29.64" fill="none" stroke="#000" stroke-linecap="round" stroke-linejoin="round" stroke-width="0.86"/></g><g id="shape9-13"><path id="path36" d="M358.49,137.15c0-20.52,23.12-37.16,51.61-37.16s51.62,16.64,51.62,37.16-23.09,37.16-51.62,37.16S358.49,157.69,358.49,137.15Z" fill="none"/></g><g id="shape15-15"><path id="path41" d="M241.07,231.66c0-17.66,26.29-32,58.71-32s58.71,14.34,58.71,32-26.26,32-58.71,32S241.07,249.36,241.07,231.66Z" fill="none"/></g><g id="shape18-17"><path id="path46" d="M43,33.5c0-10.66,19.27-19.34,43-19.34s43,8.68,43,19.34S109.78,52.83,86,52.83,43,44.18,43,33.5Z" fill="none"/></g><g id="shape19-19"><path id="path53" d="M43,33.5c0-10.66,19.27-19.34,43-19.34s43,8.68,43,19.34S109.78,52.83,86,52.83,43,44.18,43,33.5" fill="none" stroke="#000" stroke-linecap="round" stroke-linejoin="round" stroke-width="0.86"/></g><g id="shape22-24"><path id="path62" d="M35.48,99.77c0-10.79,17-19.55,38.07-19.55S111.61,89,111.61,99.77s-17,19.55-38.06,19.55S35.48,110.59,35.48,99.77Z" fill="none"/></g><g id="shape23-26"><path id="path69" d="M35.48,99.77c0-10.79,17-19.55,38.07-19.55S111.61,89,111.61,99.77s-17,19.55-38.06,19.55-38.07-8.73-38.07-19.55" fill="none" stroke="#000" stroke-linecap="round" stroke-linejoin="round" stroke-width="0.86"/></g><g id="shape26-30"><path id="path76" d="M222.24,97.94,246,68.08" fill="none" stroke="#000" stroke-linecap="round" stroke-linejoin="round" stroke-width="2"/></g><g id="shape29-33"><path id="path81" d="M359,137.66l-64-.51" fill="none" stroke="#000" stroke-linecap="round" stroke-linejoin="round" stroke-width="2"/></g><g id="shape30-36"><path id="path86" d="M298.06,60.68,374,111" fill="none" stroke="#000" stroke-linecap="round" stroke-linejoin="round" stroke-width="2"/></g><g id="shape38-39"><path id="path91" d="M186.61,163.79l-51.13,31" fill="none" stroke="#000" stroke-linecap="round" stroke-linejoin="round" stroke-width="2"/></g><g id="shape39-42"><path id="path96" d="M152.26,215.77l89,16.19" fill="none" stroke="#000" stroke-linecap="round" stroke-linejoin="round" stroke-width="2"/></g><g id="shape40-45"><path id="path101" d="M73.54,119.54l21.94,66.51" fill="none" stroke="#000" stroke-linecap="round" stroke-linejoin="round" stroke-width="2"/></g><g id="shape41-48"><path id="path106" d="M129.24,33.72l46.43,4.78" fill="none" stroke="#000" stroke-linecap="round" stroke-linejoin="round" stroke-width="2"/></g><g id="shape42-51"><path id="path111" d="M168,136.72c0-20.76,28.41-37.59,63.44-37.59s63.44,16.83,63.44,37.59-28.38,37.59-63.44,37.59S168,157.5,168,136.72Z" fill="none"/></g><g id="shape43-53"><path id="path118" d="M168,136.72c0-20.76,28.41-37.59,63.44-37.59s63.44,16.83,63.44,37.59-28.38,37.59-63.44,37.59S168,157.5,168,136.72" fill="none" stroke="#000" stroke-linecap="round" stroke-linejoin="round" stroke-width="0.86"/></g><g id="shape45-57"><path id="path125" d="M454.73,21.8l-3.33.8-.22-.83,3.36-.8Zm-5.86,1.4-3.33.8-.22-.83,3.36-.81ZM443,24.62l-3.36.8-.19-.83,3.33-.8ZM437.18,26l-3.33.81-.22-.84,3.33-.8Zm-5.83,1.42L428,28.3l-.19-.84,3.33-.83Zm-5.86,1.45-1.13.27h0l-2.21.57-.21-.84,2.23-.56,1.1-.27Zm-5.84,1.48-3.33.83-.22-.83,3.34-.83Zm-5.83,1.48-3.33.86-.22-.83L413.6,31ZM408,33.37l-3.34.89-.21-.83,3.33-.89Zm-5.81,1.53-3.33.92-.22-.81,3.31-.94Zm-5.81,1.61-.67.19h0l-2.63.75-.25-.83,2.64-.75.67-.19Zm-5.78,1.64-1.61.46h0l-1.69.51-.25-.83,1.7-.51,1.61-.46Zm-5.78,1.69-2.34.7h0l-.94.3-.27-.84,1-.29,2.34-.7Zm-5.75,1.78-2.82.88h0l-.46.14-.27-.81.49-.16,2.79-.89Zm-5.73,1.85-3,1h0l-.24.08-.29-.8.24-.11,3-1Zm-5.7,1.93-2.95,1.05v0l-.27.11-.3-.81.27-.1,3-1ZM362,47.47l-2.64,1h0l-.59.24-.35-.77.62-.25,2.6-1Zm-5.59,2.23-2,.8h0l-1.18.54-.35-.78,1.18-.54,2-.83Zm-5.52,2.41-1,.46h0l-2.1,1-.37-.77,2.12-1,1-.45Zm-5.43,2.55-3.11,1.48-.38-.78,3.12-1.47ZM340,57.24l-1.7.81h0l-1.42.67-.38-.75,1.4-.7,1.72-.81Zm-5.38,2.63-2.47,1.29,0,0-.59.34-.43-.75.59-.35,2.48-1.26Zm-5.21,2.9-2.29,1.53,0,0-.54.43L326.1,64l.57-.43L329,62.05Zm-4.76,3.57-1.48,1.45,0,0-.86,1-.68-.57.89-1,1.51-1.47Zm-3.79,4.52L320.13,72l0-.06-.89,1.83-.78-.35.89-1.85.78-1.21Zm-2.56,5.31-.45,1.21,0,0-.53,2.09-.84-.21.54-2.1.46-1.23Zm-1.5,5.75-.46,2.31v0l-.13,1.07-.84-.1.14-1.08.43-2.33Zm-.89,5.91-.08.51h0l-.22,2.28h0l-.05.62-.83-.08.05-.62.22-2.28.05-.54Zm-.54,6-.16,2h0l-.08,1.47-.86,0,.11-1.5.13-1.94Zm-.4,6-.13,3.41-.86,0,.13-3.43Zm-.22,6-.08,3.44-.86,0,.08-3.44Zm-.13,6v3.44h-.86V111.8Zm0,6v.29h0l.11,3.12-.86,0-.11-3.12v-.32Zm.19,6,.05,1.58v0l.14,1.86-.86,0-.14-1.85,0-1.59Zm.35,6,.16,3h0l0,.37-.86.08,0-.37-.19-3.06Zm.45,6,.33,3.41-.86.08-.33-3.41Zm.62,6,.46,3.41-.83.11-.49-3.41Zm.81,6,0,.25h0l.59,3.11-.84.16-.59-3.14-.05-.27Zm1.1,5.88.32,1.83v0l.38,1.56-.83.19-.38-1.56-.35-1.82Zm1.29,5.86.78,3.19v0l.06.16-.84.24,0-.16-.78-3.2Zm1.59,5.77,1,3.28-.81.26-1-3.27Zm1.91,5.67,1.26,3.19-.81.32-1.26-3.19Zm2.23,5.53,1.58,3.06-.75.4-1.58-3.06Zm2.77,5.34.19.35,0,0,1.61,2.61-.72.45-1.62-2.63-.19-.35Zm3.25,5,.51.75v0l1.61,2-.67.54-1.61-2-.54-.75Zm3.84,4.53.86.92,0,0,1.64,1.45-.57.64-1.66-1.45-.89-.91Zm4.41,4,1.21,1,0,0,1.5,1.1-.51.7-1.51-1.1-1.23-1Zm4.79,3.57,1.74,1.24h0l1.1.64-.43.75-1.13-.67-1.77-1.26Zm5.05,3.2,2.56,1.47-.06,0,.46.21-.38.78-.46-.21-2.55-1.51Zm5.3,2.79,3.09,1.5-.38.78-3.09-1.5Zm5.43,2.52,3.17,1.32-.32.78-3.18-1.29Zm5.56,2.26,3.25,1.13-.29.8-3.25-1.13Zm5.67,2,1,.32h0l2.34.7-.27.83-2.31-.7-1-.35Zm5.76,1.77,2.82.83h0l.49.11-.22.83-.48-.11-2.85-.86ZM382.8,215l3.33.86-.22.83-3.33-.86Zm5.8,1.48,3.36.75-.18.83-3.37-.75Zm5.89,1.31,1.56.35h0l1.8.35-.19.83-1.8-.35-1.56-.35Zm5.89,1.21,3.36.67-.16.83-3.36-.67Zm5.88,1.13,3.42.56-.16.86-3.39-.59Zm5.95,1,1.12.22h0l2.26.35-.13.85-2.26-.37-1.13-.19Zm5.94,1,3.41.53-.13.86L418,223Zm5.94.91,3.41.46-.11.86-3.41-.46Zm6,.83,3.41.46-.11.86-3.41-.48Zm6,.81,3.42.48-.14.83-3.38-.45Zm6,.8,3.41.43-.1.86-3.42-.43Zm6,.76,3.41.4-.1.86-3.42-.43Zm6,.72,3.41.43-.08.86-3.44-.43Z" stroke="#000" stroke-linecap="round" stroke-linejoin="round" stroke-width="0.03"/></g><g id="shape46-59"><path id="path130" d="M316.23,77.32l-3.38.67-.16-.83,3.36-.67Zm-5.91,1.18-3.39.65-.16-.84,3.39-.64Zm-5.91,1.13-3.42.59-.13-.83,3.38-.62Zm-6,1-3.39.54-.13-.86,3.41-.51Zm-5.94.91-3.42.43-.1-.86,3.41-.43Zm-6,.75-3.41.35L283,81.8l3.44-.34Zm-6,.59-.92.09-2.52.21-.06-.86,2.5-.19h0l.92-.1Zm-6,.49-2.59.13-.86.06,0-.86.86-.06h0l2.58-.13Zm-6,.32-.64,0-2.8.1,0-.85,2.79-.11h0l.65,0Zm-6,.27-3.44.16-.06-.86,3.45-.16Zm-6,.37-2.55.22h0l-.89.11-.08-.86.89-.08,2.55-.24Zm-6,.57-1.94.19h0l-1.47.18-.11-.85,1.5-.17,1.94-.21Zm-6,.67-1.59.16-1.83.22-.08-.86,1.83-.19,1.58-.19Zm-6,.67-1.48.16-1.94.22-.1-.84,2-.21,1.45-.19Zm-6,.67-1.5.16-1.91.19-.08-.86,1.91-.16h0l1.5-.19Zm-6,.59-1.64.14-1.8.16L223,87l1.78-.13h0l1.64-.17Zm-6,.49-1.78.13-1.66.08,0-.86,1.67-.08,0,0,1.77-.16Zm-6,.35-1.88.08-1.56,0V87.6l1.54,0h0l1.88-.08Zm-6,.13h-1.93l-1.53,0,0-.86,1.53,0h1.91Zm-6.05-.11-1.77-.08L199,88.17l.06-.86,1.69.16,0,0,1.75.08Zm-6-.45-1.45-.14-2-.32.14-.83,2,.32h0l1.42.11Zm-6-.89-.86-.13L187,86.26l.24-.83,2.5.64h-.05l.86.14Zm-5.86-1.45h-.06l-3.22-1.24.32-.8,3.17,1.23,0,0h0Zm-5.67-2.31-3-1.66.4-.76,3,1.67Zm-5.17-3.19-2-1.45-.76-.7.59-.65.73.7,0,0,2,1.45Zm-4.62-3.92-.89-.81-1.5-1.69.64-.57,1.48,1.67,0,0,.88.81ZM165,71.73l-.06,0-2-2.74.7-.51,2,2.71,0,0,.05,0Zm-3.6-4.91L159.51,64l.73-.49,1.85,2.9Zm-3.18-5.13-1.66-3,.75-.43,1.67,3Zm-2.79-5.34-1.32-2.71-.19-.41.81-.34.16.4v0L156.18,56Zm-2.53-5.48-1-2.41-.3-.78.78-.33.3.78v0l1.05,2.41Zm-2.26-5.61L149.73,43l-.33-1,.81-.27.35.94h0l.89,2.25Zm-2.07-5.67-.78-2.22-.32-1,.83-.27.33,1v0l.78,2.26Zm-1.88-5.72-.75-2.33-.27-.94.81-.24.29.94h0l.73,2.33Zm-1.75-5.74-.75-2.53-.21-.8.83-.22.21.78h0l.73,2.53Zm-1.64-5.8L142.36,19l.83-.22.92,3.31Zm-1.58-5.8-.86-3.12-.06-.21.84-.22,0,.22v0l.86,3.12Zm-1.56-5.83-.83-3.33.83-.21.83,3.33Zm-1.48-5.82-.86-3.33.83-.22.86,3.33Z" stroke="#000" stroke-linecap="round" stroke-linejoin="round" stroke-width="0.03"/></g><g id="shape47-61"><path id="path135" d="M320.29,167l-3.41.51-.11-.86,3.39-.48Zm-6,.89-3.38.51-.14-.86,3.42-.51Zm-5.94.88-3.41.54-.14-.86,3.42-.54Zm-6,.92-3.38.53-.14-.86,3.42-.51Zm-5.94.94-3.38.59-.14-.86,3.39-.59Zm-5.91,1-3.41.59-.14-.86,3.39-.59Zm-5.94,1-3.36.65-.16-.86,3.36-.64Zm-5.92,1.13-3.3.62h0l-.08,0-.18-.86h.08l3.3-.65ZM272.82,175l-2.5.54h0l-.86.22-.19-.86.86-.19,2.5-.54ZM267,176.36l-1.59.37h0l-1.78.46-.21-.83,1.77-.46,1.59-.38Zm-5.84,1.47-.45.14h0l-2.83.8-.24-.8,2.82-.84.49-.13Zm-5.75,1.69-3.25,1.08-.27-.83,3.25-1.08Zm-5.67,1.94-1.88.7h0l-1.31.56-.35-.81,1.34-.53,1.88-.73Zm-5.57,2.25,0,0h0l-3,1.48-.38-.78,3-1.48.08,0Zm-5.29,2.74-1.37.75h0l-1.56,1.05-.45-.72,1.56-1.05,1.37-.78Zm-5,3.28-1.74,1.34,0,0-.91.84-.56-.62.91-.86,1.77-1.34Zm-4.46,3.92-1.56,1.64h0l-.75.88-.67-.53.75-.92,1.58-1.66Zm-3.84,4.54-1.13,1.63v0l-.78,1.23-.73-.45.78-1.24,1.16-1.64Zm-3.17,5-1.56,3.07-.78-.41,1.58-3.06Zm-2.64,5.37-1.34,3.17-.78-.35,1.34-3.16Zm-2.28,5.56-1.24,3.2-.78-.32,1.24-3.2Zm-2.15,5.61-1.11,2.88h0l-.13.32-.81-.3.11-.32,1.1-2.9Zm-2,5.64,0,.11v0l-.92,3.2-.8-.24.88-3.2.06-.13Zm-1.5,5.78-.27,1.07h0l-.46,2.26-.83-.17.46-2.28.24-1.1ZM210.58,237l-.53,3.41-.84-.13.54-3.41Zm-.91,5.93-.16.92h0l-.32,2.49-.84-.1.33-2.53.13-.88Zm-.78,6-.32,2.74h0l-.06.67-.86-.08.09-.67.29-2.76Zm-.64,6-.06.48h0l-.27,2.95-.86-.08.3-2.95,0-.49Zm-.51,6-.11,1.1-.16,2.34-.86-.08.18-2.34.09-1.07Zm-.43,6,0,.11-.11,1.69h0l0,.64,0,.49,0,.27v.05h-.86V270l.05-.29,0,0,0-.45h0l0-.65.11-1.72v0l0-.13Z" stroke="#000" stroke-linecap="round" stroke-linejoin="round" stroke-width="0.03"/></g><g id="shape48-63"><path id="path140" d="M103.92,128.8l3.41.32-.08.86-3.41-.35Zm6,.59,3.41.4-.08.86-3.44-.4Zm6,.78,3.12.51.29,0-.18.84-.27-.06h0l-3.11-.48Zm5.94,1.1,2.39.51,1,.27-.24.83-1-.27h0l-2.4-.51Zm5.86,1.5,1.88.54,1.43.54-.3.8-1.4-.53,0,0-1.88-.53Zm5.73,2,1.72.65,1.48.64-.33.78-1.47-.64h0l-1.72-.62ZM139,137.1l1.94.94,1.15.61-.4.78-1.16-.61h0l-1.9-.94Zm5.38,2.82,2.58,1.53.38.24-.46.72-.38-.24h0l-2.58-1.53Zm5.13,3.14.65.43,2.2,1.53-.48.7-2.21-1.51h0l-.64-.43Zm5,3.43,2.71,2,.08.06-.54.67-.05-.06h0l-2.71-2Zm4.83,3.6,1.64,1.24,1.11.86-.54.67-1.08-.86h0l-1.64-1.24Zm4.79,3.68.7.56,2,1.59-.54.67-2-1.58h0l-.73-.57Zm4.7,3.79,2.61,2.2-.54.67-2.63-2.23Zm4.6,3.86,2.61,2.23-.54.67-2.63-2.23Zm4.57,4,2.55,2.28-.56.65L177.39,166Zm4.46,4,1.78,1.58.78.73-.57.62-.78-.73h0L181.88,170Zm4.47,4,.91.89,1.56,1.5-.59.62-1.56-1.5h0l-.95-.86Zm4.32,4.19h0l2.42,2.42-.62.62-2.42-2.42h0Zm4.25,4.3,1.88,2,.49.52-.65.59-.46-.54h0l-1.88-2Zm4.09,4.43.43.45,1.8,2.18-.65.54-1.82-2.15h0l-.43-.46Zm3.81,4.7.78,1.07,1.13,1.83-.75.45-1.1-1.82,0,0-.78-1Zm3.15,5.18.75,1.48.73,1.66-.78.35-.73-1.66v0l-.72-1.45Zm2.45,5.56.56,1.61.51,1.69-.83.24-.51-1.66v0l-.57-1.61Zm1.77,5.8.32,1.34.41,2-.84.16-.4-2h0l-.32-1.32Zm1.18,5.93.06.43.29,2.26.08.75-.86.08-.05-.75v0l-.3-2.22h0l-.08-.43Zm.65,6,0,.4,0,1.4,0,1V223h-.86v-.59l0-1.05h0l-.06-1.39,0,0-.05-.4Z" stroke="#000" stroke-linecap="round" stroke-linejoin="round" stroke-width="0.03"/></g><path id="path145" d="M138.59.74c-66.75-1.58-61.32,3-83.2,9.62S16.28,18,7.27,40.32.34,112.17,1.44,144.05s-5,67.55,12.34,87.53S39.34,258.86,105.45,264s242.58,18,304.87-1.8,61.31-76.55,68.9-116.9S512.5,44,455.83,19.94,205.34,2.35,138.59.74" fill="none" stroke="#000" stroke-linecap="round" stroke-linejoin="round" stroke-width="0.86"/><g id="shape51-71"><ellipse id="ellipse183" cx="407.09" cy="136.39" rx="44.52" ry="33.75" fill="#f2f2f2" stroke="#000" stroke-linecap="round" stroke-linejoin="round" stroke-width="0.75"/></g><g id="shape52-75"><ellipse id="ellipse194" cx="287.53" cy="233.14" rx="44.52" ry="33.75" fill="#f2f2f2" stroke="#000" stroke-linecap="round" stroke-linejoin="round" stroke-width="0.75"/></g><g id="shape53-78"><rect id="rect203" x="344.58" y="171.39" width="126.88" height="20" fill="none"/></g><g id="shape54-81"><rect id="rect212" x="316.69" y="234.39" width="126.88" height="20" fill="none"/></g><g id="g11"><g id="shape4-1"><path id="path8-2" d="M1.36,73.52l3.36-.43.07.92-3.35.41Zm5.86-.75,3.36-.41.11.93-3.36.41ZM13.11,72l2.46-.29.9-.1.11.92-.93.09h0L13.19,73Zm5.9-.69,3.35-.4.09.92-3.36.41Zm5.89-.67,3.35-.38.09.94L25,71.6ZM30.79,70l3.35-.36.09.94L30.85,71Zm5.9-.58L38,69.34,40,69.13l.08.93L38,70.24h0l-1.27.14Zm5.89-.53L46,68.64l0,.9-3.35.32Zm5.91-.5,3.39-.23,0,.93-3.38.24Zm5.92-.4,3.36-.18,0,.93L54.44,69Zm5.89-.33,2.83-.17h.56l.05.94h-.58l-2.8.17Zm5.92-.29,1.61-.08,1.78-.06,0,.93-1.77.06-1.61.09Zm5.92-.25.72-.07L75.52,67l0,.93L72.88,68h0l-.72,0Zm5.92-.24.1,0,3.28-.12,0,.92-3.28.12-.11,0ZM84,66.69l3.38-.09,0,.93L84,67.62Zm5.92-.18,3.38-.11,0,.93-3.37.12Zm5.92-.17,3.37-.09,0,.94-3.38.08Zm5.91-.14,3.38-.1V67l-3.35.08Zm5.92-.15L111,66v.92l-3.38.06Zm5.92-.09,3.38,0v.94l-3.38,0Zm5.92,0h3.37v.92h-3.37Zm5.91,0h3.31l.08,0v.94l-.11,0H125.4Zm5.92,0,2.24,0,1.15,0V67l-1.17,0h0l-2.22,0Zm5.92.14h.85l2.56.15-.05.94L138.06,67h-.82Zm5.94.3,2.62.18.77,0-.08.93-.77-.08h0l-2.62-.15Zm5.92.47,2.72.37.64.09-.11.93-.65-.12h0L149,67.79Zm5.89.9,1.56.31,1.77.41-.19.93L156.37,69h0l-1.53-.31Zm5.82,1.54,1,.4,1.35.62.82.49-.42.82-.77-.48h0l-1.33-.61,0,0-1-.4Zm5.36,3,1.13.91,1.49,1.53-.59.67-1.45-1.51,0,0L165.66,73Zm4.44,4.37,1.82,1.74h0l.72.66-.53.73-.74-.66-1.83-1.78Zm4.49,4.24,1.43,1.45.87,1.13.11.15-.7.55-.09-.14v0L175.9,83l0,0-1.42-1.45Zm3.62,5.37.18.91v1.39l-.34,1.4-.11.26-.73-.46.08-.18,0,.09.32-1.31,0,.12V87.22l0,.12-.18-.85ZM177,92.62l-.27.35-1.53,1.58-.79.63-.49-.75.76-.61,0,0,1.51-1.52-.06,0,.24-.33Zm-4.67,4.16-1.59,1.13-1.29.85L169,98l1.27-.85h0L171.88,96Zm-5.08,3.4-2.8,1.72-.15.12-.4-.82.15-.12v0l2.78-1.74Zm-5.2,3.15-1.32.8-1.67.94-.39-.82,1.66-1h0l1.33-.78Zm-5.26,3-.13.08L153.75,108l-.37-.85,2.88-1.54h0l.16-.08Zm-5.34,2.84-3,1.61-.37-.85,3.06-1.59ZM146.09,112,143,113.47l-.34-.87,3.09-1.51Zm-5.41,2.62L137.61,116l-.06,0-.31-.87h0l3.06-1.45Zm-5.48,2.49-2.87,1.28-.27.12-.32-.87.29-.12,0,0,2.88-1.28Zm-5.52,2.39-3.17,1.31-.29-.87,3.17-1.31Zm-5.55,2.26-2.64,1.11-.55.17-.27-.87.54-.2h0l2.64-1.08Zm-5.6,2.19-2.56,1-.65.21-.25-.87.66-.23h0l2.56-.94Zm-5.62,2-2.46.84-.79.24-.24-.9.79-.24h0l2.43-.84Zm-5.71,1.83-2.21.7-1.07.29-.18-.9,1-.29h0l2.25-.7Zm-5.74,1.67-1.92.51-1.37.33-.19-.91,1.38-.32h0l1.9-.52Zm-5.78,1.42-2,.4-1.35.26-.15-.9,1.36-.26h0l2-.43ZM89.84,132l-2.74.5-.62.08-.09-.9.57-.08h0l2.75-.5ZM84,133l-.45.06-2.91.44-.11-.91,2.89-.44h0l.47-.08Zm-5.87.84-3.38.44-.08-.93,3.36-.44Zm-5.89.75h-.1l-3.28.39-.08-.93,3.28-.35h0l.08,0Zm-5.89.68-2.25.23-1.13.11-.05-.92,1.1-.1h0l2.25-.25Zm-5.89.6-3.38.32-.08-.9,3.38-.34Zm-5.92.59-3.36.29-.07-.93,3.37-.29Zm-5.89.52-.9.06-2.49.21-.05-.94,2.46-.17h0l.92-.09Zm-5.89.47-3,.23-.4,0-.05-.94.37,0v0l3-.25Zm-5.92.43-3.39.24,0-.94,3.39-.22Zm-5.89.41-2.51.17-.88.07-.05-.94.9,0,0,0,2.49-.2Zm-5.93.38h-.1l-3.27.2-.06-.92,3.31-.21H25Zm-5.91.35-.69,0-2.69.18,0-.93,2.69-.17.67,0Zm-5.92.34h-.45l-2.48.12h0l-.45,0,0-.94.45,0,2.49-.11h.44Zm-5.92.29-1.16,0-1.64.05h0l-.58,0,0-.93.57,0,1.64-.07h0l1.16,0Z" fill="none" stroke="#000" stroke-linecap="round" stroke-linejoin="round" stroke-width="0.37"/></g></g></g><g id="text"><text transform="translate(75.23 218.56)" font-size="10" font-family="SegoeUI, Segoe UI" style="isolation:isolate">Cuentas</text><text transform="translate(190.92 41.23)" font-size="10" font-family="SegoeUI, Segoe UI" style="isolation:isolate">Administración de drones</text><text transform="translate(38.56 99.81)" font-size="10" font-family="SegoeUI, Segoe UI" style="isolation:isolate">Uso compartido<tspan x="16.82" y="12">del dron</tspan></text><text transform="translate(219.5 141.72)" font-size="10" font-family="SegoeUI, Segoe UI" style="isolation:isolate">Envío</text><text transform="translate(270.8 228.91)" font-size="12" font-family="Calibri, Calibri" style="isolation:isolate">Ce<tspan x="12.37" y="0" letter-spacing="-0.01em">n</tspan><tspan x="18.56" y="0">t</tspan><tspan x="22.58" y="0" letter-spacing="-0.02em">r</tspan><tspan x="26.57" y="0">o</tspan><tspan x="-12.71" y="14.4">de llamadas</tspan></text><text transform="translate(370.51 184.69)" font-size="11" font-family="SegoeUI, Segoe UI" style="isolation:isolate">Sistema externo</text><text transform="translate(342.62 247.69)" font-size="11" font-family="SegoeUI, Segoe UI" style="isolation:isolate">Sistema externo</text><text transform="translate(374.88 134.71)" font-size="12" font-family="Calibri, Calibri"><tspan letter-spacing="-0.06em">T</tspan><tspan x="5.1" y="0" letter-spacing="-0.02em">r</tspan><tspan x="9.04" y="0">anspor</tspan><tspan x="42.6" y="0" letter-spacing="-0.01em">t</tspan><tspan x="46.49" y="0">e de </tspan><tspan x="13.76" y="14.4" letter-spacing="-0.01em">t</tspan><tspan x="17.65" y="14.4">e</tspan><tspan x="23.63" y="14.4" letter-spacing="-0.01em">r</tspan><tspan x="27.63" y="14.4">ce</tspan><tspan x="38.68" y="14.4" letter-spacing="-0.02em">r</tspan><tspan x="42.67" y="14.4">os</tspan></text><text transform="translate(55.91 33.46)" font-size="10" font-family="SegoeUI, Segoe UI">Vigilancia por <tspan x="18" y="12">vídeo</tspan></text></g></svg>