<svg xmlns="http://www.w3.org/2000/svg" viewBox="0 0 457.04 220.02"><title>OJ103614597</title><g id="Shapes"><rect x="1.75" y="141.37" width="176.99" height="49.51" fill="#fff"/><path d="M178.23,141.87v48.51H2.25V141.87h176m1-1H1.25v50.51h178Z"/><line x1="40.33" y1="141.47" x2="40.33" y2="116.21" fill="none" stroke="#000" stroke-miterlimit="10"/><circle cx="40.33" cy="111.4" r="4.81" fill="none" stroke="#000" stroke-miterlimit="10"/><line x1="140.15" y1="141.47" x2="140.15" y2="116.21" fill="none" stroke="#000" stroke-miterlimit="10"/><circle cx="140.15" cy="111.4" r="4.81" fill="none" stroke="#000" stroke-miterlimit="10"/><rect x="1.75" y="0.5" width="77.17" height="53.12" fill="#fff"/><path d="M78.42,1V53.12H2.25V1H78.42m1-1H1.25V54.12H79.42Z"/><line x1="40.33" y1="53.68" x2="40.33" y2="94.61" fill="none" stroke="#000" stroke-miterlimit="10"/><polygon points="35.35 93.15 40.33 101.78 45.32 93.15 35.35 93.15"/><rect x="101.56" y="0.5" width="77.17" height="53.12" fill="#fff"/><path d="M178.23,1V53.12H102.07V1h76.16m1-1H101.07V54.12h78.16Z"/><line x1="140.15" y1="53.68" x2="140.15" y2="94.61" fill="none" stroke="#000" stroke-miterlimit="10"/><polygon points="135.16 93.15 140.15 101.78 145.14 93.15 135.16 93.15"/><line x1="318.14" y1="141.47" x2="318.14" y2="116.21" fill="none" stroke="#000" stroke-miterlimit="10"/><circle cx="318.14" cy="111.4" r="4.81" fill="none" stroke="#000" stroke-miterlimit="10"/><line x1="417.95" y1="141.47" x2="417.95" y2="116.21" fill="none" stroke="#000" stroke-miterlimit="10"/><circle cx="417.95" cy="111.4" r="4.81" fill="none" stroke="#000" stroke-miterlimit="10"/><rect x="279.55" y="0.5" width="77.17" height="53.12" fill="#fff"/><path d="M356.22,1V53.12H280.05V1h76.17m1-1H279.05V54.12h78.17Z"/><line x1="318.14" y1="53.68" x2="318.14" y2="94.61" fill="none" stroke="#000" stroke-miterlimit="10"/><polygon points="313.15 93.15 318.14 101.78 323.12 93.15 313.15 93.15"/><rect x="379.37" y="0.5" width="77.17" height="53.12" fill="#fff"/><path d="M456,1V53.12H379.87V1H456m1-1H378.87V54.12H457Z"/><line x1="417.95" y1="53.68" x2="417.95" y2="94.61" fill="none" stroke="#000" stroke-miterlimit="10"/><polygon points="412.97 93.15 417.95 101.78 422.94 93.15 412.97 93.15"/><rect x="279.55" y="139.56" width="77.17" height="53.12" fill="#fff"/><path d="M356.22,140.06v52.12H280.05V140.06h76.17m1-1H279.05v54.12h78.17Z"/><rect x="379.37" y="139.56" width="77.17" height="53.12" fill="#fff"/><path d="M456,140.06v52.12H379.87V140.06H456m1-1H378.87v54.12H457Z"/></g><g id="Text"><text transform="translate(108.85 30.22)" font-size="14.5" font-family="SegoeUI, Segoe UI">Cliente v2</text><text transform="translate(8.82 30.22)" font-size="14.5" font-family="SegoeUI, Segoe UI">Cliente v1</text><text transform="translate(51.58 114.41)" font-size="14.5" font-family="SegoeUI, Segoe UI">v1</text><text transform="translate(65.5 169.24)" font-size="14.5" font-family="SegoeUI, Segoe UI">Servicio</text><text transform="translate(2.39 216.68)" font-size="13" font-family="SegoeUI-Italic, Segoe UI" font-style="italic">El <tspan x="13.43" y="0" letter-spacing="-0.01em">s</tspan><tspan x="18.43" y="0">e</tspan><tspan x="24.76" y="0" letter-spacing="0.02em">r</tspan><tspan x="29.64" y="0">vicio admi</tspan><tspan x="87.32" y="0" letter-spacing="0em">t</tspan><tspan x="91.54" y="0">e dos </tspan><tspan x="124.15" y="0" letter-spacing="0em">v</tspan><tspan x="130.27" y="0">e</tspan><tspan x="136.6" y="0" letter-spacing="0.01em">r</tspan><tspan x="141.34" y="0">siones</tspan></text><text transform="translate(150.64 115.61)" font-size="14.5" font-family="SegoeUI, Segoe UI">v2</text><text transform="translate(386.66 30.22)" font-size="14.5" font-family="SegoeUI, Segoe UI">Cliente v2</text><text transform="translate(286.63 30.22)" font-size="14.5" font-family="SegoeUI, Segoe UI">Cliente v1</text><text transform="translate(329.39 114.41)" font-size="14.5" font-family="SegoeUI, Segoe UI">v1</text><text transform="translate(289.41 216.68)" font-size="13" font-family="SegoeUI-Italic, Segoe UI" font-style="italic">Implemen<tspan x="56.14" y="0" letter-spacing="0em">t</tspan><tspan x="60.28" y="0">ación en </tspan><tspan x="111.4" y="0" letter-spacing="0em">p</tspan><tspan x="118.51" y="0">a</tspan><tspan x="125.56" y="0" letter-spacing="-0.01em">r</tspan><tspan x="130.08" y="0">alelo</tspan></text><text transform="translate(428.45 115.61)" font-size="14.5" font-family="SegoeUI, Segoe UI">v2</text><text transform="translate(293.3 162.54)" font-size="14.4" font-family="SegoeUI, Segoe UI">Servicio <tspan x="17.24" y="17.28">v1</tspan></text><text transform="translate(394.65 162.54)" font-size="14.4" font-family="SegoeUI, Segoe UI">Servicio <tspan x="17.24" y="17.28">v2</tspan></text></g></svg>