<svg xmlns="http://www.w3.org/2000/svg" viewBox="0 0 751 266.87"><defs><style>.cls-1{fill:none;stroke:#afafaf;stroke-miterlimit:10;stroke-width:6px;}.cls-2{fill:#afafaf;}.cls-3{fill:#3fa0ec;}.cls-4{font-size:18px;}.cls-4,.cls-5{fill:#fff;font-family:ArialMT, Arial;}.cls-5{font-size:18.04px;}</style></defs><title>OJ103514635</title><g id="Shapes"><line class="cls-1" x1="102" y1="152" x2="128.24" y2="152"/><polygon class="cls-2" points="126.05 159.48 139 152 126.05 144.52 126.05 159.48"/><line class="cls-1" x1="105" y1="56.86" x2="128.24" y2="56.86"/><polygon class="cls-2" points="126.05 64.34 139 56.86 126.05 49.38 126.05 64.34"/><line class="cls-1" x1="596" y1="104.87" x2="626.23" y2="104.88"/><polygon class="cls-2" points="624.04 112.35 637 104.88 624.05 97.39 624.04 112.35"/><line class="cls-1" x1="450" y1="169.82" x2="626.24" y2="169.22"/><polygon class="cls-2" points="624.07 176.71 637 169.19 624.02 161.75 624.07 176.71"/><line class="cls-1" x1="455" y1="134.18" x2="477.22" y2="134.18"/><polygon class="cls-2" points="475.03 141.66 487.99 134.18 475.03 126.7 475.03 141.66"/><line class="cls-1" x1="450" y1="39.05" x2="626.24" y2="39.64"/><polygon class="cls-2" points="624.02 47.11 637 39.68 624.07 32.15 624.02 47.11"/><line class="cls-1" x1="455" y1="74.68" x2="477.22" y2="74.68"/><polygon class="cls-2" points="475.03 82.16 487.99 74.68 475.03 67.2 475.03 82.16"/><rect class="cls-3" x="138.5" y="118.64" width="182" height="67" rx="8" ry="8"/><rect class="cls-3" x="324.5" y="118.36" width="131" height="67" rx="8" ry="8"/><rect class="cls-3" x="324.5" y="23.36" width="131" height="67" rx="8" ry="8"/><rect class="cls-3" x="138.5" y="23.36" width="182" height="67" rx="8" ry="8"/><rect class="cls-3" x="637" width="114" height="209" rx="8" ry="8"/><rect class="cls-3" x="0.25" width="105" height="209" rx="8" ry="8"/><rect class="cls-3" y="217.87" width="751" height="49" rx="8" ry="8"/><rect class="cls-3" x="488.75" y="52.5" width="114" height="104" rx="8" ry="8"/></g><g id="txt"><text class="cls-4" transform="translate(321.93 246.32)">Orquestación</text><text class="cls-5" transform="translate(511.56 88.8)">Almacén <tspan x="0.49" y="21.65">de datos </tspan><tspan x="-7.53" y="43.3">de análisis</tspan></text><text class="cls-5" transform="translate(666 97.48)">Análisis <tspan x="-11.03" y="21.65">e informes</tspan></text><text class="cls-4" transform="translate(330.97 49.81)">Procesamiento <tspan x="25.51" y="21.6">por lotes</tspan></text><text class="cls-4" transform="translate(331.77 145.12)">Procesamiento <tspan x="26.51" y="21.6">de flujos</tspan></text><text class="cls-4" transform="translate(146.45 145.5)">Ingesta de mensajes <tspan x="26.02" y="21.6">en tiempo real</tspan></text><text class="cls-4" transform="translate(161.22 49.38)">Almacenamiento <tspan x="35.01" y="21.6">de datos</tspan></text><text class="cls-4" transform="translate(15.73 97.45)">Orígenes <tspan x="2.49" y="21.6">de datos</tspan></text></g></svg>