<svg xmlns="http://www.w3.org/2000/svg" viewBox="0 0 436.94 315.5"><defs><style>.cls-1{fill:none;stroke:#afafaf;stroke-miterlimit:10;stroke-width:6px;}.cls-2{fill:#afafaf;}.cls-3{fill:#3fa0ec;}.cls-4{fill:#8fb6cc;}.cls-5{fill:#2a3282;}.cls-11,.cls-6,.cls-8{fill:#fff;}.cls-10,.cls-7,.cls-8,.cls-9{isolation:isolate;}.cls-7{font-size:14.87px;fill:#213d47;}.cls-11,.cls-12,.cls-7,.cls-8,.cls-9{font-family:ArialMT, Arial;}.cls-11,.cls-8{font-size:18px;}.cls-12,.cls-9{font-size:18.04px;fill:#0070c0;}.cls-13{letter-spacing:-0.02em;}</style></defs><title>OJ103514692</title><g id="Shapes"><line class="cls-1" x1="89.46" y1="232.67" x2="325" y2="228.83"/><polygon class="cls-2" points="91.76 240.11 78.7 232.83 91.54 225.16 91.76 240.11"/><line class="cls-1" x1="346" y1="71.19" x2="346" y2="185.43"/><polygon class="cls-2" points="338.52 183.24 346 196.19 353.48 183.24 338.52 183.24"/><rect class="cls-3" x="104.06" y="195" width="115.75" height="71.66" rx="8" ry="8"/><line class="cls-1" x1="76" y1="37.83" x2="311.54" y2="33.99"/><polygon class="cls-2" points="309.46 41.5 322.3 33.83 309.24 26.54 309.46 41.5"/><path class="cls-4" d="M68,4.19a4,4,0,0,1,4,4v250a4,4,0,0,1-4,4H8a4,4,0,0,1-4-4V8.19a4,4,0,0,1,4-4H68m0-4H8a8,8,0,0,0-8,8v250a8,8,0,0,0,8,8H68a8,8,0,0,0,8-8V8.19A8,8,0,0,0,68,.19Z"/><rect class="cls-3" x="104.06" width="115.75" height="71.66" rx="8" ry="8"/><path class="cls-5" d="M320.16,49V59.19c0,4.76,9.53,10.06,22.07,11h8.29c12.54-.89,22.07-5.11,22.07-10.06V11.93c0-5.3-11.84-10.42-26.32-10.42s-26.13,4.76-26.13,10.25V49Z"/><ellipse class="cls-6" cx="346.36" cy="11.67" rx="20.5" ry="6.5"/><path class="cls-5" d="M320.16,244v10.23c0,4.76,9.53,10.06,22.07,11h8.29c12.54-.89,22.07-5.11,22.07-10.06v-48.2c0-5.3-11.84-10.42-26.32-10.42s-26.13,4.76-26.13,10.25V244Z"/><ellipse class="cls-6" cx="346.36" cy="206.67" rx="20.5" ry="6.5"/><rect class="cls-3" x="292.39" y="102.1" width="107.94" height="49.19" rx="8" ry="8"/></g><g id="txt"><text class="cls-7" transform="translate(12.22 131.65)">Cliente</text><text class="cls-8" transform="translate(318.54 130.64)">Evento</text><text class="cls-9" transform="translate(233.47 20.61)">Escribir</text><g class="cls-10"><text class="cls-9" transform="translate(245.48 213.61)">Leer</text></g><text class="cls-9" transform="translate(357.48 182.28)">Actualizar</text><text class="cls-11" transform="translate(119.22 29.39)">Modelo de <tspan x="0.51" y="21.6">comandos</tspan></text><text class="cls-11" transform="translate(120.22 223.97)">Modelo de <tspan x="4.01" y="21.6">consultas</tspan></text><text class="cls-12" transform="translate(326.65 288)"><tspan class="cls-13">V</tspan><tspan x="11.71" y="0">ista </tspan><tspan x="-33.75" y="21.65">materializada</tspan></text></g></svg>