<svg xmlns="http://www.w3.org/2000/svg" viewBox="0 0 678 212.1"><defs><style>.cls-1{fill:none;stroke:#afafaf;stroke-miterlimit:10;stroke-width:6px;}.cls-2{fill:#afafaf;}.cls-3{fill:#3fa0ec;}.cls-4,.cls-5{isolation:isolate;fill:#fff;font-family:ArialMT, Arial;}.cls-4{font-size:18px;}.cls-5{font-size:17.98px;}</style></defs><title>OJ103514666</title><g id="Shapes"><line class="cls-1" x1="191.53" y1="105.95" x2="244.77" y2="105.95"/><polygon class="cls-2" points="242.58 113.43 255.53 105.95 242.58 98.47 242.58 113.43"/><rect class="cls-3" x="486" width="192" height="60.1" rx="8" ry="8"/><rect class="cls-3" x="486" y="76" width="192" height="60.1" rx="8" ry="8"/><rect class="cls-3" x="486" y="152" width="192" height="60.1" rx="8" ry="8"/><line class="cls-1" x1="422.53" y1="105.95" x2="475.77" y2="105.95"/><polygon class="cls-2" points="473.58 113.42 486.53 105.94 473.58 98.47 473.58 113.42"/><line class="cls-1" x1="422.53" y1="105.95" x2="478.44" y2="42.05"/><polygon class="cls-2" points="482.63 48.62 485.53 33.95 471.37 38.77 482.63 48.62"/><line class="cls-1" x1="422.53" y1="105.95" x2="478.66" y2="173.66"/><polygon class="cls-2" points="471.51 176.75 485.53 181.95 483.02 167.2 471.51 176.75"/><rect class="cls-3" y="76" width="192" height="60.1" rx="8" ry="8"/><rect class="cls-3" x="255.23" y="86.05" width="167.53" height="40" rx="8" ry="8"/></g><g id="txt"><text class="cls-4" transform="translate(525.09 26)">Consumidores <tspan x="16.49" y="21.6">de eventos</tspan></text><text class="cls-4" transform="translate(525.09 102)">Consumidores <tspan x="16.49" y="21.6">de eventos</tspan></text><text class="cls-4" transform="translate(525.09 178)">Consumidores <tspan x="16.49" y="21.6">de eventos</tspan></text><text class="cls-5" transform="translate(47.42 102.01)">Productores <tspan x="6.98" y="21.58">de eventos</tspan></text><text class="cls-4" transform="translate(263.91 110)">Ingesta de eventos</text></g></svg>