<svg xmlns="http://www.w3.org/2000/svg" viewBox="0 0 786 353.13"><defs><style>.cls-1,.cls-3{fill:none;stroke:#afafaf;stroke-width:6px;}.cls-1{stroke-miterlimit:10;}.cls-2{fill:#afafaf;}.cls-3{stroke-linejoin:bevel;}.cls-4{fill:#3fa0ec;}.cls-5{fill:#8fb6cc;}.cls-6,.cls-7,.cls-9{isolation:isolate;}.cls-6,.cls-9{font-size:18px;}.cls-6{fill:#213d47;}.cls-10,.cls-6,.cls-7,.cls-9{font-family:ArialMT, Arial;}.cls-7{font-size:17.97px;}.cls-10,.cls-7,.cls-9{fill:#fff;}.cls-8{letter-spacing:-0.04em;}.cls-10{font-size:18.04px;}</style></defs><title>OJ103514636</title><g id="Shapes"><line class="cls-1" x1="570.76" y1="209.38" x2="681" y2="209.38"/><polygon class="cls-2" points="572.95 216.86 560 209.38 572.95 201.9 572.95 216.86"/><line class="cls-1" x1="547" y1="36.38" x2="670.24" y2="36.38"/><polygon class="cls-2" points="668.05 43.86 681 36.38 668.05 28.9 668.05 43.86"/><line class="cls-1" x1="546" y1="109.38" x2="670.24" y2="110.31"/><polygon class="cls-2" points="668 117.77 681 110.38 668.1 102.81 668 117.77"/><line class="cls-3" x1="546" y1="272.87" x2="671.23" y2="272.7"/><polygon class="cls-2" points="669.05 280.18 682 272.68 669.04 265.22 669.05 280.18"/><line class="cls-1" x1="570.76" y1="143.38" x2="681" y2="143.38"/><polygon class="cls-2" points="572.95 150.86 560 143.38 572.95 135.9 572.95 150.86"/><line class="cls-1" x1="290" y1="272.38" x2="456.24" y2="272.38"/><polygon class="cls-2" points="454.05 279.86 467 272.38 454.05 264.9 454.05 279.86"/><rect class="cls-4" x="214.5" y="0.38" width="76" height="352.75" rx="8" ry="8"/><rect class="cls-4" x="466.75" width="93" height="186" rx="8" ry="8"/><rect class="cls-4" x="466.75" y="193.78" width="93" height="158" rx="8" ry="8"/><rect class="cls-4" x="320.75" y="242.73" width="111.75" height="60.1" rx="8" ry="8"/><rect class="cls-4" x="589" y="121.38" width="61.75" height="109" rx="8" ry="8"/><line class="cls-1" x1="290" y1="72.38" x2="456.24" y2="73.32"/><polygon class="cls-2" points="454.01 80.79 467 73.38 454.09 65.83 454.01 80.79"/><rect class="cls-4" x="681" width="105" height="73" rx="8" ry="8"/><rect class="cls-4" x="681" y="81.78" width="105" height="270" rx="8" ry="8"/><rect class="cls-4" x="110.25" y="83.88" width="70" height="185.75" rx="8" ry="8"/><line class="cls-1" x1="180" y1="176.76" x2="203.24" y2="176.76"/><polygon class="cls-2" points="201.05 184.24 214 176.76 201.05 169.28 201.05 184.24"/><path class="cls-5" d="M68,4.38a4,4,0,0,1,4,4v335a4,4,0,0,1-4,4H8a4,4,0,0,1-4-4V8.38a4,4,0,0,1,4-4H68m0-4H8a8,8,0,0,0-8,8v335a8,8,0,0,0,8,8H68a8,8,0,0,0,8-8V8.38A8,8,0,0,0,68,.38Z"/><line class="cls-1" x1="76" y1="176.76" x2="99.24" y2="176.76"/><polygon class="cls-2" points="97.05 184.24 110 176.76 97.05 169.28 97.05 184.24"/></g><g id="txt"><text class="cls-6" transform="translate(10.2 179.85)">Cliente</text><text class="cls-7" transform="translate(127.21 180.71) scale(0.97 1)"><tspan class="cls-8">W</tspan><tspan x="16.29" y="0">AF</tspan></text><text class="cls-9" transform="translate(593.86 179.71)">Caché</text><text class="cls-10" transform="translate(232.6 169.74)">Nivel <tspan x="3.5" y="21.65">web</tspan></text><text class="cls-9" transform="translate(333.1 276.59)">Mensajería</text><text class="cls-10" transform="translate(491.69 86.24)">Capa <tspan x="-20.55" y="21.65">intermedia </tspan><tspan x="16.55" y="43.3">1</tspan></text><text class="cls-10" transform="translate(491.69 266.89)">Capa <tspan x="-20.55" y="21.65">intermedia </tspan><tspan x="16.55" y="43.3">2</tspan></text><text class="cls-10" transform="translate(703.42 29.62)">Servicio <tspan x="4.01" y="21.65">remoto</tspan></text><text class="cls-10" transform="translate(711.94 220.41)">Capa <tspan x="-13.04" y="21.65">de datos</tspan></text></g></svg>