<svg xmlns="http://www.w3.org/2000/svg" viewBox="0 0 800 325.43"><defs><style>.cls-1,.cls-3{fill:none;stroke:#afafaf;stroke-width:6px;}.cls-1{stroke-miterlimit:10;}.cls-2{fill:#afafaf;}.cls-3{stroke-linejoin:bevel;}.cls-4{fill:#3fa0ec;}.cls-5{fill:#8fb6cc;}.cls-6,.cls-8,.cls-9{isolation:isolate;}.cls-6,.cls-8{font-size:18px;}.cls-10,.cls-11,.cls-6,.cls-9{fill:#fff;}.cls-10,.cls-11,.cls-6,.cls-8,.cls-9{font-family:ArialMT, Arial;}.cls-7{letter-spacing:-0.04em;}.cls-8{fill:#213d47;}.cls-9{font-size:17.97px;}.cls-10{font-size:14px;}.cls-11{font-size:18.04px;}</style></defs><title>OJ103514640</title><g id="Shapes"><line class="cls-1" x1="576.76" y1="155.93" x2="700" y2="155.93"/><polygon class="cls-2" points="578.95 163.41 566 155.93 578.95 148.45 578.95 163.41"/><line class="cls-1" x1="331.76" y1="293.85" x2="703" y2="293.85"/><polygon class="cls-2" points="333.95 301.33 321 293.85 333.95 286.37 333.95 301.33"/><line class="cls-1" x1="564" y1="174.93" x2="689.24" y2="174.93"/><polygon class="cls-2" points="687.05 182.41 700 174.93 687.05 167.45 687.05 182.41"/><line class="cls-1" x1="331.76" y1="88.43" x2="706.01" y2="88.43"/><polygon class="cls-2" points="333.95 95.91 320.99 88.42 333.95 80.95 333.95 95.91"/><line class="cls-1" x1="321" y1="68.93" x2="689.24" y2="68.93"/><polygon class="cls-2" points="687.05 76.41 700 68.92 687.05 61.45 687.05 76.41"/><line class="cls-3" x1="320.99" y1="24.46" x2="691.24" y2="24.46"/><polygon class="cls-2" points="689.05 31.94 702.01 24.46 689.05 16.98 689.05 31.94"/><line class="cls-1" x1="188" y1="65.41" x2="211.24" y2="65.41"/><polygon class="cls-2" points="209.05 72.89 222 65.41 209.05 57.94 209.05 72.89"/><rect class="cls-4" x="489.55" y="104.93" width="76" height="145.04" rx="8" ry="8"/><path class="cls-5" d="M68,5.72a4,4,0,0,1,4,4v306a4,4,0,0,1-4,4H8a4,4,0,0,1-4-4V9.72a4,4,0,0,1,4-4H68m0-4H8a8,8,0,0,0-8,8v306a8,8,0,0,0,8,8H68a8,8,0,0,0,8-8V9.72A8,8,0,0,0,68,1.72Z"/><line class="cls-1" x1="74" y1="65.41" x2="98.24" y2="65.41"/><polygon class="cls-2" points="96.05 72.89 109 65.41 96.05 57.94 96.05 72.89"/><line class="cls-1" x1="321" y1="214.95" x2="343.24" y2="214.95"/><polygon class="cls-2" points="341.05 222.43 354 214.95 341.05 207.47 341.05 222.43"/><rect class="cls-4" x="700" width="100" height="48.93" rx="8" ry="8"/><rect class="cls-4" x="700" y="265.43" width="100" height="60" rx="8" ry="8"/><rect class="cls-4" x="700" y="55.18" width="100" height="204" rx="8" ry="8"/><rect class="cls-4" x="354.18" y="184.97" width="102.64" height="60" rx="8" ry="8"/><rect class="cls-4" x="221.45" y="1.59" width="100" height="257.34" rx="8" ry="8"/><rect class="cls-4" x="221.45" y="263.85" width="100" height="60" rx="8" ry="8"/><rect class="cls-4" x="108.73" y="33.59" width="80" height="63.66" rx="8" ry="8"/><line class="cls-1" x1="457" y1="214.97" x2="479.24" y2="214.97"/><polygon class="cls-2" points="477.05 222.45 490 214.97 477.05 207.49 477.05 222.45"/><line class="cls-1" x1="86.76" y1="293.85" x2="221" y2="293.85"/><polygon class="cls-2" points="88.95 301.33 76 293.85 88.95 286.37 88.95 301.33"/><rect class="cls-4" x="610" y="75.93" width="61.75" height="92" rx="8" ry="8"/></g><g id="Layer_2" data-name="Layer 2"><text class="cls-6" transform="translate(497.37 174.93)"><tspan class="cls-7">T</tspan><tspan x="10.33" y="0">rabajo</tspan></text><text class="cls-8" transform="translate(10.2 160.85)">Cliente</text><text class="cls-6" transform="translate(728.08 160.95)">Base <tspan x="-11.51" y="21.6">de datos</tspan></text><text class="cls-6" transform="translate(387.6 218.92)">Cola</text><text class="cls-9" transform="translate(253.47 297.79) scale(0.97 1)">CDN</text><text class="cls-6" transform="translate(614.75 125.88)">Caché</text><text class="cls-10" transform="translate(115.93 54.37)">Proveedor <tspan x="24.51" y="16.8">de </tspan><tspan x="-3.51" y="33.6">identidades</tspan></text><text class="cls-11" transform="translate(233.24 129.85)">Front-end <tspan x="10.02" y="21.65">de web</tspan></text><text class="cls-10" transform="translate(726.19 19.34)">Servicio <tspan x="3.11" y="16.8">remoto</tspan></text><text class="cls-10" transform="translate(718.09 290.31)">Contenido <tspan x="7.79" y="16.8">estático</tspan></text></g></svg>